<svg id="Layer_1" data-name="Layer 1" xmlns="http://www.w3.org/2000/svg" width="179.7" height="40" viewBox="0 0 179.7 40"><defs><style>.cls-1{fill:#243069;}</style></defs><title>Vector Smart Object</title><polygon class="cls-1" points="50.3 21.4 36.8 35.1 21.7 35.1 8.3 21.5 4.8 24.9 19.7 40 38.9 40 53.7 24.9 50.3 21.4"/><polygon class="cls-1" points="36.9 4.9 55.2 23.4 58.6 20 38.9 0 19.7 0 0 20 3.4 23.5 7.2 19.6 21.7 4.9 36.9 4.9"/><path class="cls-1" d="M61.1,47.1a2.5,2.5,0,0,1-2.5-2.5,2.8,2.8,0,0,1,.3-1.3,6.5,6.5,0,0,0-2-.4,5.8,5.8,0,1,0,5.8,5.8,6.9,6.9,0,0,0-.3-2,2.2,2.2,0,0,1-1.3.4" transform="translate(-27.3 -28.8)"/><path class="cls-1" d="M104.2,49.9a7.1,7.1,0,1,0,7.1-7,7.1,7.1,0,0,0-7.1,7m17.6,0c0,5.6-4.6,10-10.5,10s-10.5-4.4-10.5-10,4.6-10,10.5-10,10.5,4.3,10.5,10" transform="translate(-27.3 -28.8)"/><polygon class="cls-1" points="102.7 11.2 107.6 18 112.4 11.2 116.3 11.2 109.7 20.6 116.9 30.9 112.9 30.9 107.6 23.5 102.3 30.9 98.4 30.9 105.6 20.8 98.9 11.2 102.7 11.2"/><rect class="cls-1" x="122.6" y="11.2" width="3.3" height="19.74"/><path class="cls-1" d="M173.5,46.8c0-2.6-1.8-3.8-4.8-3.8h-4.4v7.8h4.4c3,0,4.8-1.3,4.8-4m3.1-.1c0,4.5-2.8,7.1-7.8,7.1h-4.5v5.9H161V40h7.8c5,0,7.8,2.5,7.8,6.7" transform="translate(-27.3 -28.8)"/><rect class="cls-1" x="155.2" y="11.2" width="3.3" height="19.74"/><polygon class="cls-1" points="179.7 11.2 179.7 14.2 173.4 14.2 173.4 30.9 170.1 30.9 170.1 14.2 163.9 14.2 163.9 11.2 179.7 11.2"/></svg>