<svg id="_271e5882-3c8d-41ed-8a0a-1cb2b4d0cbc1" data-name="271e5882-3c8d-41ed-8a0a-1cb2b4d0cbc1" xmlns="http://www.w3.org/2000/svg" xmlns:xlink="http://www.w3.org/1999/xlink" viewBox="0 0 393 295"><defs><style>.cls-1,.cls-7{fill:#6c63ff;}.cls-1,.cls-14,.cls-6{opacity:0.1;}.cls-1,.cls-19,.cls-22,.cls-26,.cls-6{isolation:isolate;}.cls-2{fill:url(#linear-gradient);}.cls-3{fill:#d38884;}.cls-4{fill:#444053;}.cls-5{fill:#b07473;}.cls-8{fill:#67647e;}.cls-9{fill:#585268;}.cls-10{fill:#e1e7ef;}.cls-11{fill:url(#linear-gradient-2);}.cls-12{fill:#a27772;}.cls-13{fill:#cc818c;}.cls-15{fill:#f6f8fb;}.cls-16{fill:url(#linear-gradient-3);}.cls-17{fill:#65617d;}.cls-18{fill:#fbbebe;}.cls-19{opacity:0.05;}.cls-20{fill:#7c5c5c;}.cls-21{fill:url(#linear-gradient-4);}.cls-22{fill:#fff;opacity:0.5;}.cls-23{fill:#3f2b3b;}.cls-24{fill:none;stroke:#3f2b3b;stroke-miterlimit:10;stroke-width:0.34px;}.cls-25{fill:#a8a8a8;}.cls-26{opacity:0.2;}.cls-27{fill:#f2f2f2;}.cls-28{fill:#ffb9b9;}.cls-29{fill:#2f2e41;}.cls-30{fill:#cfcce0;}</style><linearGradient id="linear-gradient" x1="197.89" y1="509.27" x2="197.89" y2="711.07" gradientTransform="matrix(1, 0, 0, -1, -31.16, 752.65)" gradientUnits="userSpaceOnUse"><stop offset="0" stop-color="gray" stop-opacity="0.25"/><stop offset="0.54" stop-color="gray" stop-opacity="0.12"/><stop offset="1" stop-color="gray" stop-opacity="0.1"/></linearGradient><linearGradient id="linear-gradient-2" x1="262.97" y1="491.7" x2="262.97" y2="700.21" xlink:href="#linear-gradient"/><linearGradient id="linear-gradient-3" x1="321.89" y1="476.15" x2="321.89" y2="676.75" xlink:href="#linear-gradient"/><linearGradient id="linear-gradient-4" x1="214.6" y1="459.75" x2="214.6" y2="506.76" xlink:href="#linear-gradient"/></defs><title>Artboard 2</title><path class="cls-1" d="M6.5,139.67c6.15,24,19.16,44.65,39.72,54.68,42.75,20.86,139.1,10.1,211-2.24,37.21-6.39,69.9-24,93.66-48.82Z"/><path class="cls-1" d="M383.65,27H344.19a3.28,3.28,0,0,1-3.41-3.11,3.28,3.28,0,0,1,3.41-3.11H351a3.29,3.29,0,0,1-3.42-3.11A3.29,3.29,0,0,1,351,14.51h-4.87a3.29,3.29,0,0,1-3.42-3.11,3.29,3.29,0,0,1,3.42-3.11h20.59a58.31,58.31,0,0,0-16.06-4C294.52-2.32,274.46,2,267.38,6.5A82.73,82.73,0,0,1,238.52,18c-34.65,6.52-99.46,14.36-158.19-2.51C51.14,7.15,29.44,21.33,16.44,45H390.5a51.58,51.58,0,0,0-4.63-18.8A3.57,3.57,0,0,1,383.65,27Z"/><path class="cls-1" d="M3.15,89.68a145,145,0,0,0,1.54,41.79L351.15,143a147.94,147.94,0,0,0,24.07-33.46Zm137,29.81h-6.82a3.12,3.12,0,1,1,0,6.22H93.9a3.12,3.12,0,1,1,0-6.22h6.83a3.12,3.12,0,1,1,0-6.22H95.85a3.12,3.12,0,1,1,0-6.22h39.46a3.12,3.12,0,1,1,0,6.22h4.86a3.12,3.12,0,1,1,0,6.22Z"/><path class="cls-1" d="M390.52,45.21,12.27,53.59A126.86,126.86,0,0,0,3.21,89.21H383.89a136.32,136.32,0,0,0,5.5-22.7A98.78,98.78,0,0,0,390.52,45.21ZM80,72.69H73.18a3.12,3.12,0,1,1,0,6.22H33.72a3.12,3.12,0,1,1,0-6.22h6.83a3.12,3.12,0,1,1,0-6.22H35.67a3.12,3.12,0,1,1,0-6.22H75.13a3.12,3.12,0,1,1,0,6.22H80a3.12,3.12,0,1,1,0,6.22Z"/><ellipse class="cls-1" cx="229.1" cy="256.91" rx="25.68" ry="5.77"/><ellipse class="cls-1" cx="288.78" cy="275.22" rx="46.33" ry="3.8"/><ellipse class="cls-1" cx="102.75" cy="269.46" rx="46.33" ry="5.77"/><ellipse class="cls-1" cx="173.39" cy="240.59" rx="34.86" ry="5.77"/><ellipse class="cls-1" cx="183.13" cy="288.62" rx="27.91" ry="5.77"/><path class="cls-2" d="M199.44,103.42c-.73-5-5.24-16.54-5.24-16.54h0c-.08-.35-.17-.69-.27-1-3.2-11-7.62-11.95-7.62-11.95l-15.87-3.41a1.19,1.19,0,0,1,.35.32,1.9,1.9,0,0,0-.25,0,6.1,6.1,0,0,1-1.39-3c0-.16-.06-.34-.08-.51a11.16,11.16,0,0,0,.2-15.78,13.07,13.07,0,0,0-1.11-1l-.51-.38a2.51,2.51,0,0,0,.21-3c-1.25-2.6-4-4.24-6.76-5a11.45,11.45,0,0,0-6.56-.14,23.64,23.64,0,0,0-3.43,1.59c-2.11,1-4.44,1.89-6,3.62a1.74,1.74,0,0,0-.6,1.45,3.92,3.92,0,0,0,.59,1.05,3.12,3.12,0,0,1,0,2.64,27.12,27.12,0,0,0-1,2.54,2.67,2.67,0,0,0,.53,2.55,11,11,0,0,0,1,.69,5,5,0,0,1,1,1.06c.63.84,1.25,1.69,1.88,2.54a26.5,26.5,0,0,1,2.35,3.57A18.27,18.27,0,0,0,152.29,68a4.92,4.92,0,0,0,.63.66l-.19-.08a2.84,2.84,0,0,0,2.09.85h.1a.55.55,0,0,0,.38-.15v.34a35.67,35.67,0,0,1-.06,3.73l-.14-.07a1.29,1.29,0,0,0-1.37.14l-14.6,11.72S136,89.51,136.4,97l-2.56,11.24s-3.2,9.54-.74,16.35S137,135.3,137,135.3s1,7.74,2.46,8.37,2.12,1,2.12,1l.29,1.85h0l.27.48c1.08,1.87,5.06,8.48,7.38,7.77a29.82,29.82,0,0,1,.37,5.42l2.29,15.38s1.6,4.18,1.5,6.38,1.87,5.31,1.87,5.31a10.11,10.11,0,0,0-1,7.15c.94,4.1,2.12,23,2.12,23l1.71,4.58,0,5.36a5.17,5.17,0,0,1-1.06,2.39c-1.11,1.2-1,2.59-3.69,4.23s-4.36,2.27-4.36,4.44a5.38,5.38,0,0,1-.08.9c-.24,1.6-.72,2.47,4.18,2.93a12.91,12.91,0,0,0,9.6-3.21s.85-1.53,4.83-2.15c0,0,1.37-.07,1.44-1.28,0-.42,0-1.21,0-2.09-.06-1.67-.22-3.62-.44-3.71a8.27,8.27,0,0,1-.89-2.41H169s1-7.74,0-12.75a20.81,20.81,0,0,1-.1-8.57l-.19-13.23a3.77,3.77,0,0,1-.3-4c1.07-2.58,0-15.33,0-15.33s.4-4.58,1.53-5.65.05-6.7,0-7l2,6.75s.89,13.43,2.76,15.86l.54,6.09s3.84,5.6,3.1,8.61.79,13.92.79,13.92v11.14s-1.73,4.48.68,6.09l1,0c-.35.31-.61.79-1,1.21s-.72,2.28-.87,3.83c-.12,1.31-.16,2.44-.16,2.44a4,4,0,0,0,2.95,1.75c1.93.12,8.29,4.95,8.29,4.95a75.48,75.48,0,0,0,7.9-.34l.09,0a2.19,2.19,0,0,0,1.23-1,2.53,2.53,0,0,0,.29-1.84,4.6,4.6,0,0,0-2.65-2.91c-4.19-2.21-4.82-4.28-4.82-4.28l-2.75-4.14h.39a17.67,17.67,0,0,1,2.76-9.29l-.2-21.66s1.23-7.44-.88-11.48c0,0-.18-4.29,1.24-5.6s-1.88-14.6-1.88-14.6-.69-7.13-1.49-13.64h0c3.32,3.16,6.77-8.19,7.35-10.21h.08l0-.14,0-.15h0s-.73-2.62-.19-2.09,1.87-1.46,1.87-1.46-.2-10.85,2.11-16.32S199.44,103.42,199.44,103.42Zm-9.9,6.91,0,0c.34,6.62-.06,20.76-.06,20.76s-.46,1.82-.95,3.95l-.34-13.43h0l-.34-12.66Zm-42.36-4.57s1.67,20.92,0,23.94a15.52,15.52,0,0,0-1.21,4.14c-.55-1.46-1.72-4.86-1.3-6.67.54-2.33-1.09-8.47-1.09-8.61a14.6,14.6,0,0,1,1-5.91c1.17-2.5.4-3.59.4-3.59S146,105,147.18,105.76Z"/><path class="cls-3" d="M151.25,152.88c-1.46,6.41-7.25-3.28-8.57-5.6l-.27-.48.63-3,3.32-1.36a9.06,9.06,0,0,1,1.49,1A9,9,0,0,1,151.25,152.88Z"/><path class="cls-3" d="M196.22,142.4a.39.39,0,0,1,0,.14.53.53,0,0,1,0,.16c-.57,2-3.95,13.26-7.21,10.13-3.57-3.41-1.84-11.3-1.84-11.3h0l7.51-.77,1.49,1.53h0Z"/><path class="cls-4" d="M191.88,197.82l.19,21.51a17.64,17.64,0,0,0-2.71,9.22l-9.7.38c-2.37-1.59-.69-6-.69-6V211.82S177.47,201,178.2,198s-3-8.54-3-8.54l-.54-6c-1.83-2.41-2.7-15.74-2.7-15.74L170,161c.05.3,1.07,5.91,0,7s-1.5,5.6-1.5,5.6,1.06,12.66,0,15.22a3.78,3.78,0,0,0,.28,4l.2,13.14a20.55,20.55,0,0,0,.09,8.5c1,5,0,12.66,0,12.66H158.61l0-5.37L157,217.12s-1.16-18.74-2.08-22.8a10.19,10.19,0,0,1,1-7.1s-1.92-3.09-1.83-5.26-1.49-6.33-1.49-6.33l-2.24-15.26a29.63,29.63,0,0,0-1.12-8.69c-1.3-4.35-3.23-10.05-3.23-10.05l2.18.19,11,1s26.77-1.8,28-.3a4.77,4.77,0,0,1,.51,1.56c1.2,5.39,2.79,22.3,2.79,22.3s3.23,13.19,1.84,14.49S191,186.4,191,186.4C193.09,190.42,191.88,197.82,191.88,197.82Z"/><path class="cls-5" d="M169.25,235.18c-.07,1.2-1.41,1.27-1.41,1.27-3.91.62-4.74,2.14-4.74,2.14a12.59,12.59,0,0,1-9.42,3.19c-4.81-.47-4.35-1.32-4.1-2.91a5.47,5.47,0,0,0,.08-.9c0-2.17,1.67-2.79,4.28-4.43s2.53-3,3.62-4.21a6.7,6.7,0,0,0,1.2-3.51c1.22-2.14,4.34.34,4.34.34.15.76,4.78.65,4.78.65s.62,2.47.93,2.61.37,2,.43,3.69C169.27,234,169.28,234.77,169.25,235.18Z"/><path class="cls-6" d="M169.25,235.18c-.07,1.2-1.41,1.27-1.41,1.27-3.91.62-4.74,2.14-4.74,2.14a12.59,12.59,0,0,1-9.42,3.19c-4.81-.47-4.35-1.32-4.1-2.91,2.15.53,6.26,1.28,8.66,0,3.34-1.81,5.73-3.07,5.73-3.07l5.27-2.65C169.27,234,169.28,234.77,169.25,235.18Z"/><path class="cls-5" d="M198.74,241.63a2.1,2.1,0,0,1-1.2,1l-.1,0a72.57,72.57,0,0,1-7.75.34s-6.23-4.82-8.12-4.93a4,4,0,0,1-2.89-1.74s0-1.12.15-2.42c.15-1.55.41-3.34.86-3.81.83-.87,1-2.05,2.9-1.3,0,0,2.67-4.72,5.83-1.07l3.26,4.95s.62,2,4.75,4.27a4.58,4.58,0,0,1,2.6,2.88A2.54,2.54,0,0,1,198.74,241.63Z"/><path class="cls-6" d="M198.74,241.63l-1.2,1-.1,0a72.57,72.57,0,0,1-7.75.34s-6.23-4.82-8.12-4.93a4,4,0,0,1-2.89-1.74s0-1.12.15-2.42c1.92.57,4.83,1.59,5.6,2.68,1.2,1.66,4.83,4,4.83,4s6.76-.65,9.77-.74A2.54,2.54,0,0,1,198.74,241.63Z"/><path class="cls-3" d="M172.41,73.06l-8.91,9.42s-10.8-.8-8.92-4c1-1.62,1.11-5,1-8s-.37-5.27-.37-5.27,15.14-7.54,14-.51a11.74,11.74,0,0,0,0,4C169.84,72.29,172.41,73.06,172.41,73.06Z"/><path class="cls-6" d="M169.22,64.73a11.49,11.49,0,0,0,0,4,11.14,11.14,0,0,1-7.93,3.31c-2.05,0-4.26-1.69-5.92-2.66-.08-2.85-.09-4.15-.09-4.15S170.38,57.7,169.22,64.73Z"/><path class="cls-3" d="M172.41,60.31a11.17,11.17,0,1,1-4.2-8.72A11.16,11.16,0,0,1,172.41,60.31Z"/><path class="cls-6" d="M187.59,144.06c-2.78,6.61-20.65,6.75-20.65,6.75V143.6l-1.09-.08c.47,2.07-.65,7.1-.65,7.1-14.13,2-17.57-6.05-17.57-6.05l.49-2.76,11,1s26.77-1.8,28-.3A4.82,4.82,0,0,1,187.59,144.06Z"/><path class="cls-7" d="M166.94,149.94v-7.21l-1.09-.07c.47,2.05-.65,7.1-.65,7.1-10.63,1.5-15.21-2.69-16.83-4.85a6.54,6.54,0,0,1-.74-1.21l4.31-24.27,1-35.72,1.54-6.27.36-3v0h0l1.1.47,6.58,2.85,7.47-5.65.11-.08.37-.28.62.5,1.53,1.23,4.93,31.81s8.53,24.5,10.13,34.38c.07.4.12.77.16,1.11C189,149.77,166.94,149.94,166.94,149.94Z"/><circle class="cls-8" cx="163.38" cy="78.42" r="0.63"/><circle class="cls-8" cx="163.68" cy="84.22" r="0.63"/><circle class="cls-8" cx="164.31" cy="93.6" r="0.63"/><circle class="cls-8" cx="165.36" cy="103.71" r="0.63"/><circle class="cls-8" cx="166" cy="113.2" r="0.63"/><circle class="cls-8" cx="166.63" cy="123.31" r="0.63"/><circle class="cls-8" cx="166.38" cy="133.31" r="0.63"/><path class="cls-6" d="M155.29,123s-.71,9.3-2,12-1.88,10.29-1.88,10.29l-3-.34a7.09,7.09,0,0,1-.75-1.2l4.32-24.27,1-35.73,1.55-6.27.36-3,0,0a1.21,1.21,0,0,1,1.08,0l.14.07-.12.38c-1.18,3.7-1.62,10.51-1.62,10.51s1.71,12.46,1.88,18.26S155.29,123,155.29,123Z"/><path class="cls-6" d="M147.85,143.47a1.19,1.19,0,0,1-.12.22c-1.17,2-4.15,3.24-5,3.59l-.27-.48.63-3,3.32-1.36A8.16,8.16,0,0,1,147.85,143.47Z"/><path class="cls-8" d="M139.8,96l-2.75,1.64-2.51,11.16s-3.14,9.47-.73,16.23,3.82,10.63,3.82,10.63,1,7.68,2.41,8.31,2.08,1,2.08,1l.29,1.83s3.93-1.33,5.32-3.68-1-8.2-1-8.2-2.08-5-1.54-7.29-1.07-8.41-1.07-8.54a14.59,14.59,0,0,1,1-5.87c1.17-2.49.39-3.55.39-3.55l-.72-7.1Z"/><path class="cls-6" d="M187.82,142s-7.3,2.75-9.62.34-2.07-13.72-2.07-13.72-2.22-20.87-3.63-24.3-.68-28.16-.68-28.16-.94-3.2-1.76-4a1.24,1.24,0,0,0-.18-.14l.28.06,1,.22,1.54,1.23,4.93,31.81s8.53,24.5,10.13,34.38Z"/><path class="cls-6" d="M196.22,142.69h-.08c-.92.12-9,1.1-9.06-.59a5.63,5.63,0,0,1,0-.58l7.51-.77,1.49,1.53h0c0,.1,0,.19.07.25Z"/><path class="cls-8" d="M188.45,84.85l5.32,2.78s4.44,11.49,5.15,16.42c0,0,3.29,13.19,1,18.62s-2.07,16.2-2.07,16.2-1.31,2-1.84,1.46.2,2.07.2,2.07-9.11,1.21-9.15-.58,2.09-10.34,2.09-10.34.58-20.33-.24-23.52S188.45,84.85,188.45,84.85Z"/><path class="cls-6" d="M172.55,106.51s-3,7.34-4,7.83.2,2.41.2,2.41S174.24,109.12,172.55,106.51Z"/><path class="cls-6" d="M170.77,80.76c0-.14-3.58,3.54-4.54,4.1S169.75,84.83,170.77,80.76Z"/><path class="cls-6" d="M160.72,105.93s-5.51,3.56-4.78,5S160.72,105.93,160.72,105.93Z"/><path class="cls-6" d="M170.72,157.91a29.45,29.45,0,0,0,12,3.75Z"/><path class="cls-6" d="M159.46,165.15s4.35,5.47,6.33,5.61S159.46,165.15,159.46,165.15Z"/><path class="cls-6" d="M165.55,186.56c-.2.09-2.47,4.92-4.78,5.07S165.55,186.56,165.55,186.56Z"/><path class="cls-6" d="M185.69,197.14s4.31-1,5.27,2.12C191,199.25,190.67,198.29,185.69,197.14Z"/><path class="cls-6" d="M182.79,214.81s5.22-1.06,6.33.39S182.79,214.81,182.79,214.81Z"/><path class="cls-6" d="M168,217.28c0,.05-5.31,1.07-5.12,1.74s5.66.58,5.86-.48a1,1,0,0,0-.73-1.25Z"/><path class="cls-6" d="M181.05,221.86s8.73-1.06,8.2.78S181.05,221.86,181.05,221.86Z"/><path class="cls-6" d="M135.36,114.34c0,.14,5.75.91,6.52,2.75,0,0-5.6-2.61-6.49-2.61"/><path class="cls-6" d="M143.38,129.26s-4.74,1.5-4.4,3.76S138.5,132,143.38,129.26Z"/><path class="cls-6" d="M141.17,140.76s1.73-2.37,3.37-1.93S141.17,140.76,141.17,140.76Z"/><path class="cls-6" d="M168.21,51.59a2.71,2.71,0,0,1-.55.41c-1.37.8-1.75,2-2.39,3.43a7.3,7.3,0,0,1-2.49,3.4c-1.58,1-3.65.6-5.28,1.43a4.1,4.1,0,0,0-2.19,4,12.24,12.24,0,0,0,.47,1.85,12.94,12.94,0,0,1,.49,4,.24.24,0,0,1,0,.12,11.16,11.16,0,0,1,10-20,11,11,0,0,1,2,1.27Z"/><path class="cls-9" d="M167.92,48.23c-1.23-2.58-3.89-4.21-6.63-5a11.08,11.08,0,0,0-6.45-.14,24,24,0,0,0-3.37,1.58c-2.06,1-4.34,1.87-5.89,3.59a1.8,1.8,0,0,0-.6,1.44,4,4,0,0,0,.59,1,3.17,3.17,0,0,1,0,2.63,23.3,23.3,0,0,0-1,2.52,2.63,2.63,0,0,0,.52,2.53,8.93,8.93,0,0,0,1,.68,5,5,0,0,1,.93,1.06l1.84,2.51a25.7,25.7,0,0,1,2.31,3.55,17.44,17.44,0,0,0,1.42,2.71,3.12,3.12,0,0,0,2.59,1.38.5.5,0,0,0,.41-.19.47.47,0,0,0,.05-.26,13.18,13.18,0,0,0-.48-4,11.15,11.15,0,0,1-.47-1.85,4.1,4.1,0,0,1,2.19-4c1.63-.83,3.71-.48,5.28-1.43a7.27,7.27,0,0,0,2.49-3.41c.65-1.41,1-2.64,2.39-3.43A2.41,2.41,0,0,0,167.92,48.23Z"/><path class="cls-6" d="M162.92,230.62s1.71,2.17,1.26,3.41S162.92,230.62,162.92,230.62Z"/><path class="cls-6" d="M186,236.06s.37-2.92,1.89-2.94,1.6-.16,2.76.29,2.25,1.14,1.9,1.24-2-1.67-3.69-.76A12.13,12.13,0,0,0,186,236.06Z"/><path class="cls-6" d="M157.83,81.37,162.61,78s-7-4.13-7.83-3.55-1.4,5.81-1.4,5.81Z"/><path class="cls-10" d="M157.81,81.16l4.78-3.42s-7-4.13-7.83-3.55-1.4,6.09-1.4,6.09Z"/><path class="cls-7" d="M157.81,81.16l4.78-3.42s-7-4.13-7.83-3.55-1.4,6.09-1.4,6.09Z"/><path class="cls-8" d="M155.55,74.22l-.14-.07a1.23,1.23,0,0,0-1.34.14L139.73,85.92s-3.12,4.31-2.68,11.75l8.45,12s1-4.06,2.13-3.29c0,0,1.64,20.78,0,23.77s-2.37,14.2-2.37,14.2l5.56.63s.58-7.58,1.88-10.29,2-12,2-12,1.18-13.5,1-19.3-1.88-18.26-1.88-18.26S154.28,77.8,155.55,74.22Z"/><path class="cls-6" d="M169.84,79.26l-6-2.21s7.59-8.31,8.53-3.7Z"/><path class="cls-10" d="M169.84,79l-6-2.21s7.59-8.31,8.53-3.7Z"/><path class="cls-7" d="M169.84,79l-6-2.21s7.59-8.31,8.53-3.7Z"/><path class="cls-6" d="M169.64,71.9a.31.31,0,0,1,.25,0Z"/><path class="cls-8" d="M170.22,71.32,186,74.73s4.35,1,7.49,11.89-4.3,24.29-4.3,24.29l-1.64-1.4.82,31.88s-7.29,2.76-9.61.35S176.7,128,176.7,128s-2.22-20.86-3.62-24.29-.69-28.16-.69-28.16S171.1,71.13,170.22,71.32Z"/><path class="cls-6" d="M184.68,91.63c-.23.21-.48,9.86.48,17.2a93.27,93.27,0,0,0,2.73,13.23l-1.43-29.41S185.35,91,184.68,91.63Z"/><path class="cls-6" d="M182.74,83.32c.39.25,2.08,4.26,1.31,5.9S182.74,83.32,182.74,83.32Z"/><path class="cls-6" d="M167.83,48.23a8.72,8.72,0,0,0-3.48-3.64A8.33,8.33,0,0,1,167,47.66a2.43,2.43,0,0,1-.85,3.48c-1.33.75-1.74,2-2.39,3.43A7.38,7.38,0,0,1,161.23,58c-1.57.95-3.65.59-5.28,1.42a4.13,4.13,0,0,0-2.19,4,11.66,11.66,0,0,0,.47,1.85,13.32,13.32,0,0,1,.5,4,.54.54,0,0,1-.06.25.48.48,0,0,1-.4.2,2.43,2.43,0,0,1-1.19-.22,2.73,2.73,0,0,0,2,.8.41.41,0,0,0,.46-.34.2.2,0,0,0,0-.11,13,13,0,0,0-.49-4,10.67,10.67,0,0,1-.47-1.85,4.11,4.11,0,0,1,2.18-4c1.64-.82,3.71-.48,5.28-1.42a7.22,7.22,0,0,0,2.49-3.42c.66-1.41,1-2.63,2.39-3.43A2.43,2.43,0,0,0,167.83,48.23Z"/><path class="cls-11" d="M265.08,91.1c-4.71-.09-8.86-3.42-11.21-7.47a7.51,7.51,0,0,1-1.14-3.2,4,4,0,0,1,.13-.77,7.88,7.88,0,0,0,.35-1.17,3.84,3.84,0,0,0,0-.48v0a2.83,2.83,0,0,0-1-2.3c-.63-.59-1.42-1-2.07-1.61-2-1.78-2.64-4.63-2.67-7.34V66.6c0-1.16.11-2.32.1-3.48a14.57,14.57,0,0,0-.08-2,6.55,6.55,0,0,0-2.11-4.36c-3.37-2.73-9,.11-12.51-2.47-.85-.63-1.54-1.56-2.56-1.81a4.31,4.31,0,0,0-2.34.32c-2.57.85-5.43,2-6.44,4.44-.57,1.42-.41,3.05-.94,4.49a22.32,22.32,0,0,1-1.47,2.71,4.34,4.34,0,0,0-.54,2.26,2.52,2.52,0,0,0,.17,1.21,2.92,2.92,0,0,0,.83,1.19,3.47,3.47,0,0,1-.5.8c-.65.8-1.66,1.37-2.34,2.17a5.11,5.11,0,0,0-.6,5.17c.63,1.72,1.75,3.29,2.52,5a2.64,2.64,0,0,1,.26,2.26,6.6,6.6,0,0,1-1.13,1.32,4.12,4.12,0,0,0-1,2.28C209.05,89.85,209,96,209,96h0l-4.15,10.44s-.67,1.76-1.45,4.08l-4.91-.88,3.41,5.72A18.17,18.17,0,0,0,201,121s-1.52,7.17,1.19,8.42l6,2.69a3.66,3.66,0,0,0,.83.38l.24.11a.68.68,0,0,0,.56,0h.08a.79.79,0,0,0,.34-.06.62.62,0,0,0,.3-.32v0l1.8-.52,1.51,1.8c.69.48,1.37.89,2,1.27l-2.35,23.36s-.38,31.06-1.52,38.14a19.65,19.65,0,0,0-.27,5.63l0,.07c.28,2,1,2.39,1,2.39v0l0,0a21.66,21.66,0,0,1,1.23-2.63v.51c0,2.64-.1,6.33-.38,8.73-.46,4.09,1.19,17.59,1.19,17.59l.57,12.29a11.28,11.28,0,0,1-1.4,6c-1.36,2.46-3.11,5.91-3.23,7.44a1,1,0,0,0,0,.25h0L207.77,258s-1.15,1.76,1.44,2.48c1.39.38,3.78,0,5.71-.46a3.82,3.82,0,0,0,3-3.71,13.21,13.21,0,0,1,2.42-4.64l.48,2.83,3.22.8.41-7.76a3.33,3.33,0,0,0,.23-1.36h0c.63-5.52-1.5-5-1.5-5a.26.26,0,0,1,.1.19l-.1-.19h0c-1.31-2.58-.68-6.83-.68-6.83s1.7-12.29,2.29-15.54c.42-2.29.24-9.8.1-14,0-.18,0-.34,0-.51,5-.07,11.12-.23,15.42-.65v.51l-.79,29a16.12,16.12,0,0,1-1.12,5.4.18.18,0,0,1,0,.1,23.59,23.59,0,0,0-1.57,7.61l-.37,9.22v.25h0c-.64.25-1.65,1-1.68,3-.05,3,5.3,2,5.3,2,5.34,0,5.38-5.56,5.38-5.56s.17-5.09.42-8.5-.8-2.66-.8-2.66l-.08,9.7v-8.43l.08-1.23v0h0v-.26l.67-10s4.92-16.68,5.68-19.88c.54-2.27.32-9.12.14-12.9a2.8,2.8,0,0,0,0-.51c1.53-.13,2.88-.15,3.42-.15h.25s-.26-26.77-.89-36.86-1.66-19.33-4.2-22.11c-1.54-1.68-3.68-6.86-5.12-10.71a53.1,53.1,0,0,0,9.41,3.08c8.06,1.68,6.95-5.31,6.95-5.31l-.81-13.22h.05a67.65,67.65,0,0,0-.89-10.34,30.46,30.46,0,0,0-2.07-7.51c.87-.34,1.74-.7,2.58-1.08,2.19-1,4.66-2.33,5-4.69H265A3.15,3.15,0,0,0,265.08,91.1Zm-49.92,19.12h0c0,1.36,0,3.73-.12,6.35l-2.56-3.42,2.57-4.15Zm35.32,12.09L246.22,121a19.66,19.66,0,0,1,2.63-3.26l.37-.34-.13,0,.2-.19.13,0-.2.19.23,0a7.43,7.43,0,0,0,1.45,2.92c1.53,1.67-.42,2.09-.42,2.09Z"/><polygon class="cls-12" points="224.6 245.21 224.1 254.66 220.93 253.86 220.26 249.93 224.6 245.21"/><polygon class="cls-6" points="224.6 245.21 224.1 254.66 220.93 253.86 220.26 249.93 224.6 245.21"/><path class="cls-13" d="M236.27,255.91l4.84,1,3.6-3.17v-9l.08-1.22v0h0v-.26l.67-9.94s4.85-16.56,5.61-19.73c.53-2.26.31-9.06.13-12.82-.07-1.54-.13-2.57-.13-2.57l-10.71-2.59-.22,8.23-.78,28.83a16.17,16.17,0,0,1-1.1,5.36l0,.1a23.48,23.48,0,0,0-1.55,7.55l-.36,9.17v.25Z"/><path class="cls-6" d="M236.27,255.91l4.84,1,3.6-3.17V253a1,1,0,0,1-.52.82l-.05,0a9.68,9.68,0,0,1-5.44,1.07l-1.89-.16a1.76,1.76,0,0,0-.5.13v.25Z"/><path class="cls-5" d="M244.14,254.08l.05,0a1.05,1.05,0,0,0,.53-.89l.07-9.63s1.05-.75.8,2.64-.42,8.45-.42,8.45,0,5.51-5.31,5.51c0,0-5.27,1-5.23-2s2.18-3.14,2.18-3.14l1.89.17A9.69,9.69,0,0,0,244.14,254.08Z"/><path class="cls-13" d="M211,253.86c.12,2.18,6.52.92,6.52.92l4.3-8.36s3.6-2.76,1.8-5.18a2.26,2.26,0,0,1-.26-.42l0,0h0l-.11-.19h0c-1.29-2.56-.65-6.76-.65-6.76s1.67-12.21,2.25-15.43c.42-2.27.25-9.73.11-13.9-.05-1.74-.11-2.9-.11-2.9l-10.62-2.84v3.16c0,2.62-.1,6.29-.37,8.67-.46,4,1.17,17.47,1.17,17.47l.56,12.21a11.31,11.31,0,0,1-1.36,6c-1.33,2.43-3.08,5.87-3.2,7.39A1.69,1.69,0,0,0,211,253.86Z"/><path class="cls-6" d="M211,253.86c.12,2.18,6.52.92,6.52.92l4.3-8.36s3.6-2.76,1.8-5.18a2.26,2.26,0,0,1-.26-.42,20.8,20.8,0,0,1-1.45,4.44s-3.56,7.11-4.69,8.74-6-.3-6.22-.37A.89.89,0,0,0,211,253.86Z"/><path class="cls-5" d="M223.25,240.6s2.11-.49,1.48,5h0a3.54,3.54,0,0,1-1.66,3.13,12,12,0,0,0-5,6.93h0a3.77,3.77,0,0,1-2.91,3.69c-1.9.44-4.27.83-5.64.45-2.55-.71-1.42-2.46-1.42-2.46l2.93-3.48s5.1,2,6.22.38,4.69-8.74,4.69-8.74S223.88,241.06,223.25,240.6Z"/><path class="cls-6" d="M240.36,196.64l-.22,8.22c2.85-.27,4.89-.66,5.24-1.2.75-1.17,3.49-1.66,5.82-1.86-.07-1.54-.13-2.57-.13-2.57Z"/><path class="cls-6" d="M214.23,202.94a4.1,4.1,0,0,1,1.17-1.41c1.13-.62,1,4,1,4s3.75,0,8.55,0c-.05-1.74-.11-2.9-.11-2.9l-10.62-2.84S214.25,201.09,214.23,202.94Z"/><path class="cls-4" d="M213,204s1.26-3.41,2.39-4,1,4,1,4,27.59.26,29-1.88,9.41-2,9.41-2-.25-26.59-.88-36.62-1.63-19.19-4.14-21.95c-1.62-1.78-3.92-7.56-5.35-11.41-.78-2.1-1.29-3.64-1.29-3.64L216.79,128l-.21,2.13-2.8,28s-.37,30.85-1.5,37.87S213,204,213,204Z"/><g class="cls-14"><path d="M243.24,202.15c1.37-2.13,9.41-2,9.41-2s-.25-26.59-.88-36.62-1.63-19.19-4.14-21.95c-1.63-1.79-3.93-7.56-5.36-11.41-.65-1.77-1.12-3.13-1.24-3.52l2-.12s.52,1.54,1.3,3.64c1.42,3.85,3.73,9.63,5.35,11.41,2.51,2.76,3.51,11.92,4.14,21.95s.88,36.62.88,36.62-8-.13-9.41,2C244.15,204,223.85,204.06,218,204,225.52,204,242.18,203.8,243.24,202.15Z"/><path d="M213.27,200c.51-.28.76.5.89,1.46A18.58,18.58,0,0,0,213,204s-.73-.39-1-2.39A4.57,4.57,0,0,1,213.27,200Z"/></g><path class="cls-9" d="M221.16,62.21c-1.82,2.48,0,6-1.94,8.43-.64.8-1.63,1.37-2.31,2.15a5.13,5.13,0,0,0-.58,5.14c.61,1.71,1.7,3.26,2.48,4.93a2.62,2.62,0,0,1,.25,2.25,5.91,5.91,0,0,1-1.12,1.3,4.73,4.73,0,0,0-.61,5,16.38,16.38,0,0,0,3.24,4.47,2.75,2.75,0,0,0,2,1.14,2.71,2.71,0,0,0,1.24-.4,12.64,12.64,0,0,0,5.75-16.49c-1.06-2.54-2.82-5-2.84-7.65,0-2.12,1.09-4.16,1.29-6.27.23-2.58-1.29-6.66-4.4-7.79C223.79,60.09,222.09,60.93,221.16,62.21Z"/><path class="cls-6" d="M221.16,62.21c-1.82,2.48,0,6-1.94,8.43-.64.8-1.63,1.37-2.31,2.15a5.13,5.13,0,0,0-.58,5.14c.61,1.71,1.7,3.26,2.48,4.93a2.62,2.62,0,0,1,.25,2.25,5.91,5.91,0,0,1-1.12,1.3,4.73,4.73,0,0,0-.61,5,16.38,16.38,0,0,0,3.24,4.47,2.75,2.75,0,0,0,2,1.14,2.71,2.71,0,0,0,1.24-.4,12.64,12.64,0,0,0,5.75-16.49c-1.06-2.54-2.82-5-2.84-7.65,0-2.12,1.09-4.16,1.29-6.27.23-2.58-1.29-6.66-4.4-7.79C223.79,60.09,222.09,60.93,221.16,62.21Z"/><path class="cls-6" d="M241.38,152.61c-3.65.19-7.09,1.76-10.28,3.53s-6.29,3.79-9.73,5.05"/><path class="cls-6" d="M239.11,161.21a15,15,0,0,0-9.47,4.61c-.89.93-1.66,2-2.58,2.89a11.57,11.57,0,0,1-5.08,2.88"/><path class="cls-6" d="M239.86,167.75a16.56,16.56,0,0,0-7.62,4.6c-.56.6-1.07,1.25-1.63,1.85-3,3.24-7.29,5-11.41,6.59"/><path class="cls-13" d="M239.55,77a74.89,74.89,0,0,0,.75,8.71c.34,2.05.82,3.89,1.5,4.71C243.81,92.8,232,96,232,96l-7-5.4s5.52-5.08,2.95-10S239.55,77,239.55,77Z"/><path class="cls-6" d="M216.57,130.17h27.84c-.77-2.1-1.29-3.64-1.29-3.64L216.79,128Z"/><path class="cls-7" d="M214.78,129.67h29.76a10.33,10.33,0,0,1,1.2-7.9,17.42,17.42,0,0,1,3.11-4l.21-.19,10.39-2.3.56-.12s.08-18.89-6.61-21.49a39,39,0,0,1-10.7-6.1l-9.19,2.84L226.73,87c-2.17,2.34-7.94,1.42-7.94,1.42-9.44,1.08-9.44,8.19-9.44,8.19s5.51,12.87,5.93,12.87S214.78,129.67,214.78,129.67Z"/><path class="cls-6" d="M225.06,117.65s-6.07-1.34-8.14-3.69"/><path class="cls-6" d="M255.66,110.6l-7,5.77a12.63,12.63,0,0,0,.23,1.37l.21-.19,10.39-2.3Z"/><path class="cls-6" d="M236.6,127.66s1.54.87,3.9,2h4a10.33,10.33,0,0,1,1.2-7.9l-7.14-2.3C241,121.72,236.6,127.66,236.6,127.66Z"/><path class="cls-7" d="M213.52,94.3l-4.17,2.26-4.1,10.37S201,118.3,201.4,121.31c0,0-1.5,7.1,1.17,8.36l7,3.15a.64.64,0,0,0,.85-.33.65.65,0,0,0,0-.56c-1-1.88-2.08-4.83-.34-6.44l-2-4.18,7.26-11.88,2.42-4.09Z"/><path class="cls-6" d="M222.82,115.28c.36,1.48,1.58,3.76,5.63,4.61l4.44,3.63,4.72,2.14,1.92.87.82-5.89-1.85-1-2.17-1.18s-4.87-8.83-12.59-5.12A1.7,1.7,0,0,0,222.82,115.28Z"/><path class="cls-13" d="M223.07,114.78c.36,1.48,1.58,3.75,5.63,4.6l4.44,3.64,4.72,2.14,1.92.87.82-5.89-1.86-1-2.14-1.17s-4.88-8.83-12.6-5.1A1.7,1.7,0,0,0,223.07,114.78Z"/><circle class="cls-6" cx="231.77" cy="73.86" r="10.78"/><circle class="cls-13" cx="231.77" cy="73.61" r="10.78"/><path class="cls-6" d="M238.45,96.65l-3.24-6.3s4.74-1.92,5.09-4.14,4.55,2.6,3.64,4.21S238.45,96.65,238.45,96.65Z"/><path class="cls-7" d="M238.45,96.15l-3.24-6.3s4.74-1.92,5.09-4.14,4.55,2.61,3.64,4.2S238.45,96.15,238.45,96.15Z"/><path class="cls-15" d="M211.91,112.43l17.92,24.09s-6.61,3.6-15.71-2.84L210.2,129,199,110.09Z"/><path class="cls-13" d="M208.38,125.53l1.63,0s10-9.68,12.42-4.78-6.21,9.47-6.21,9.47l-2.63,1.42-3.43,1-2.2-3Z"/><path class="cls-6" d="M210.79,130.76a2.43,2.43,0,0,1,0,1.68.68.68,0,0,1-.3.33.65.65,0,0,1-.34,0,3.42,3.42,0,0,1-2.25-1.11,10.59,10.59,0,0,1-1.46-2.11,3.88,3.88,0,0,1-.74-2.51,3.6,3.6,0,0,1,1.85-2.16c1.65-1.1,1.71.18,2.07,1.58S210.41,129.34,210.79,130.76Z"/><path class="cls-7" d="M210.54,130.76a2.43,2.43,0,0,1,0,1.68.68.68,0,0,1-.3.33.76.76,0,0,1-.34,0,3.38,3.38,0,0,1-2.25-1.11,10.59,10.59,0,0,1-1.46-2.11,3.88,3.88,0,0,1-.74-2.51,3.6,3.6,0,0,1,1.85-2.16c1.65-1.1,1.7.18,2.07,1.58S210.16,129.34,210.54,130.76Z"/><polygon class="cls-6" points="215.28 109.43 216.12 108.02 215.39 110.64 215.28 109.43"/><path class="cls-6" d="M237.87,125.16l1.93.87.81-5.89-1.85-1C240,120.58,238.92,123.29,237.87,125.16Z"/><path class="cls-6" d="M245.59,118.32s-6.21.38-8.84-1.32"/><g class="cls-14"><path d="M244.82,122.28a17.27,17.27,0,0,1,3.11-4c.3-.18.61-.35.92-.5l9.68-2,.56-.13s.08-18.89-6.6-21.49a39.93,39.93,0,0,1-10.44-5.87l.74-.23a39,39,0,0,0,10.7,6.1c6.69,2.59,6.6,21.49,6.6,21.49h-1l-9.9,1.9-.56.53a18.75,18.75,0,0,0-3.16,4.19,10.48,10.48,0,0,0-.83,7.93h-1A10.45,10.45,0,0,1,244.82,122.28Z"/><path d="M218.4,88.92l.48-.06a20,20,0,0,0,2,.17A19.24,19.24,0,0,1,218.4,88.92Z"/><path d="M232.59,90.87l-6.13-3.1a3.47,3.47,0,0,0,.34-.32l6.39,3.23Z"/></g><path class="cls-7" d="M255.9,110.09l4.1,5,.84,13.63s1.08,6.93-6.86,5.26-17.13-6.84-17.13-6.84,4.44-5.94,2-8.19l11.37,3.68s1.92-.42.42-2.09a9.42,9.42,0,0,1-1.78-4.69Z"/><path class="cls-6" d="M257.75,124.49l2.26,2.59A3.28,3.28,0,0,1,257.75,124.49Z"/><polygon class="cls-6" points="253.91 124.06 257.42 128.58 255.66 129 253.91 124.06"/><path class="cls-6" d="M218.89,68.66a3.56,3.56,0,0,1,.38-2.94A24,24,0,0,0,220.72,63c.51-1.43.35-3.05.92-4.44,1-2.48,3.81-3.58,6.34-4.44a4.22,4.22,0,0,1,2.31-.31c1,.24,1.69,1.17,2.53,1.79,3.43,2.56,9-.26,12.34,2.45a6.47,6.47,0,0,1,2.08,4.33,38.47,38.47,0,0,1,0,4.92c-.06,2.88.48,6,2.63,7.93.65.57,1.42,1,2.05,1.6a2.77,2.77,0,0,1,1,2.28,8.12,8.12,0,0,1-.35,1.16,6,6,0,0,0,1,4.44c2.33,4,6.42,7.33,11.06,7.42-.31,2.34-2.73,3.7-4.9,4.66-2.73,1.23-5.64,2.43-8.65,2.27s-6.14-2.08-6.67-5c-.18-1-.16-2.26-1-2.79-.53-.32-1.22-.24-1.8-.48a3.16,3.16,0,0,1-1.51-2.13,19.14,19.14,0,0,1-.89-5.47c0-2.19.25-4.59-1-6.4s-3.21-2.53-4.54-4.07-2.56-3.15-4.58-3.41C226.3,68.9,220.54,72.69,218.89,68.66Z"/><path class="cls-9" d="M218.89,68.16a3.56,3.56,0,0,1,.38-2.94,24.1,24.1,0,0,0,1.45-2.7c.51-1.42.35-3,.92-4.43,1-2.48,3.81-3.59,6.34-4.44a4.32,4.32,0,0,1,2.31-.32c1,.25,1.69,1.18,2.53,1.8,3.43,2.56,9-.26,12.34,2.45a6.47,6.47,0,0,1,2.08,4.33,38.46,38.46,0,0,1,0,4.92c-.06,2.88.48,6,2.63,7.93.65.57,1.42,1,2.05,1.59a2.81,2.81,0,0,1,1,2.29,8.12,8.12,0,0,1-.35,1.16,6,6,0,0,0,1,4.44c2.33,4,6.41,7.32,11.05,7.41-.31,2.35-2.73,3.71-4.9,4.67-2.73,1.22-5.64,2.42-8.65,2.27s-6.14-2.08-6.67-5c-.18-1-.16-2.26-1-2.79-.54-.33-1.22-.25-1.8-.49a3.14,3.14,0,0,1-1.51-2.13,19.13,19.13,0,0,1-.89-5.46c0-2.2.25-4.6-1-6.41s-3.2-2.52-4.53-4.06-2.56-3.15-4.58-3.42C226.3,68.4,220.54,72.2,218.89,68.16Z"/><path class="cls-6" d="M226.54,95.87l6.19-5s-4.24-2.29-4.74-4.25-3.89.93-3.55,2.69S226.54,95.87,226.54,95.87Z"/><path class="cls-7" d="M226.79,95.12l6.18-5s-4.23-2.29-4.72-4.25-3.89.93-3.55,2.68S226.79,95.12,226.79,95.12Z"/><circle class="cls-6" cx="233.21" cy="94.3" r="0.49"/><circle class="cls-6" cx="233.21" cy="97.03" r="0.49"/><circle class="cls-6" cx="233.21" cy="99.76" r="0.49"/><g class="cls-14"><path d="M221.39,61.19c.48-1.35.38-2.85.84-4.2a4.5,4.5,0,0,0-.53,1c-.56,1.41-.4,3-.92,4.44l0,.08A8.11,8.11,0,0,0,221.39,61.19Z"/><path d="M260.39,95c-2.73,1.22-5.64,2.42-8.65,2.27s-6.14-2.08-6.67-5c-.18-1-.16-2.26-1-2.79-.54-.33-1.23-.24-1.8-.49a3.14,3.14,0,0,1-1.51-2.13,19,19,0,0,1-.89-5.46c0-2.19.25-4.59-1-6.41s-3.21-2.52-4.54-4.06-2.56-3.15-4.58-3.42c-2.76-.37-8.53,3.42-10.16-.62a3.13,3.13,0,0,1,.1-2.33c-.12.2-.23.4-.34.61a3.61,3.61,0,0,0-.37,2.94c1.64,4,7.4.24,10.16.62,2,.28,3.35,2,4.58,3.42s3.38,2.39,4.54,4.07.95,4.21,1,6.4a19.13,19.13,0,0,0,.89,5.46,3.16,3.16,0,0,0,1.51,2.13c.58.24,1.27.17,1.8.49.88.53.86,1.78,1,2.79.54,3,3.67,4.88,6.67,5s5.9-1,8.65-2.27c2-.88,4.19-2.1,4.78-4.1A10.38,10.38,0,0,1,260.39,95Z"/></g><path class="cls-16" d="M320.72,114.25a81.88,81.88,0,0,0-10-5.19l-.15-.1a6.09,6.09,0,0,1-1.82-2.3,4.17,4.17,0,0,1,0-.5v0c.11-2.2,1.68-4.2,3.16-5.95l3.8-4.47a4.21,4.21,0,0,0,1-1.55,3.8,3.8,0,0,0,.11-.95V92.9c0-1.11-.06-2.23-.1-3.33s-.28-2.2-1.25-2.39c-.5-.11-1.17.07-1.44-.35a.86.86,0,0,1-.07-.57v0a12.59,12.59,0,0,0,.36-2.28,3.22,3.22,0,0,0-.15-1.16c-.56-1.61-2.5-2.27-4.21-2.57s-3.63-.57-4.7-1.91a14.49,14.49,0,0,0-.94-1.28,3.68,3.68,0,0,0-1.74-.87,9.86,9.86,0,0,0-6.36.56,5.91,5.91,0,0,1-2.57.81c-.91-.06-1.75-.71-2.67-.87a3.82,3.82,0,0,0-3.68,2.16,5.23,5.23,0,0,0-.69,2.54v.15h0a3.73,3.73,0,0,0,1,2.59c.65.68,1.61,1.13,1.88,2,.11.36.08.75.18,1.11,0,0,0,.09,0,.13l-.05.07a11.26,11.26,0,0,0-2.38,6.94,11.51,11.51,0,0,0,8.09,10.93v.34a4.9,4.9,0,0,1-1.57,3.82l-10.24,4.09s-6.17-.73-8.39,8.29a15.27,15.27,0,0,0-.39,4.57,13.14,13.14,0,0,1-1.7,6.85c-2.53,5-2,16.34,3.22,17.46,4.89,1.07,6.8.63,7,.57v.2c-.08,2.14-.86,20.55-3.68,22.78-.77.62-.63,1,0,1.31,0,0,0,.12,0,.34-.09,1.37-.52,6.49-2.39,9.4-2.19,3.38-2,22.87-2,22.87l-1.49,11.49s.92,7.1,0,8.34-1.92,27.36-2.15,33h-.09a2.75,2.75,0,0,0-2.21,1.37c-1.21,2-5.45,5.59-5.45,5.59-.91,1.3-4.31,2.55-6.11,3.14a4.54,4.54,0,0,0-.68.3,3.68,3.68,0,0,0-1.54,1.63,1.75,1.75,0,0,0-.17,1.36c.46,1.12,10,1.92,12.43.79,1.89-.89,9.42-2,12.54-2.51a2.57,2.57,0,0,0,2.23-2.23,1.49,1.49,0,0,0-.28-1.12h0c-.6-.74-.9-2.76-1-4.09a3.16,3.16,0,0,0,.71-.42,30.17,30.17,0,0,1,1.7-12.06c2.3-6.08,3-17.34,2.42-24.67,0,0,7-30.19,12.54-33h0c.08.11,2.76,3.55,3.11,14.2A43,43,0,0,0,306,227.27s-1.73,18.36,0,25.24l-2.26,10.84-.27-.25s.07.3.16.78l-.05.23.1,0a21,21,0,0,1,.48,5.12c-.09.79-.31,1.87-.46,2.93-.24,1.67-.3,3.29.57,3.65,1.44.58,9.9,1.36,11.34-.5a2.66,2.66,0,0,0,.41-2.78,3,3,0,0,0-.41-.71s-2.25-3.67-1.62-6.26a1.89,1.89,0,0,0-.26-1.48A75.55,75.55,0,0,1,315.64,252c1.44-5.42,4.48-17.31,2.24-25.12h0c-.08-.31-.18-.61-.28-.9a33.77,33.77,0,0,1-1.27-13.18,26.82,26.82,0,0,1,0-11.49c1.38-6.31,2.35-12.51,2.35-12.51s.76-8.34.09-13.45c0-.11,0-.22,0-.34l.36-.08s-1.95-8.67-2.64-14.19c-.17-1.31-.38-3-.61-4.72a10.89,10.89,0,0,0,1.87-.47c6.21-2.14,8.17-21.5,8.17-21.5v-6.15S328,118.42,320.72,114.25Zm-46.28,149.6a3,3,0,0,1-.3-.16h0Z"/><path class="cls-17" d="M317,226.06c2.7,7.75-.45,20.32-1.91,25.94a78.79,78.79,0,0,0-1.91,12.36,26.16,26.16,0,0,1-9.88-.23l2.36-11.56c-1.68-6.85,0-25.15,0-25.15a43.5,43.5,0,0,1-4.15-17.85c-.34-10.61-3-14-3-14.15h0c-5.39,2.81-12.24,32.9-12.24,32.9.56,7.3-.11,18.52-2.36,24.58a30.45,30.45,0,0,0-1.68,12,3.66,3.66,0,0,1-3.07.59c-3.21-.52-7.05-3.28-7.05-3.28s1.23-32.78,2.13-34,0-8.31,0-8.31l1.46-11.45s-.22-19.42,1.91-22.79c1.84-2.91,2.27-8,2.35-9.36v-.35l3.25-3.89s31.43-2.36,33.79,0a6.72,6.72,0,0,1,1.15,3.55c.65,5.1-.09,13.4-.09,13.4s-.95,6.18-2.29,12.46a27.33,27.33,0,0,0,0,11.46A34.14,34.14,0,0,0,317,226.06Z"/><path class="cls-12" d="M315,275.29c-1.41,1.85-9.66,1.07-11.06.49-.86-.34-.8-2-.56-3.63.14-1.06.36-2.14.45-2.92a26.85,26.85,0,0,0-.69-6.12s1.85,2,2.3,0a2.17,2.17,0,0,1,1.61-1.53,4.23,4.23,0,0,1,2.91.18c1.46.64,3.89,2,3.46,3.81-.62,2.58,1.57,6.24,1.57,6.24a3.06,3.06,0,0,1,.41.7A2.72,2.72,0,0,1,315,275.29Z"/><path class="cls-6" d="M315,275.29c-1.41,1.85-9.66,1.07-11.06.49-.86-.34-.8-2-.56-3.63a9.57,9.57,0,0,0,4.9.53,13.09,13.09,0,0,1,1.77-.06,41.74,41.74,0,0,0,5.36-.11A2.72,2.72,0,0,1,315,275.29Z"/><path class="cls-6" d="M286.21,228.31c.56,7.29-.12,18.52-2.36,24.58a30.42,30.42,0,0,0-1.68,12,3.67,3.67,0,0,1-3.07.58c.68-4.73,3.56-25.13,5.41-41.25a67.44,67.44,0,0,1,11.95-31l2,2.16C293.06,198.22,286.21,228.31,286.21,228.31Z"/><path class="cls-18" d="M311.64,110.31l-1.37,6.74-6.71,11.28-8.28-3.54S284,113,291.1,111.32a6.32,6.32,0,0,0,2.34-1,4.88,4.88,0,0,0,1.84-4.07,12.56,12.56,0,0,0-1.14-4.82l14.48-4.55a23.32,23.32,0,0,0-1,5.87c-.11,3.94,1.37,5.88,2.56,6.82A4.26,4.26,0,0,0,311.64,110.31Z"/><path class="cls-6" d="M308.61,96.84a22.88,22.88,0,0,0-1,5.87,10.06,10.06,0,0,1-.84.89,11.46,11.46,0,0,1-11.45,2.61,12.53,12.53,0,0,0-1.15-4.82Z"/><path class="cls-18" d="M310.27,95a11.46,11.46,0,1,1-11.46-11.45h0a11.4,11.4,0,0,1,11.46,11.34Z"/><path class="cls-6" d="M311.64,110.31l-1.37,6.74-6.71,11.28-8.28-3.54S284,113,291.1,111.32a6.32,6.32,0,0,0,2.34-1c-1.27,3.51,4,10.81,4,10.81.61.9,2,.34,2,.34,3.4-.52,9.65-10.28,10.67-11.91A4.28,4.28,0,0,0,311.64,110.31Z"/><path class="cls-6" d="M318.12,175.61c-2,.45-13,2.9-17.21,2.28-4.6-.68-13.55-1.12-13.55-1.12s-5.69.31-7.45-.49v-.34l3.25-3.89s31.44-2.36,33.8,0A6.66,6.66,0,0,1,318.12,175.61Z"/><path class="cls-7" d="M297.44,121.43s-5.93-8.2-3.7-11.41l-10,4.1s-6-.73-8.19,8.26a15.53,15.53,0,0,0-.38,4.56,13.39,13.39,0,0,1-1.65,6.83c-2.46,4.94-1.9,16.28,3.15,17.41s6.84.56,6.84.56-.68,20.54-3.59,22.9,7.44,1.8,7.44,1.8,8.95.45,13.56,1.12,17.51-2.36,17.51-2.36-1.91-8.64-2.58-14.14-2.25-17.22-2.25-17.22l11.45-15.51s2-9.38-5.06-13.53a80.4,80.4,0,0,0-9.73-5.17s-7.11,11.57-10.81,12.13C299.46,121.76,298.05,122.33,297.44,121.43Z"/><path class="cls-6" d="M284.3,124.68s-.11,3.71.56,5.16S288,139.4,288,139.4h-5.62s3-3.25,2.81-4.83S284.3,124.68,284.3,124.68Z"/><path class="cls-18" d="M300.92,152.64s-12.4-3-13.56-5.62-4.33-8.36-4.33-8.36l1.3-1.76,6,4.73s7.17,5.73,10.56,6.29S300.92,152.64,300.92,152.64Z"/><path class="cls-19" d="M300.92,152.64s-12.4-3-13.56-5.62-4.33-8.36-4.33-8.36l1.3-1.76,6,4.73s7.17,5.73,10.56,6.29S300.92,152.64,300.92,152.64Z"/><path class="cls-18" d="M311.64,138v6.73h-1.08a31.5,31.5,0,0,0-15.27,3.95l-2,1.12-.54.31-3.48-7.85,3.26-2.92h.16c.8.07,4.24.36,5.7-.13s3.11-2,7.19-.92c2,.51,3.73,2.77,5.68,2.06Z"/><path class="cls-6" d="M322.47,125.79l2.24,2.53v6.12s-1.9,19.31-8,21.44-16.89-1.23-16.89-1.23-2.79-7.41-1.49-7.86,11.56-3.15,11.56-3.15-.14-11.33,2.1-14.7c0,0-1.46-10.55,3.59-10.77S322.47,125.79,322.47,125.79Z"/><path class="cls-7" d="M322.81,125.79l2.25,2.53v6.12s-1.91,19.31-8,21.44-16.89-1.23-16.89-1.23-2.79-7.41-1.48-7.86,11.55-3.15,11.55-3.15-.14-11.33,2.1-14.7c0,0-1.46-10.55,3.6-10.77S322.81,125.79,322.81,125.79Z"/><path class="cls-6" d="M307.13,99.85a4.54,4.54,0,0,0-.26-2.19,1.66,1.66,0,0,0-1.78-1c-1,.22-1.37,1.47-2.32,1.77a1.84,1.84,0,0,1-2-1,5.19,5.19,0,0,1-.39-2.45V92.1a4.63,4.63,0,0,0-.67-2.92,5.16,5.16,0,0,0-3.85-1.4,3.26,3.26,0,0,0-2.19.89,2.83,2.83,0,0,1-2.32.82,2,2,0,0,1-1.61-1.39v0A11.45,11.45,0,0,1,308,101.83a10.82,10.82,0,0,1-1.28,1.43A30.21,30.21,0,0,0,307.13,99.85Z"/><path class="cls-20" d="M291.31,89.16a2,2,0,0,1-1.61-1.4c-.09-.36-.07-.74-.17-1.1-.27-.89-1.21-1.34-1.84-2a4.52,4.52,0,0,1-.29-5.16A3.73,3.73,0,0,1,291,77.34c.91.15,1.71.8,2.62.86a5.24,5.24,0,0,0,2.5-.81,9.44,9.44,0,0,1,6.22-.55,3.66,3.66,0,0,1,1.71.86c.32.41.63.84.91,1.28,1,1.33,2.92,1.6,4.59,1.9s3.55,1,4.09,2.56a6.76,6.76,0,0,1-.19,3.33,1,1,0,0,0,0,.68c.26.43.91.25,1.41.34.94.2,1.18,1.42,1.22,2.39s.07,2.22.09,3.32a4.21,4.21,0,0,1-.1,1.23,4.27,4.27,0,0,1-1,1.55l-3.71,4.46c-1.64,2-3.39,4.27-3.07,6.82a1.59,1.59,0,0,1-2-1.14,5.19,5.19,0,0,1,.12-2.53,30.75,30.75,0,0,0,.6-4.38,4.54,4.54,0,0,0-.26-2.19,1.66,1.66,0,0,0-1.78-1c-1,.22-1.37,1.47-2.32,1.77a1.83,1.83,0,0,1-2-1,5.17,5.17,0,0,1-.39-2.44V91.76a4.63,4.63,0,0,0-.67-2.92,5.11,5.11,0,0,0-3.85-1.39,3.25,3.25,0,0,0-2.19.88A2.84,2.84,0,0,1,291.31,89.16Z"/><path class="cls-6" d="M293.9,124.4l3.51,14.44S300.19,138.83,293.9,124.4Z"/><path class="cls-6" d="M305.91,122s-4.6,7.53-2.8,15.33l.85.06S302.43,133.77,305.91,122Z"/><path class="cls-6" d="M308.82,164.65s5.65-1.87,6.06,2.47C314.89,167.12,313.83,164.14,308.82,164.65Z"/><path class="cls-6" d="M292.5,139.72s-1.13,7.86.89,11a24.67,24.67,0,0,1-9.88,1.35l-.68-12.36Z"/><path class="cls-6" d="M293.26,149.84l-.54.31-3.48-7.85,3.26-2.92h.16C292.61,139.77,291.7,146.51,293.26,149.84Z"/><path class="cls-7" d="M292.5,139.39s-1.13,7.85.89,11a24.46,24.46,0,0,1-9.88,1.35l-3.93-12.35Z"/><path class="cls-12" d="M282.79,270.51a2.55,2.55,0,0,1-2.19,2.22c-3,.46-10.39,1.62-12.24,2.5-2.36,1.13-11.68.34-12.13-.78a1.82,1.82,0,0,1,.16-1.37,3.64,3.64,0,0,1,1.51-1.62,4.54,4.54,0,0,1,.68-.3c1.76-.58,5.07-1.82,6-3.13,0,0,4.13-3.61,5.31-5.57a2.7,2.7,0,0,1,2.16-1.34c1,0,2.07.45,2.53,2.6,0,0,5.38,3.08,6.82.38,0,0,.23,4.14,1.12,5.27h0A1.52,1.52,0,0,1,282.79,270.51Z"/><path class="cls-6" d="M282.79,270.51a2.55,2.55,0,0,1-2.19,2.22c-3,.46-10.39,1.62-12.24,2.5-2.36,1.13-11.68.34-12.13-.78a1.82,1.82,0,0,1,.16-1.37,3.64,3.64,0,0,1,1.51-1.62c1.52,1,4.89,2,12.31.84,7.08-1.11,10.58-2.19,12.29-2.93h0A1.56,1.56,0,0,1,282.79,270.51Z"/><g class="cls-14"><path d="M313.42,86.93v-.06a10.16,10.16,0,0,0,.34-2.55,17.88,17.88,0,0,1-.34,2.05A1.32,1.32,0,0,0,313.42,86.93Z"/><path d="M306.87,97.43a3.21,3.21,0,0,1,.27,1.29,3.9,3.9,0,0,0-.27-1.79,1.68,1.68,0,0,0-1.78-1c-1,.23-1.37,1.48-2.32,1.78a1.86,1.86,0,0,1-2-1.05,5.19,5.19,0,0,1-.39-2.45V91.37a4.63,4.63,0,0,0-.66-2.92,5.16,5.16,0,0,0-3.85-1.4,3.28,3.28,0,0,0-2.2.89,2.81,2.81,0,0,1-2.31.82,2,2,0,0,1-1.61-1.39c-.1-.37-.07-.75-.18-1.11-.26-.88-1.2-1.34-1.83-2a3.67,3.67,0,0,1-.95-2.39,3.81,3.81,0,0,0,.95,2.87c.63.69,1.57,1.13,1.83,2,.11.34.08.74.18,1.1a2,2,0,0,0,1.61,1.4,2.88,2.88,0,0,0,2.31-.82,3.23,3.23,0,0,1,2.2-.89,5.15,5.15,0,0,1,3.85,1.39,4.67,4.67,0,0,1,.66,2.93v2.81a5.13,5.13,0,0,0,.39,2.44,1.86,1.86,0,0,0,2,1.06c.94-.3,1.37-1.55,2.32-1.78A1.75,1.75,0,0,1,306.87,97.43Z"/><path d="M316.09,94.34a4.27,4.27,0,0,1-.95,1.55l-3.71,4.45c-1.56,1.88-3.21,4-3.07,6.44.11-2.19,1.64-4.19,3.07-5.93l3.71-4.46a4.23,4.23,0,0,0,.95-1.54,3.92,3.92,0,0,0,.1-1.23A2.5,2.5,0,0,1,316.09,94.34Z"/><path d="M306.43,106a3.19,3.19,0,0,1-.12-.6,3,3,0,0,0,.12,1.11,1.58,1.58,0,0,0,2,1.13,2.7,2.7,0,0,1,0-.49A1.59,1.59,0,0,1,306.43,106Z"/></g><path class="cls-6" d="M269.11,263.49s1.17,2.05,5.43.25"/><path class="cls-6" d="M305.06,264s3.67,4.32,8.29,1.42"/><path class="cls-6" d="M315.73,212.92s-2.59,1.62-2.67,2.55,1.34-.69,1.34-.69Z"/><path class="cls-6" d="M316.76,225.34a5.41,5.41,0,0,1-3.19,1.24c-1.94.09-1.78,2.61-.51,1.86A32.57,32.57,0,0,0,316.76,225.34Z"/><path class="cls-6" d="M317.25,227s-1.24,6.1-2.25,4.93"/><path class="cls-6" d="M122.89,258.52s-5.46,1.41-6.72-.77"/><path class="cls-21" d="M201.66,255.47c.08-.69.19-1.37.31-2.05a14.31,14.31,0,0,0-.68-6.93h0c-.13-.35-.22-.56-.22-.56-2.17-.59-10.75,6.06-13.87,8.57-1.08,0-2.26,0-3.54.13-.56,0-1.12.05-1.68,0h-2c-2.9-2.33-11.87-9.35-14.1-8.75,0,0-.09.21-.22.56h0a14,14,0,0,0-.7,6.93c.12.68.24,1.36.31,2.05a9.85,9.85,0,0,0,3.08,6.32A41.43,41.43,0,0,0,172,272.83a7.39,7.39,0,0,0,.48,1.56c-.58,2.24-1.25,5.16-1.06,6.14,0,0-3-.73-3.34,2.92v.11c-1.1.5-2.47,1.65-.93,4.06a1.65,1.65,0,0,0,.8.65c.27.09.54.09.51-.29l1.89,2.13s3.44.4,3.48-1.59l.2,0,1.44.17.24.79s-2.58-.05-1.88,1.54c0,0,.65.6.87.38,0,0-.34,1,1,1,0,0,1.44.76,2,.22s1.73-1.37,1.84-1.71c0-.09.05-.9.05-2h.23c2.87.07,5.93,0,8.71-.17h.22c0,1.21,0,2.1.05,2.2.11.34,1.29,1.15,1.84,1.7s2-.21,2-.21c1.34,0,1-1.05,1-1.05.23.22.88-.38.88-.38.7-1.59-1.88-1.53-1.88-1.53l.31-1,1.42-.11.22,0c-.13,2.16,3.48,1.75,3.48,1.75L200,288c0,.39.24.39.51.29a1.63,1.63,0,0,0,.77-.65c2.33-3.64-2-4.41-2-4.41a1.84,1.84,0,0,0-.4-.06,1.15,1.15,0,0,1,0-.19h0a6.94,6.94,0,0,0,0-1.44,3.16,3.16,0,0,0-2.56-1.86c-.87-.11-.89-4.13-.8-6.91a8.36,8.36,0,0,0,.14-1.58,8.7,8.7,0,0,0-.34-2.54,32.64,32.64,0,0,0,3.22-6.83A10,10,0,0,0,201.66,255.47Z"/><path class="cls-7" d="M198.35,283.14h0c-.13,1.89-.5,4.92-.5,4.92s-1.52.19-3.87.4l-1.59.13c-1.22.1-2.6.2-4,.28-2.68.15-5.62.24-8.39.17-1.39,0-2.74-.1-4-.22-.56-.06-1.1-.12-1.61-.2-3.18-.47-5.46-1.38-5.66-3a9.27,9.27,0,0,1-.07-2c.3-3.59,3.22-2.86,3.22-2.86-.19-1,.52-4.07,1.09-6.3.36-1.4.68-2.46.68-2.46l20.53-1.37h.06a1,1,0,0,1,1,1v.05c-.12,2.47-.3,8.1.71,8.23a3.1,3.1,0,0,1,2.47,1.83A7.53,7.53,0,0,1,198.35,283.14Z"/><path class="cls-7" d="M180.92,256.12s-7.74,9.31-11.47,6.73l-.25-.18a9.47,9.47,0,0,1-3.34-6.51c-.08-.69-.18-1.35-.3-2a13.9,13.9,0,0,1,.68-6.8h0c.12-.34.21-.55.21-.55C169,246.09,180.92,256.12,180.92,256.12Z"/><path class="cls-7" d="M176.76,257s-2.43,1.71-5.87,4.51a13.32,13.32,0,0,1-1.71,1.18,9.56,9.56,0,0,1-3.34-6.51c-.07-.69-.18-1.35-.3-2a13.9,13.9,0,0,1,.68-6.8h0C171,247.69,176.76,257,176.76,257Z"/><path class="cls-22" d="M176.76,257s-2.43,1.71-5.87,4.51a13.32,13.32,0,0,1-1.71,1.18,9.56,9.56,0,0,1-3.34-6.51c-.07-.69-.18-1.35-.3-2a13.9,13.9,0,0,1,.68-6.8h0C171,247.69,176.76,257,176.76,257Z"/><path class="cls-6" d="M174.11,256.06s-1.3.92-3.14,2.41a7.23,7.23,0,0,1-.9.63,5.08,5.08,0,0,1-1.78-3.48c0-.36-.1-.71-.16-1.07a7.36,7.36,0,0,1,.38-3.63h0C171.06,251.1,174.11,256.06,174.11,256.06Z"/><path class="cls-7" d="M185.94,256.12s7.74,9.31,11.46,6.73l.26-.18a9.51,9.51,0,0,0,3.34-6.51c.07-.69.18-1.35.3-2a13.9,13.9,0,0,0-.68-6.8h0c-.13-.34-.22-.55-.22-.55C197.83,246.09,185.94,256.12,185.94,256.12Z"/><path class="cls-7" d="M190.09,257s2.44,1.71,5.88,4.51a12.46,12.46,0,0,0,1.69,1.18,9.51,9.51,0,0,0,3.34-6.51c.07-.69.18-1.35.3-2a13.9,13.9,0,0,0-.68-6.8h0C195.82,247.69,190.09,257,190.09,257Z"/><path class="cls-22" d="M190.09,257s2.44,1.71,5.88,4.51a12.46,12.46,0,0,0,1.69,1.18,9.51,9.51,0,0,0,3.34-6.51c.07-.69.18-1.35.3-2a13.9,13.9,0,0,0-.68-6.8h0C195.82,247.69,190.09,257,190.09,257Z"/><path class="cls-6" d="M192.76,256.05s1.3.92,3.12,2.39a5.54,5.54,0,0,0,.9.62,5,5,0,0,0,1.77-3.45c0-.34.1-.71.16-1.07a7.35,7.35,0,0,0-.36-3.6h0C195.8,251.12,192.76,256.05,192.76,256.05Z"/><path class="cls-6" d="M194.13,270.62a18.32,18.32,0,0,1-3,3.77c-3.07,2.73-16.34,1.65-17.2,1.51-.18,0-.56-.57-1-1.44.36-1.4.68-2.47.68-2.47Z"/><path class="cls-7" d="M183.63,255.34c-.54,0-1.08,0-1.62,0-2.77,0-12.09.07-13.13,3.84-1.22,4.44,4.23,16.32,5.09,16.46s14.12,1.22,17.2-1.5,7.09-11.27,6.88-12C198.05,262.14,201.87,254.07,183.63,255.34Z"/><path class="cls-6" d="M183.34,262.53a9.79,9.79,0,0,0-10,5.67,8.19,8.19,0,0,0,.6,8.26c1.07,1.5,2.63,2.61,4.81,1.7C183.55,276.17,183.34,262.53,183.34,262.53Z"/><path class="cls-6" d="M183.12,262.1a9.8,9.8,0,0,0-10,5.67,8.21,8.21,0,0,0,.61,8.26c1.06,1.5,2.63,2.61,4.8,1.7C183.34,275.74,183.12,262.1,183.12,262.1Z"/><path class="cls-7" d="M183.12,262.32a9.8,9.8,0,0,0-10,5.66,8.21,8.21,0,0,0,.61,8.26c1.06,1.5,2.63,2.62,4.8,1.71C183.34,276,183.12,262.32,183.12,262.32Z"/><path class="cls-22" d="M183.12,262.32a9.8,9.8,0,0,0-10,5.66,8.21,8.21,0,0,0,.61,8.26c1.06,1.5,2.63,2.62,4.8,1.71C183.34,276,183.12,262.32,183.12,262.32Z"/><path class="cls-23" d="M175.76,268.19s-.93.86-.57,1.08S175.76,268.19,175.76,268.19Z"/><path class="cls-23" d="M176.76,269.29s-.51,1.13-.14,1.25.57-.81.57-.81Z"/><path class="cls-23" d="M174.51,271s-.49,1.32,0,1.32S174.51,271,174.51,271Z"/><path class="cls-24" d="M173.9,274.54a3.76,3.76,0,0,0,3.59,2.36"/><path class="cls-24" d="M176.23,275.29a1.78,1.78,0,0,0,2.14.28"/><path class="cls-6" d="M184.21,262.53a9.79,9.79,0,0,1,10,5.67,8.19,8.19,0,0,1-.6,8.26c-1.06,1.5-2.63,2.61-4.81,1.7C184,276.17,184.21,262.53,184.21,262.53Z"/><path class="cls-6" d="M184.41,262.1a9.79,9.79,0,0,1,10,5.67,8.19,8.19,0,0,1-.6,8.26c-1.06,1.5-2.63,2.61-4.8,1.7C184.21,275.74,184.41,262.1,184.41,262.1Z"/><path class="cls-7" d="M184.41,262.32a9.8,9.8,0,0,1,10,5.66,8.19,8.19,0,0,1-.6,8.26c-1.06,1.5-2.63,2.62-4.8,1.71C184.21,276,184.41,262.32,184.41,262.32Z"/><path class="cls-22" d="M184.41,262.32a9.8,9.8,0,0,1,10,5.66,8.19,8.19,0,0,1-.6,8.26c-1.06,1.5-2.63,2.62-4.8,1.71C184.21,276,184.41,262.32,184.41,262.32Z"/><path class="cls-23" d="M191.78,268.19s.93.86.57,1.08S191.78,268.19,191.78,268.19Z"/><path class="cls-23" d="M190.77,269.29s.51,1.13.15,1.25-.58-.81-.58-.81Z"/><path class="cls-23" d="M193,271s.49,1.32,0,1.32S193,271,193,271Z"/><path class="cls-24" d="M193.64,274.54a3.78,3.78,0,0,1-3.59,2.36"/><path class="cls-24" d="M191.31,275.29a1.8,1.8,0,0,1-2.15.28"/><path class="cls-23" d="M180.53,281.77a10,10,0,0,1,7.09,0Z"/><path class="cls-6" d="M174.36,288.63c-3.18-.47-5.46-1.38-5.66-3a9.27,9.27,0,0,1-.07-2,4.36,4.36,0,0,1,1.22-.45,5.45,5.45,0,0,1,2.79.38c1.51.43,1.4,2.2,1.71,4.51A1.89,1.89,0,0,1,174.36,288.63Z"/><path class="cls-7" d="M169.63,283.38s-4.14.76-1.9,4.33a1.49,1.49,0,0,0,.77.63c.26.1.51.1.49-.28l1.83,2.1s3.65.43,3.33-1.88-.22-4.1-1.71-4.52A5.73,5.73,0,0,0,169.63,283.38Z"/><path class="cls-24" d="M170.62,285.79s.88,2,2.09.32"/><path class="cls-24" d="M168.6,286.58s.46,1.9,2.18.49"/><path class="cls-6" d="M198.35,283.14h0c-.13,1.89-.5,4.92-.5,4.92s-1.52.19-3.87.4a2.67,2.67,0,0,1,0-.4c.32-2.31.22-4.1,1.71-4.51A6.44,6.44,0,0,1,198.35,283.14Z"/><path class="cls-7" d="M198.73,283.38s4.14.76,1.9,4.33a1.54,1.54,0,0,1-.77.63c-.26.1-.51.1-.49-.28l-1.82,2.1s-3.66.43-3.33-1.88.21-4.1,1.7-4.52A5.74,5.74,0,0,1,198.73,283.38Z"/><path class="cls-24" d="M197.74,285.79s-.88,2-2.09.32"/><path class="cls-24" d="M199.76,286.58s-.46,1.9-2.18.49"/><path class="cls-6" d="M180,289c-1.39,0-2.74-.1-4-.22l-1.24-4.18a2.74,2.74,0,0,1-.11-.76,2.65,2.65,0,0,1,5.3,0C179.94,285.49,180,287.55,180,289Z"/><path class="cls-7" d="M174.51,284.64l1.47,4.93s-2.49-.06-1.81,1.5c0,0,.62.59.84.38,0,0-.33,1,1,1,0,0,1.39.76,1.93.22s1.67-1.35,1.78-1.67,0-4.33,0-7.17a2.66,2.66,0,0,0-2.65-2.63h0a2.66,2.66,0,0,0-2.66,2.65A2.87,2.87,0,0,0,174.51,284.64Z"/><path class="cls-24" d="M176.49,290.84s-1.09,1-.51,1.63"/><path class="cls-24" d="M176,290.19a1.47,1.47,0,0,0-1,1.26"/><path class="cls-6" d="M193.67,283.88a2.41,2.41,0,0,1-.11.76l-1.15,3.95c-1.23.1-2.6.2-4,.28,0-1.47,0-3.44,0-5a2.66,2.66,0,1,1,5.31,0h0Z"/><path class="cls-7" d="M193.77,284.64l-1.46,4.93s2.49-.06,1.81,1.5c0,0-.63.59-.84.38,0,0,.32,1-1,1,0,0-1.39.76-1.93.22s-1.67-1.35-1.78-1.67,0-4.33,0-7.17a2.65,2.65,0,0,1,2.65-2.63h0a2.65,2.65,0,0,1,2.65,2.66A2.45,2.45,0,0,1,193.77,284.64Z"/><path class="cls-24" d="M191.8,290.84s1.09,1,.51,1.63"/><path class="cls-24" d="M192.28,290.19a1.47,1.47,0,0,1,1,1.26"/><path class="cls-6" d="M183.13,261.24s-5.06-.16-5.22,3.76,7.9,2.25,7.9,2.25,3.39-.45,2.8-2.83S186.78,261.46,183.13,261.24Z"/><path class="cls-6" d="M183.13,260.81s-5.06-.16-5.22,3.76,7.9,2.25,7.9,2.25,3.39-.45,2.8-2.83S186.78,261,183.13,260.81Z"/><path class="cls-23" d="M183.13,261s-5.06-.16-5.22,3.75,7.9,2.26,7.9,2.26,3.39-.45,2.8-2.83S186.78,261.24,183.13,261Z"/><path class="cls-6" d="M171.85,280.75s1.7.61,2.05,1.77"/><path class="cls-6" d="M195.92,279.89s-1.22.51-1.13,2.63"/><ellipse class="cls-7" cx="172.57" cy="289.63" rx="0.79" ry="1.31" transform="translate(-121.37 124.5) rotate(-29.89)"/><ellipse class="cls-7" cx="196.59" cy="288.46" rx="1.31" ry="0.79" transform="translate(-151.52 314.48) rotate(-60)"/><ellipse class="cls-22" cx="172.57" cy="289.63" rx="0.79" ry="1.31" transform="translate(-121.37 124.5) rotate(-29.89)"/><ellipse class="cls-22" cx="196.59" cy="288.46" rx="1.31" ry="0.79" transform="translate(-151.52 314.48) rotate(-60)"/><ellipse class="cls-1" cx="68.06" cy="245.34" rx="9.19" ry="1.55"/><ellipse class="cls-1" cx="31.84" cy="267.37" rx="9.19" ry="1.55"/><ellipse class="cls-7" cx="22.27" cy="247.67" rx="13.73" ry="2.32"/><path class="cls-7" d="M16.59,243.87a4.07,4.07,0,0,1-1.31-2,1.76,1.76,0,0,1,.92-2c.84-.33,1.74.26,2.42.84A3.23,3.23,0,0,0,21,241.87a3.61,3.61,0,0,1-1.11-3.35,1.36,1.36,0,0,1,.31-.69c.46-.49,1.31-.28,1.87.11,1.77,1.25,2.27,3.66,2.28,5.83a10.6,10.6,0,0,0,0-2.39,2.46,2.46,0,0,1,.9-2.12,2.73,2.73,0,0,1,1.37-.34,2.85,2.85,0,0,1,2.23.63,2.21,2.21,0,0,1-.09,2.74,9.13,9.13,0,0,1-2.31,1.85,5.15,5.15,0,0,0-1.65,1.57,1.39,1.39,0,0,0-.12.28h-5A14.19,14.19,0,0,1,16.59,243.87Z"/><ellipse class="cls-1" cx="353.88" cy="258.34" rx="9.19" ry="1.55"/><path class="cls-25" d="M347.7,251.12s5.25-.16,6.83-1.29,8.06-2.47,8.46-.66,7.88,9,2,9-13.76-.92-15.33-1.88S347.7,251.12,347.7,251.12Z"/><path class="cls-26" d="M365.05,257.57c-5.92,0-13.76-.93-15.33-1.89-1.2-.73-1.68-3.35-1.84-4.57h-.18s.34,4.23,1.91,5.19,9.41,1.93,15.33,1.89c1.71,0,2.3-.62,2.27-1.53C367,257.22,366.32,257.57,365.05,257.57Z"/><path class="cls-27" d="M100.56,263.1h-.25c.59-14.78,3.69-24.28,6.18-29.65,2.71-5.82,5.32-8.18,5.34-8.21l.17.2s-2.6,2.35-5.29,8.14C104.24,238.91,101.16,248.37,100.56,263.1Z"/><path class="cls-28" d="M72.55,128.33l-1.71,28.56s-5.71,16,1.71,16,2.86-17.14,2.86-17.14l6.85-28Z"/><path class="cls-28" d="M128,124.9l1.71,28.56s5.71,16-1.71,16-2.86-17.13-2.86-17.13l-6.85-28Z"/><path class="cls-29" d="M93.68,246l1.14,14.27s-4.56,11.42,2.86,12.57l.22,0a5.89,5.89,0,0,0,6.64-5,6,6,0,0,0,0-1.84l-1.11-6.3s.57-11.42-2.85-13.7A6.45,6.45,0,0,0,93.68,246Z"/><path class="cls-29" d="M104.53,233.41a16.21,16.21,0,0,0-.57,6.85c.57,3.43,1.14,13.14,1.14,13.14s0,10.28,4,10.28c1.43,0,2.64-1.24,3.6-2.83a14.48,14.48,0,0,0,1.47-11.32L112,241.41v-6.29Z"/><path class="cls-29" d="M83.4,128.9S70.84,145.46,77.69,170s7.43,31.41,7.43,31.41l4,46.83s6.86,2.28,12.57-1.14L100,202V174.59l3.43,30.27v30.26s8,8,13.71.58l1.14-33.7s3.43-46.83,1.14-51.4S112,130,112,130Z"/><path class="cls-29" d="M94.78,51.85S89,49.77,85.23,58.07a162.44,162.44,0,0,1-9.54,17.42l3.32.83s.83-5.8,2.91-6.63l-.83,7.46s24.89,8.71,36.09-.83l-.42-2.9s1.66.41,1.66,2.9l1.25-1.24a22.44,22.44,0,0,0-5-5.81c-2.45-2.18-3.29-6.32-3.58-8.91a10.85,10.85,0,0,0-2.49-5.88C106.14,51.61,101.62,48.55,94.78,51.85Z"/><circle class="cls-28" cx="97.68" cy="68.37" r="10.85"/><path class="cls-28" d="M94.82,75.22,91.4,88.93l10.28,29.69,8-31.41s-7.42-5.14-5.71-12Z"/><path class="cls-30" d="M122.81,153.46s-16.56,6.28-20-3.43A46,46,0,0,1,100,132.9s-5.14,20-13.7,20S73.12,150,73.12,150s6.29-20,12-23.41a1.57,1.57,0,0,1,.08-.2c.32-.8,1.45-4,.65-6.75a5.92,5.92,0,0,0-.73-1.62c-2.29-3.42-4.57-4.57-4-13.13l-4.57-16,15.76-3.64,8.23,25.91L108,85.84l13.64,1.94s1.14,20.56-4.57,28a12.26,12.26,0,0,0-2,3.9,18.54,18.54,0,0,0-.23,9.12h0a24.84,24.84,0,0,0,1.66,5.25Z"/><path class="cls-30" d="M118.24,88.36l3.43-.58s1.42-.28,4,1.72c3.28,2.55,3.43,37.12,3.43,37.12l-10.85.57Z"/><path class="cls-30" d="M79.41,90.07l-2.86-1.14s-1.14-.57-1.71,2.85-3.43,38.84-3.43,38.84l12-.58V104.35Z"/><path class="cls-29" d="M85.13,70s3.32-4.57,6.22-5.4,3.32-5,3.32-5,7.47,8.29,12,8.71.42-10,.42-10l-8.3-2.07-7.88.83-6.23,4.15Z"/><circle class="cls-29" cx="100.82" cy="122.91" r="3.43"/></svg>