<svg id="Layer_1" data-name="Layer 1" xmlns="http://www.w3.org/2000/svg" xmlns:xlink="http://www.w3.org/1999/xlink" viewBox="0 0 200 50"><defs><style>.cls-1{fill:url(#linear-gradient);}.cls-2{fill:url(#linear-gradient-2);}.cls-3{fill:url(#linear-gradient-3);}</style><linearGradient id="linear-gradient" x1="13.21" y1="11.63" x2="34.26" y2="51.48" gradientTransform="matrix(1, 0, 0, -1, 0, 52)" gradientUnits="userSpaceOnUse"><stop offset="0" stop-color="#3943f7"/><stop offset="0.12" stop-color="#3e41f7"/><stop offset="0.25" stop-color="#4b3af8"/><stop offset="0.39" stop-color="#6130f9"/><stop offset="0.52" stop-color="#7c23fb"/><stop offset="0.68" stop-color="#a60ffe"/><stop offset="0.8" stop-color="#be04ff"/></linearGradient><linearGradient id="linear-gradient-2" x1="44.39" y1="2.41" x2="17.74" y2="41.77" gradientTransform="matrix(1, 0, 0, -1, 0, 52)" gradientUnits="userSpaceOnUse"><stop offset="0.3" stop-color="#3943f7"/><stop offset="1" stop-color="#be04ff"/></linearGradient><linearGradient id="linear-gradient-3" x1="14.99" y1="8.65" x2="49.22" y2="36.42" gradientTransform="matrix(1, 0, 0, -1, 0, 52)" gradientUnits="userSpaceOnUse"><stop offset="0" stop-color="#be04ff"/><stop offset="0.04" stop-color="#b309fe"/><stop offset="0.12" stop-color="#9418fc"/><stop offset="0.22" stop-color="#632ffa"/><stop offset="0.3" stop-color="#3943f7"/><stop offset="0.32" stop-color="#453df8"/><stop offset="0.41" stop-color="#7029fa"/><stop offset="0.5" stop-color="#9219fc"/><stop offset="0.59" stop-color="#aa0efe"/><stop offset="0.67" stop-color="#b907ff"/><stop offset="0.73" stop-color="#be05ff"/><stop offset="1" stop-color="#3943f7"/></linearGradient></defs><title>Artboard 1</title><path d="M62.36,12.47H58l-.93,2.17h-.86l3.56-8.1h.81l3.57,8.1H63.3Zm-.31-.69L60.19,7.41l-1.88,4.37Z"/><path d="M70.66,14.64,68.88,12a3.21,3.21,0,0,1-.62,0h-2.1v2.62h-.82V6.54h2.92a3.35,3.35,0,0,1,2.33.74,2.52,2.52,0,0,1,.85,2A2.71,2.71,0,0,1,71,10.93a2.69,2.69,0,0,1-1.36.94l1.91,2.79ZM70,10.79a1.85,1.85,0,0,0,.61-1.48A1.9,1.9,0,0,0,70,7.79a2.66,2.66,0,0,0-1.77-.52H66.16v4.05h2.08A2.55,2.55,0,0,0,70,10.79Z"/><path d="M74.74,7.27H72V6.52h6.3v.75H75.63v7.37h-.82Z"/><path d="M79.5,6.52h.82v8.11H79.5Z"/><path d="M83.42,7.27v3.18h4v.75h-4v3.44h-.88V6.54h5.4v.74Z"/><path d="M89.29,6.52h.83v8.11h-.83Z"/><path d="M93.82,14.17a3.89,3.89,0,0,1-1.46-1.47,4.36,4.36,0,0,1-.53-2.12,4.44,4.44,0,0,1,.53-2.17,3.89,3.89,0,0,1,1.46-1.47,4.42,4.42,0,0,1,3.7-.23,3.55,3.55,0,0,1,1.25.88l-.52.54a3.1,3.1,0,0,0-2.31-1,3.15,3.15,0,0,0-1.67.45,3.05,3.05,0,0,0-1.19,1.2,3.6,3.6,0,0,0,0,3.43,3.1,3.1,0,0,0,1.19,1.22,3.28,3.28,0,0,0,1.67.43,3,3,0,0,0,2.31-1l.52.54a3.37,3.37,0,0,1-1.25.89,4.2,4.2,0,0,1-1.61.31A4,4,0,0,1,93.82,14.17Z"/><path d="M100.23,6.52h.82v8.11h-.82Z"/><path d="M108.37,12.47H104l-.93,2.17h-.86l3.56-8.1h.81l3.57,8.1h-.86Zm-.31-.69L106.2,7.41l-1.88,4.37Z"/><path d="M111.35,6.52h.82V13.9h4.36v.74h-5.18Z"/><path d="M120.83,6.52h.89v8.11h-.82Z"/><path d="M130.42,6.52v8.11h-.67l-5-6.58v6.59h-.83V6.54h.69l5,6.58V6.52Z"/><path d="M134.36,7.27h-2.71V6.52h6.29v.75h-2.7v7.37h-.83Z"/><path d="M144.69,13.9v.74h-5.51V6.54h5.41v.74h-4.53v2.86h4.05v.73h-4.05v3Z"/><path d="M146.11,6.52h.83V13.9h4.36v.74h-5.19Z"/><path d="M152.52,6.52h.82V13.9h4.37v.74h-5.19Z"/><path d="M158.92,6.52h.83v8.11h-.83Z"/><path d="M167.66,10.58h.79v3.09a3.44,3.44,0,0,1-1.35.77,4.71,4.71,0,0,1-1.57.27,4,4,0,0,1-2.11-.54A3.91,3.91,0,0,1,162,12.7a4.45,4.45,0,0,1,0-4.25A3.91,3.91,0,0,1,163.42,7a4.21,4.21,0,0,1,2.11-.53,4.67,4.67,0,0,1,1.65.29,3.55,3.55,0,0,1,1.25.88l-.51.55a3.18,3.18,0,0,0-2.35-1,3.57,3.57,0,0,0-1.72.43,3.39,3.39,0,0,0-1.19,1.22,3.43,3.43,0,0,0-.4,1.72,3.4,3.4,0,0,0,.43,1.71,3.17,3.17,0,0,0,1.19,1.22,3.39,3.39,0,0,0,1.7.43,3.28,3.28,0,0,0,2.08-.62Z"/><path d="M176,13.9v.74h-5.52V6.54h5.41v.74h-4.51v2.86h4v.73h-4v3Z"/><path d="M184,6.52v8.11h-.68L178.3,8v6.6h-.83V6.54h.68l5,6.58V6.52Z"/><path d="M187.68,14.17a3.82,3.82,0,0,1-1.46-1.47,4.25,4.25,0,0,1-.53-2.12,4.23,4.23,0,0,1,.53-2.17,3.71,3.71,0,0,1,1.47-1.47,4.45,4.45,0,0,1,3.69-.23,3.51,3.51,0,0,1,1.24.88l-.51.54a3.1,3.1,0,0,0-2.31-1,3.21,3.21,0,0,0-1.68.45,3.12,3.12,0,0,0-1.19,1.2,3.65,3.65,0,0,0,0,3.43,3.17,3.17,0,0,0,1.19,1.22,3.29,3.29,0,0,0,1.68.43,3,3,0,0,0,2.31-1l.51.54a3.33,3.33,0,0,1-1.24.89,4.23,4.23,0,0,1-1.61.31A4,4,0,0,1,187.68,14.17Z"/><path d="M199.61,13.9v.74h-5.52V6.54h5.41v.74H195v2.86H199v.73H195v3Z"/><path d="M62.36,27.94H58l-.93,2.16h-.86L59.78,22h.81l3.57,8.11H63.3Zm-.31-.7-1.86-4.37-1.88,4.37Z"/><path d="M66,29.89a2.85,2.85,0,0,1-1.23-.78l.32-.66a3,3,0,0,0,1.12.72,4,4,0,0,0,1.45.27,2.63,2.63,0,0,0,1.57-.39,1.26,1.26,0,0,0,.52-1,1.14,1.14,0,0,0-.28-.79,2.08,2.08,0,0,0-.69-.44,11.69,11.69,0,0,0-1.15-.34A8.48,8.48,0,0,1,66.31,26a2.37,2.37,0,0,1-.91-.66A1.75,1.75,0,0,1,65,24.14,2,2,0,0,1,65.35,23a2.16,2.16,0,0,1,1-.81,3.86,3.86,0,0,1,1.54-.28,4.41,4.41,0,0,1,1.35.19,3.76,3.76,0,0,1,1.11.52l-.27.69a4,4,0,0,0-2.15-.67,2.39,2.39,0,0,0-1.54.41,1.37,1.37,0,0,0-.51,1.06,1,1,0,0,0,.28.78,1.78,1.78,0,0,0,.72.46,11.69,11.69,0,0,0,1.15.34,14.05,14.05,0,0,1,1.35.43,2.5,2.5,0,0,1,.89.65A1.84,1.84,0,0,1,70.59,28a2,2,0,0,1-1.28,1.92,3.91,3.91,0,0,1-1.62.29A4.91,4.91,0,0,1,66,29.89Z"/><path d="M72.78,29.89a2.94,2.94,0,0,1-1.24-.78l.32-.66a3,3,0,0,0,1.14.72,4,4,0,0,0,1.44.27A2.78,2.78,0,0,0,76,29.05a1.27,1.27,0,0,0,.53-1,1.11,1.11,0,0,0-.29-.79,1.81,1.81,0,0,0-.7-.44,10.21,10.21,0,0,0-1.15-.34A8.15,8.15,0,0,1,73.05,26a2.41,2.41,0,0,1-.89-.66,1.75,1.75,0,0,1-.36-1.19A2,2,0,0,1,72.11,23a2.11,2.11,0,0,1,.94-.81,4,4,0,0,1,1.56-.28,4.45,4.45,0,0,1,1.35.19,3.88,3.88,0,0,1,1.11.52l-.29.69a3.86,3.86,0,0,0-2.13-.67,2.39,2.39,0,0,0-1.54.41,1.27,1.27,0,0,0-.52,1.06,1.07,1.07,0,0,0,.29.78,1.65,1.65,0,0,0,.7.46c.3.1.67.22,1.16.34a12.47,12.47,0,0,1,1.35.43,2.57,2.57,0,0,1,.91.65A1.84,1.84,0,0,1,77.36,28,2,2,0,0,1,76,29.89a3.88,3.88,0,0,1-1.58.28A5.15,5.15,0,0,1,72.78,29.89Z"/><path d="M80.34,29.63a3.94,3.94,0,0,1-1.48-1.47,4.5,4.5,0,0,1,0-4.22,4,4,0,0,1,1.48-1.49,4.31,4.31,0,0,1,4.18,0A3.71,3.71,0,0,1,86,23.93a4.41,4.41,0,0,1,0,4.23,3.71,3.71,0,0,1-1.46,1.48,4.35,4.35,0,0,1-4.18,0ZM84.11,29a3.12,3.12,0,0,0,1.17-1.22,3.64,3.64,0,0,0,.42-1.71,3.72,3.72,0,0,0-.46-1.73,3,3,0,0,0-1.18-1.2,3.36,3.36,0,0,0-1.67-.44,3.43,3.43,0,0,0-1.68.44,3.07,3.07,0,0,0-1.17,1.2,3.47,3.47,0,0,0-.43,1.73,3.4,3.4,0,0,0,.43,1.71A3.12,3.12,0,0,0,80.71,29a3.31,3.31,0,0,0,1.68.43A3.26,3.26,0,0,0,84.11,29Z"/><path d="M89.62,29.64a3.78,3.78,0,0,1-1.46-1.48,4.49,4.49,0,0,1,0-4.23,3.8,3.8,0,0,1,1.47-1.48,4,4,0,0,1,2.1-.52,4.35,4.35,0,0,1,1.59.29,3.4,3.4,0,0,1,1.26.9l-.53.54a3,3,0,0,0-2.31-1,3.31,3.31,0,0,0-1.68.43,3.08,3.08,0,0,0-1.18,1.22,3.31,3.31,0,0,0-.44,1.71,3.58,3.58,0,0,0,.44,1.72A3,3,0,0,0,90.06,29a3.31,3.31,0,0,0,1.68.45,3,3,0,0,0,2.31-1l.53.54a3.64,3.64,0,0,1-1.26.9,4.47,4.47,0,0,1-3.7-.23Z"/><path d="M96.05,21.93h.82V30h-.82Z"/><path d="M104.16,27.94H99.82l-.93,2.16H98L101.6,22h.81L106,30.1h-.87Zm-.3-.7L102,22.87l-1.9,4.37Z"/><path d="M107.9,22.72h-2.7v-.79h6.25v.74h-2.7v7.38h-.82Z"/><path d="M112.64,21.93h.83V30h-.83Z"/><path d="M117.17,29.63a3.78,3.78,0,0,1-1.47-1.47,4.5,4.5,0,0,1,0-4.22,3.83,3.83,0,0,1,1.47-1.49,4.33,4.33,0,0,1,4.19,0,3.84,3.84,0,0,1,1.46,1.48,4.37,4.37,0,0,1,.54,2.12,4.22,4.22,0,0,1-.54,2.11,3.84,3.84,0,0,1-1.46,1.48,4.37,4.37,0,0,1-4.19,0Zm3.77-.65a3.1,3.1,0,0,0,1.16-1.22,3.4,3.4,0,0,0,.43-1.71,3.47,3.47,0,0,0-.43-1.73,3,3,0,0,0-1.16-1.2,3.44,3.44,0,0,0-3.35,0,3,3,0,0,0-1.18,1.2,3.47,3.47,0,0,0-.43,1.73,3.4,3.4,0,0,0,.43,1.71A3.15,3.15,0,0,0,117.59,29,3.44,3.44,0,0,0,120.94,29Z"/><path d="M131.55,21.93V30h-.68l-5-6.58V30H125v-8.1h.75l5,6.59V21.93Z"/><path d="M138.32,29.63a3.87,3.87,0,0,1-1.48-1.47,4.5,4.5,0,0,1,0-4.22,3.92,3.92,0,0,1,1.48-1.49,4.31,4.31,0,0,1,4.18,0A3.78,3.78,0,0,1,144,23.93a4.26,4.26,0,0,1,.54,2.12,4.12,4.12,0,0,1-.54,2.11,3.78,3.78,0,0,1-1.46,1.48,4.35,4.35,0,0,1-4.18,0Zm3.77-.65a3.39,3.39,0,0,0,1.59-2.93,3.47,3.47,0,0,0-.43-1.73,3,3,0,0,0-1.16-1.2,3.46,3.46,0,0,0-3.36,0,3.07,3.07,0,0,0-1.17,1.2,3.27,3.27,0,0,0-.43,1.73,3.2,3.2,0,0,0,.43,1.71A3.12,3.12,0,0,0,138.73,29,3.46,3.46,0,0,0,142.09,29Z"/><path d="M147,22.72V26h4.06v.74H147v3.45h-.82V21.93h5.4v.74Z"/><path d="M57.47,37.45h.83V44.9h4.36v.74H57.47Z"/><path d="M63.88,37.45h.82v8.11h-.82Z"/><path d="M68.63,38.14h-2.7V37.4h6.3v.74h-2.7v7.43H68.7Z"/><path d="M79.84,37.45v8.11H79V41.83H74.2v3.74h-.82v-8.1h.82v3.62h4.88V37.45Z"/><path d="M82.94,44.73a3.74,3.74,0,0,1-.83-2.63V37.45h.82v4.62a3.12,3.12,0,0,0,.61,2.11,2.69,2.69,0,0,0,3.55,0,3.18,3.18,0,0,0,.61-2.11V37.45h.81V42.1a3.7,3.7,0,0,1-.85,2.63,3,3,0,0,1-2.35.91A3.09,3.09,0,0,1,82.94,44.73Z"/><path d="M95.36,43.4H91l-.93,2.17h-.87l3.57-8.1h.81l3.57,8.1h-.87Zm-.31-.69-1.86-4.37-1.88,4.37Z"/><path d="M104.86,37.45v8.11h-.7l-5-6.58v6.59h-.83v-8.1H99l5,6.58v-6.6Z"/><path d="M107.12,37.45h.82v8.11h-.82Z"/><path d="M115.25,43.4h-4.34L110,45.57h-.86l3.56-8.1h.81l3.57,8.1h-.86Zm-.28-.69-1.87-4.37-1.88,4.37Z"/><path class="cls-1" d="M47.88,22.26A12.83,12.83,0,0,1,47,26.13V25.8a14.85,14.85,0,0,0-.46-1.74,11.75,11.75,0,0,0,.27-1.86,13,13,0,0,0-1.7-7A14.26,14.26,0,0,0,43,12.24a14.53,14.53,0,0,0-2.82-2.31C36,7.23,31,6.27,26,5.79A43.34,43.34,0,0,0,11.15,7.14a15.81,15.81,0,0,0-6.5,3.08,8.64,8.64,0,0,0-2.81,6.3,8.38,8.38,0,0,0,5,8c.19.08,1,.39,1.19.44a8.25,8.25,0,0,0,1.17.35l.61.14.61.12.61.1c2.46.36,5,.39,7.52.74A17,17,0,0,1,25.87,29a20.59,20.59,0,0,1,3.05,2.37,34.87,34.87,0,0,1,2.57,2.87c.31.33.63.65,1,1a2.8,2.8,0,0,0-.13.41,4.81,4.81,0,0,1-.17.79,13.65,13.65,0,0,1-1.5-1.35c-.89-1-1.59-2-2.49-2.81A20.43,20.43,0,0,0,25.26,30a15.69,15.69,0,0,0-6.85-2.41c-2.45-.35-5-.35-7.53-.74,0,0-1.2-.2-1.35-.24L9,26.47l-.78-.22c-.43-.12-.86-.27-1.35-.43a10.8,10.8,0,0,1-3.28-2A9.65,9.65,0,0,1,.74,16.52a9.68,9.68,0,0,1,3.2-7.15,16.82,16.82,0,0,1,7-3.28A44.29,44.29,0,0,1,26.08,4.74,43.65,43.65,0,0,1,33.62,6,24.26,24.26,0,0,1,40.7,9a16.47,16.47,0,0,1,5.36,5.61A14.05,14.05,0,0,1,47.88,22.26Z"/><path class="cls-2" d="M44.41,34.55a8.76,8.76,0,0,1-6.76,3.92,8.87,8.87,0,0,1-1.92-.19,3.9,3.9,0,0,1-.12-.46,3.84,3.84,0,0,1,0-.48v-.27a5.82,5.82,0,0,0,2.07.27,7.6,7.6,0,0,0,5.89-3.43,9,9,0,0,0,1.27-3c0-.23.09-.45.12-.68s.11-.88.11-1.08v-.49a6.73,6.73,0,0,0,0-1.1,4.17,4.17,0,0,0,0-.5,5.88,5.88,0,0,0-.14-.73,16.5,16.5,0,0,0-5.08-8.76,19.67,19.67,0,0,0-3-2.13A23,23,0,0,0,30,12.68a24.49,24.49,0,0,0-7.34-.55,18.61,18.61,0,0,0-7,1.92A12.58,12.58,0,0,0,10.46,19c-.17.3-.32.61-.46.92s-.24.64-.33,1a6.52,6.52,0,0,0-.25,1,6.82,6.82,0,0,0-.14,1,5.79,5.79,0,0,0,0,1v.17a1.09,1.09,0,0,1-.36,0L8.64,24l-.42-.16H8a10.87,10.87,0,0,1,1.35-5.26A13.85,13.85,0,0,1,15,13.16,19.66,19.66,0,0,1,22.41,11a25.35,25.35,0,0,1,7.67.57,24.71,24.71,0,0,1,7.18,2.82,17.8,17.8,0,0,1,8.11,9.72l.1.31c.09.23.15.47.22.72,0,0,.23,1,.23,1s.09.46.14.69a8.42,8.42,0,0,1,.09,1A10.83,10.83,0,0,1,44.41,34.55Z"/><path class="cls-3" d="M43.87,28.68v.42a10.52,10.52,0,0,1-.14,1.11A24.79,24.79,0,0,1,38,33.15a7.05,7.05,0,0,0-2.85,2,2.06,2.06,0,0,0-.23.37,3.36,3.36,0,0,0-.26.54,2.32,2.32,0,0,0-.13.58,2.78,2.78,0,0,0,0,.91s.08.62.12.74l.08.31c.08.24.17.47.28.72.34.75.79,1.51,1.2,2.31a5.88,5.88,0,0,1,.81,4A2.28,2.28,0,0,1,33.16,47a9.42,9.42,0,0,1-2.43-3.2c-1.15-2.35-1.88-4.77-3.61-6.46a10.17,10.17,0,0,0-2.9-2.09,13.23,13.23,0,0,0-3.49-1,25.73,25.73,0,0,1-7.52-1.84,9.44,9.44,0,0,1-3.14-2.47A8.63,8.63,0,0,1,8.72,27.6l.58.14a5.88,5.88,0,0,1,.77.13,8.08,8.08,0,0,0,3.64,3.51,24.2,24.2,0,0,0,7.16,1.73,14.82,14.82,0,0,1,3.74,1.13,11.71,11.71,0,0,1,3.23,2.31,12.08,12.08,0,0,1,2.24,3.28c.56,1.18,1,2.35,1.57,3.46a8,8,0,0,0,2.11,2.82,1.19,1.19,0,0,0,1.68.09,1.27,1.27,0,0,0,.39-.79,4.92,4.92,0,0,0-.72-3.26,26.14,26.14,0,0,1-1.35-2.7,4.67,4.67,0,0,1-.23-.66,1.59,1.59,0,0,1-.07-.2,3,3,0,0,0-.09-.41,5.63,5.63,0,0,1-.1-.92,5.21,5.21,0,0,1,0-.79,3.15,3.15,0,0,1,.11-.44,3.32,3.32,0,0,1,.24-.59,5.28,5.28,0,0,1,.27-.53,2.49,2.49,0,0,1,.29-.43,7.8,7.8,0,0,1,3.31-2.32A21.31,21.31,0,0,0,43.87,28.68Z"/></svg>