<svg xmlns="http://www.w3.org/2000/svg" viewBox="0 0 200 50"><defs><style>.cls-1{fill:#fff;}</style></defs><title>LDIA_Logo_White_200x50</title><g id="Layer_9" data-name="Layer 9"><path class="cls-1" d="M62.14,11.41H57.8l-.94,2.17H56l3.57-8.13h.81L64,13.58h-.87Zm-.3-.7L60,6.35,58.1,10.71Z"/><path class="cls-1" d="M70.46,13.58,68.68,11c-.21,0-.41,0-.63,0H66v2.58h-.82V5.45h2.92a3.39,3.39,0,0,1,2.34.75,2.54,2.54,0,0,1,.85,2,2.73,2.73,0,0,1-.46,1.61,2.59,2.59,0,0,1-1.32.94l1.9,2.79ZM69.8,9.74a1.89,1.89,0,0,0,.62-1.5,1.91,1.91,0,0,0-.62-1.52A2.65,2.65,0,0,0,68,6.2H66v4.07H68A2.65,2.65,0,0,0,69.8,9.74Z"/><path class="cls-1" d="M74.55,6.2H71.8V5.45h6.32V6.2H75.37v7.38h-.82Z"/><path class="cls-1" d="M79.31,5.45h.82v8.13h-.82Z"/><path class="cls-1" d="M83.22,6.2V9.39h4v.74h-4v3.45H82.4V5.45h5.35V6.2Z"/><path class="cls-1" d="M89.13,5.45H90v8.13h-.82Z"/><path class="cls-1" d="M93.64,13.12a3.84,3.84,0,0,1-1.46-1.48,4.33,4.33,0,0,1-.53-2.12,4.28,4.28,0,0,1,.53-2.12,3.74,3.74,0,0,1,1.47-1.48,4.09,4.09,0,0,1,2.09-.54,4.23,4.23,0,0,1,1.61.3,3.4,3.4,0,0,1,1.25.89l-.52.54a3.06,3.06,0,0,0-2.31-1,3.35,3.35,0,0,0-1.69.44A3.12,3.12,0,0,0,92.9,7.8a3.41,3.41,0,0,0-.43,1.72,3.46,3.46,0,0,0,.43,1.72,3.09,3.09,0,0,0,1.18,1.2,3.26,3.26,0,0,0,1.69.44,3,3,0,0,0,2.31-1l.52.54a3.29,3.29,0,0,1-1.25.89,4.14,4.14,0,0,1-1.62.31A4.19,4.19,0,0,1,93.64,13.12Z"/><path class="cls-1" d="M100.06,5.45h.83v8.13h-.83Z"/><path class="cls-1" d="M108.21,11.41h-4.35l-.94,2.17h-.86l3.57-8.13h.82L110,13.58h-.87Zm-.3-.7L106,6.35l-1.87,4.36Z"/><path class="cls-1" d="M111.19,5.45H112v7.39h4.37v.74h-5.2Z"/><path class="cls-1" d="M120.68,5.45h.83v8.13h-.83Z"/><path class="cls-1" d="M130.3,5.45v8.13h-.68l-5-6.6v6.6h-.83V5.45h.68l5,6.6V5.45Z"/><path class="cls-1" d="M134.23,6.2h-2.74V5.45h6.31V6.2h-2.74v7.38h-.83Z"/><path class="cls-1" d="M144.51,12.84v.74H139V5.45h5.35V6.2h-4.53V9.09h4v.73h-4v3Z"/><path class="cls-1" d="M146,5.45h.82v7.39h4.37v.74H146Z"/><path class="cls-1" d="M152.41,5.45h.83v7.39h4.37v.74h-5.2Z"/><path class="cls-1" d="M158.82,5.45h.83v8.13h-.83Z"/><path class="cls-1" d="M167.53,9.52h.79v3.1a3.61,3.61,0,0,1-1.29.76,4.59,4.59,0,0,1-1.57.27,4.26,4.26,0,0,1-2.11-.53,3.94,3.94,0,0,1-1.47-1.48,4.23,4.23,0,0,1-.54-2.12,4.18,4.18,0,0,1,.54-2.12,3.87,3.87,0,0,1,1.47-1.48,4.18,4.18,0,0,1,2.12-.54,4.39,4.39,0,0,1,1.64.3,3.23,3.23,0,0,1,1.26.88l-.51.54a3.16,3.16,0,0,0-2.36-.95,3.39,3.39,0,0,0-1.71.43,3.17,3.17,0,0,0-1.2,1.21,3.47,3.47,0,0,0-.43,1.73,3.46,3.46,0,0,0,.43,1.72,3.14,3.14,0,0,0,1.2,1.2,3.24,3.24,0,0,0,1.7.44,3.32,3.32,0,0,0,2-.62Z"/><path class="cls-1" d="M175.9,12.84v.74h-5.52V5.45h5.36V6.2h-4.53V9.09h4v.73h-4v3Z"/><path class="cls-1" d="M183.92,5.45v8.13h-.68l-5-6.6v6.6h-.83V5.45h.68l5,6.6V5.45Z"/><path class="cls-1" d="M187.61,13.12a3.84,3.84,0,0,1-1.46-1.48,4.33,4.33,0,0,1-.53-2.12,4.28,4.28,0,0,1,.53-2.12,3.74,3.74,0,0,1,1.47-1.48,4.09,4.09,0,0,1,2.09-.54,4.23,4.23,0,0,1,1.61.3,3.4,3.4,0,0,1,1.25.89l-.53.54a3.06,3.06,0,0,0-2.31-1,3.34,3.34,0,0,0-1.68.44,3.22,3.22,0,0,0-1.19,1.21,3.51,3.51,0,0,0-.43,1.72,3.57,3.57,0,0,0,.43,1.72,3.19,3.19,0,0,0,1.19,1.2,3.24,3.24,0,0,0,1.68.44,3,3,0,0,0,2.31-1l.53.54a3.25,3.25,0,0,1-1.26.89,4.05,4.05,0,0,1-1.61.31A4.19,4.19,0,0,1,187.61,13.12Z"/><path class="cls-1" d="M199.55,12.84v.74H194V5.45h5.36V6.2h-4.53V9.09h4v.73h-4v3Z"/><path class="cls-1" d="M62.14,26.89H57.8l-.94,2.17H56l3.57-8.12h.81L64,29.06h-.87Zm-.3-.69L60,21.83,58.1,26.2Z"/><path class="cls-1" d="M65.81,28.84a3,3,0,0,1-1.23-.76l.33-.66a3,3,0,0,0,1.12.71,4,4,0,0,0,1.45.27,2.54,2.54,0,0,0,1.57-.4,1.24,1.24,0,0,0,.53-1,1.09,1.09,0,0,0-.29-.78,1.9,1.9,0,0,0-.69-.44,9.45,9.45,0,0,0-1.15-.34A13.36,13.36,0,0,1,66,25a2.23,2.23,0,0,1-.89-.66,1.77,1.77,0,0,1-.38-1.19A2,2,0,0,1,66,21.17a3.82,3.82,0,0,1,1.61-.3,4.47,4.47,0,0,1,1.31.19,3.57,3.57,0,0,1,1.11.53l-.28.68a3.89,3.89,0,0,0-1.05-.5,3.49,3.49,0,0,0-1.09-.17A2.49,2.49,0,0,0,66.1,22a1.3,1.3,0,0,0-.51,1.06,1.09,1.09,0,0,0,.28.79,2.05,2.05,0,0,0,.71.45c.29.1.67.22,1.16.34a11.07,11.07,0,0,1,1.39.44,2.21,2.21,0,0,1,.89.65,1.74,1.74,0,0,1,.37,1.18A2,2,0,0,1,70.07,28a2.18,2.18,0,0,1-1,.8,3.91,3.91,0,0,1-1.62.29A4.74,4.74,0,0,1,65.81,28.84Z"/><path class="cls-1" d="M72.57,28.84a3,3,0,0,1-1.23-.76l.33-.66a3,3,0,0,0,1.12.71,4,4,0,0,0,1.45.27,2.54,2.54,0,0,0,1.57-.4,1.24,1.24,0,0,0,.53-1,1.09,1.09,0,0,0-.29-.78,1.9,1.9,0,0,0-.69-.44,9.45,9.45,0,0,0-1.15-.34A13.36,13.36,0,0,1,72.8,25a2.23,2.23,0,0,1-.89-.66,1.77,1.77,0,0,1-.38-1.19,2,2,0,0,1,1.27-1.93,3.82,3.82,0,0,1,1.61-.3,4.51,4.51,0,0,1,1.31.19,3.57,3.57,0,0,1,1.11.53l-.28.68a3.89,3.89,0,0,0-1-.5,3.49,3.49,0,0,0-1.09-.17,2.49,2.49,0,0,0-1.55.41,1.3,1.3,0,0,0-.51,1.06,1.09,1.09,0,0,0,.28.79,2.05,2.05,0,0,0,.71.45c.29.1.67.22,1.16.34a11.07,11.07,0,0,1,1.39.44,2.21,2.21,0,0,1,.89.65,1.74,1.74,0,0,1,.37,1.18A2,2,0,0,1,76.83,28a2.18,2.18,0,0,1-1,.8,3.91,3.91,0,0,1-1.62.29A4.74,4.74,0,0,1,72.57,28.84Z"/><path class="cls-1" d="M80.14,28.59a3.8,3.8,0,0,1-1.47-1.48,4.47,4.47,0,0,1,0-4.22,3.8,3.8,0,0,1,1.47-1.48,4.39,4.39,0,0,1,4.2,0,3.91,3.91,0,0,1,1.46,1.48,4.43,4.43,0,0,1,0,4.24,3.91,3.91,0,0,1-1.46,1.48,4.39,4.39,0,0,1-4.2,0Zm3.78-.66a3,3,0,0,0,1.17-1.21,3.73,3.73,0,0,0,0-3.44,3,3,0,0,0-1.17-1.21,3.41,3.41,0,0,0-3.35,0,3.08,3.08,0,0,0-1.19,1.21,3.66,3.66,0,0,0,0,3.44,3.08,3.08,0,0,0,1.19,1.21,3.41,3.41,0,0,0,3.35,0Z"/><path class="cls-1" d="M89.44,28.6A3.84,3.84,0,0,1,88,27.12a4.51,4.51,0,0,1,0-4.24,3.8,3.8,0,0,1,1.47-1.48,4.09,4.09,0,0,1,2.09-.53,4.23,4.23,0,0,1,1.61.3,3.35,3.35,0,0,1,1.25.88l-.53.55a3,3,0,0,0-2.31-1,3.34,3.34,0,0,0-1.68.44,3.29,3.29,0,0,0-1.19,1.21,3.66,3.66,0,0,0,0,3.44,3.29,3.29,0,0,0,1.19,1.21,3.34,3.34,0,0,0,1.68.44,3,3,0,0,0,2.31-1l.53.55a3.44,3.44,0,0,1-1.26.89,4.23,4.23,0,0,1-1.61.3A4.09,4.09,0,0,1,89.44,28.6Z"/><path class="cls-1" d="M95.86,20.94h.82v8.12h-.82Z"/><path class="cls-1" d="M104,26.89H99.66l-.94,2.17h-.86l3.57-8.12h.81l3.57,8.12h-.87Zm-.31-.69-1.87-4.37L100,26.2Z"/><path class="cls-1" d="M107.73,21.68H105v-.74h6.31v.74h-2.74v7.38h-.83Z"/><path class="cls-1" d="M112.49,20.94h.83v8.12h-.83Z"/><path class="cls-1" d="M117,28.59a3.9,3.9,0,0,1-1.48-1.48,4.47,4.47,0,0,1,0-4.22A3.9,3.9,0,0,1,117,21.41a4.37,4.37,0,0,1,4.19,0,3.84,3.84,0,0,1,1.46,1.48,4.43,4.43,0,0,1,0,4.24,3.84,3.84,0,0,1-1.46,1.48,4.37,4.37,0,0,1-4.19,0Zm3.77-.66A3,3,0,0,0,122,26.72a3.73,3.73,0,0,0,0-3.44,3,3,0,0,0-1.17-1.21,3.41,3.41,0,0,0-3.35,0,3.05,3.05,0,0,0-1.18,1.21,3.65,3.65,0,0,0,0,3.44,3.05,3.05,0,0,0,1.18,1.21,3.41,3.41,0,0,0,3.35,0Z"/><path class="cls-1" d="M131.41,20.94v8.12h-.68l-5-6.59v6.59h-.82V20.94h.68l5,6.59V20.94Z"/><path class="cls-1" d="M138.19,28.59a3.9,3.9,0,0,1-1.48-1.48,4.47,4.47,0,0,1,0-4.22,3.9,3.9,0,0,1,1.48-1.48,4.13,4.13,0,0,1,2.1-.54,4.09,4.09,0,0,1,2.09.53,3.94,3.94,0,0,1,1.47,1.48,4.5,4.5,0,0,1,0,4.24,3.94,3.94,0,0,1-1.47,1.48,4.09,4.09,0,0,1-2.09.53A4.13,4.13,0,0,1,138.19,28.59Zm3.77-.66a3,3,0,0,0,1.17-1.21,3.66,3.66,0,0,0,0-3.44A3,3,0,0,0,142,22.07a3.25,3.25,0,0,0-1.67-.44,3.29,3.29,0,0,0-1.68.44,3.05,3.05,0,0,0-1.18,1.21,3.65,3.65,0,0,0,0,3.44,3.05,3.05,0,0,0,1.18,1.21,3.29,3.29,0,0,0,1.68.44A3.25,3.25,0,0,0,142,27.93Z"/><path class="cls-1" d="M146.89,21.68v3.19h4v.75h-4v3.44h-.83V20.94h5.35v.74Z"/><path class="cls-1" d="M57.25,36.42h.82v7.39h4.38v.74h-5.2Z"/><path class="cls-1" d="M63.66,36.42h.83v8.13h-.83Z"/><path class="cls-1" d="M68.42,37.16H65.68v-.74H72v.74H69.25v7.39h-.83Z"/><path class="cls-1" d="M79.7,36.42v8.13h-.81V40.8H74v3.75h-.82V36.42H74V40h4.89V36.42Z"/><path class="cls-1" d="M82.76,43.71a3.68,3.68,0,0,1-.85-2.63V36.42h.83V41a3.14,3.14,0,0,0,.61,2.12,2.25,2.25,0,0,0,1.77.69,2.28,2.28,0,0,0,1.79-.69A3.14,3.14,0,0,0,87.52,41V36.42h.8v4.66a3.73,3.73,0,0,1-.84,2.63,3.52,3.52,0,0,1-4.72,0Z"/><path class="cls-1" d="M95.18,42.38H90.83l-.93,2.17H89l3.56-8.13h.82L97,44.55h-.87Zm-.3-.7L93,37.31l-1.88,4.37Z"/><path class="cls-1" d="M104.69,36.42v8.13H104L99,38v6.6h-.82V36.42h.68l5,6.6v-6.6Z"/><path class="cls-1" d="M107,36.42h.83v8.13H107Z"/><path class="cls-1" d="M115.1,42.38h-4.35l-.93,2.17H109l3.57-8.13h.81l3.57,8.13H116Zm-.3-.7-1.87-4.37-1.88,4.37Z"/><path class="cls-1" d="M47.65,21.22a12.33,12.33,0,0,1-.85,3.86l-.06-.32A14.85,14.85,0,0,0,46.28,23a11.7,11.7,0,0,0,.27-1.87,13,13,0,0,0-1.64-7,14.26,14.26,0,0,0-2.19-2.93,15,15,0,0,0-2.83-2.32C35.74,6.19,30.7,5.21,25.75,4.74A42.8,42.8,0,0,0,11,6.11,15.62,15.62,0,0,0,4.37,9.16a8.67,8.67,0,0,0-2.82,6.35A8.56,8.56,0,0,0,4.17,22a8.52,8.52,0,0,0,2.4,1.55c.2.09,1,.39,1.2.45a12.08,12.08,0,0,0,1.17.35l.62.13c.2.05.41.09.6.12l.62.11c2.45.36,5,.38,7.52.73A17.08,17.08,0,0,1,25.6,28a19.73,19.73,0,0,1,3.06,2.4,35.72,35.72,0,0,1,2.58,2.87,12.44,12.44,0,0,0,1,.95,4.17,4.17,0,0,0-.13.42c-.06.19-.15.72-.16.79A13.37,13.37,0,0,1,30.42,34c-.9-1-1.6-2-2.51-2.81A19.14,19.14,0,0,0,25,28.92a15.69,15.69,0,0,0-6.86-2.41c-2.45-.35-5-.36-7.54-.74l-1.36-.25-.52-.12L8,25.21c-.44-.13-.87-.27-1.3-.43a10.88,10.88,0,0,1-3.28-2,9.69,9.69,0,0,1-3-7.29,9.71,9.71,0,0,1,3.2-7.19,16.81,16.81,0,0,1,7-3.29A44.33,44.33,0,0,1,25.85,3.63,45.06,45.06,0,0,1,33.4,4.88a24.72,24.72,0,0,1,7.09,3,15.7,15.7,0,0,1,3,2.49,15.49,15.49,0,0,1,2.36,3.16A14.09,14.09,0,0,1,47.65,21.22Z"/><path class="cls-1" d="M44.17,33.51a8.72,8.72,0,0,1-6.76,3.93,7.86,7.86,0,0,1-1.93-.2,3.5,3.5,0,0,1-.11-.46,3.54,3.54,0,0,1-.07-.47V36a5.76,5.76,0,0,0,2.07.27,7.6,7.6,0,0,0,5.89-3.43,8.84,8.84,0,0,0,1.27-3.07,4.55,4.55,0,0,0,.13-.67c0-.15.1-.87.11-1.09s0-.29,0-.47a8.32,8.32,0,0,0-.07-1.12,4.45,4.45,0,0,0-.05-.5c0-.24-.08-.48-.13-.72a15.86,15.86,0,0,0-2.66-6,15.48,15.48,0,0,0-2.43-2.74,19.51,19.51,0,0,0-3-2.14,23,23,0,0,0-6.86-2.71,24.17,24.17,0,0,0-7.34-.55,18.33,18.33,0,0,0-7,1.93A12.51,12.51,0,0,0,10,18a7.69,7.69,0,0,0-.45.91,9.94,9.94,0,0,0-.35,1,7.94,7.94,0,0,0-.24,1,8.46,8.46,0,0,0-.14,1,8.69,8.69,0,0,0,0,1V23A1.43,1.43,0,0,1,8.45,23a1.71,1.71,0,0,1-.3-.09l-.23-.09-.12-.06a.37.37,0,0,1-.11-.05A10.71,10.71,0,0,1,9.05,17.4,13.74,13.74,0,0,1,14.68,12a19.64,19.64,0,0,1,7.47-2,25.12,25.12,0,0,1,7.68.57A24.37,24.37,0,0,1,37,13.35a17.82,17.82,0,0,1,8.07,9.73l.11.31c.07.23.15.47.21.72,0,0,.23,1,.23,1,0,.23.09.46.13.69s.09.66.1,1A10.74,10.74,0,0,1,44.17,33.51Z"/><path class="cls-1" d="M43.63,27.59c0,.14,0,.27,0,.41a7,7,0,0,1-.12,1.12,25.44,25.44,0,0,1-5.84,3,6.9,6.9,0,0,0-2.85,2,2.92,2.92,0,0,0-.24.37c0,.06-.2.41-.24.54a2.22,2.22,0,0,0-.15.59,3,3,0,0,0,0,.9s.09.62.12.74a2.8,2.8,0,0,0,.09.31,5.34,5.34,0,0,0,.28.72c.33.76.78,1.51,1.19,2.31a5.88,5.88,0,0,1,.82,4.06,2.55,2.55,0,0,1-1.53,1.8,2.49,2.49,0,0,1-2.29-.49,9.46,9.46,0,0,1-2.43-3.2c-1.15-2.36-1.88-4.78-3.62-6.47a9.93,9.93,0,0,0-2.9-2.09,13.89,13.89,0,0,0-3.48-1c-2.42-.43-5.08-.61-7.47-1.84a9.52,9.52,0,0,1-3.15-2.47,8.74,8.74,0,0,1-1.35-2.26l.58.13c.28.06.54.11.77.14a8.13,8.13,0,0,0,3.64,3.46c2.16,1.11,4.65,1.3,7.18,1.73a14.5,14.5,0,0,1,3.74,1.13,11.42,11.42,0,0,1,3.23,2.31,12.36,12.36,0,0,1,2.25,3.28c.56,1.19,1,2.37,1.57,3.47A7.86,7.86,0,0,0,33.52,45a1.18,1.18,0,0,0,2.06-.7,4.92,4.92,0,0,0-.71-3.26,26,26,0,0,1-1.36-2.69,4.54,4.54,0,0,1-.23-.65,1.87,1.87,0,0,1-.07-.22c0-.12-.06-.26-.09-.4a7,7,0,0,1-.1-.92,4.25,4.25,0,0,1,.06-.8,2.41,2.41,0,0,1,.1-.43c0-.2.12-.39.19-.59s.25-.5.27-.54a3,3,0,0,1,.29-.43,8,8,0,0,1,3.31-2.32A21.26,21.26,0,0,0,43.63,27.59Z"/></g></svg>