<?xml version="1.0" encoding="utf-8"?>
<!-- Generator: Adobe Illustrator 23.0.6, SVG Export Plug-In . SVG Version: 6.00 Build 0)  -->
<svg version="1.1" id="Layer_1" xmlns="http://www.w3.org/2000/svg" xmlns:xlink="http://www.w3.org/1999/xlink" x="0px" y="0px"
	 viewBox="0 0 390 96" style="enable-background:new 0 0 390 96;" xml:space="preserve">
<style type="text/css">
	.st0{fill:url(#SVGID_1_);}
	.st1{fill:url(#SVGID_2_);}
	.st2{fill:url(#SVGID_3_);}
</style>
<g>
	<path d="M124.2,7.3h1.8v15.3h9.4v1.5h-11.2V7.3z"/>
	<path d="M138,7.3h1.8v16.8H138V7.3z"/>
	<path d="M156.5,22.5v1.5h-11.9V7.3h11.5v1.5h-9.7v6h8.7v1.5h-8.7v6.2H156.5z"/>
	<path d="M164.1,8.8h-5.9V7.3h13.6v1.5h-5.9v15.3h-1.8V8.8z"/>
	<path d="M176.1,22.3c-1.2-1.2-1.8-3.1-1.8-5.4V7.3h1.8v9.6c0,2,0.4,3.4,1.3,4.4c0.9,1,2.2,1.4,3.8,1.4c1.7,0,3-0.5,3.8-1.4
		s1.3-2.4,1.3-4.4V7.3h1.7v9.6c0,2.4-0.6,4.2-1.8,5.4c-1.2,1.2-2.9,1.9-5.1,1.9S177.3,23.6,176.1,22.3z"/>
	<path d="M207.2,7.3l-7.4,16.8H198l-7.4-16.8h1.9l6.4,14.6l6.5-14.6H207.2z"/>
	<path d="M212,23.1c-1.4-0.7-2.4-1.8-3.2-3.1s-1.1-2.8-1.1-4.4c0-1.6,0.4-3.1,1.1-4.4c0.8-1.3,1.8-2.3,3.2-3.1
		c1.4-0.7,2.9-1.1,4.5-1.1s3.2,0.4,4.5,1.1s2.4,1.8,3.2,3.1c0.8,1.3,1.2,2.8,1.2,4.4c0,1.6-0.4,3.1-1.2,4.4
		c-0.8,1.3-1.8,2.3-3.2,3.1c-1.3,0.7-2.8,1.1-4.5,1.1S213.3,23.8,212,23.1z M220.1,21.7c1.1-0.6,1.9-1.4,2.5-2.5
		c0.6-1.1,0.9-2.3,0.9-3.6c0-1.3-0.3-2.5-0.9-3.6c-0.6-1.1-1.4-1.9-2.5-2.5s-2.3-0.9-3.6-0.9S214,9,212.9,9.6s-1.9,1.4-2.5,2.5
		s-0.9,2.3-0.9,3.6c0,1.3,0.3,2.5,0.9,3.6c0.6,1.1,1.5,1.9,2.5,2.5c1.1,0.6,2.3,0.9,3.6,0.9S219,22.3,220.1,21.7z"/>
	<path d="M230,23.6c-1.1-0.4-2-0.9-2.7-1.6l0.7-1.4c0.6,0.6,1.4,1.1,2.4,1.5s2,0.6,3.1,0.6c1.5,0,2.6-0.3,3.4-0.8
		c0.8-0.6,1.1-1.3,1.1-2.1c0-0.7-0.2-1.2-0.6-1.6c-0.4-0.4-0.9-0.7-1.5-0.9s-1.4-0.5-2.5-0.7c-1.3-0.3-2.3-0.6-3-0.9
		c-0.8-0.3-1.4-0.7-1.9-1.4c-0.5-0.6-0.8-1.4-0.8-2.5c0-0.8,0.2-1.6,0.7-2.3c0.4-0.7,1.1-1.3,2.1-1.7c0.9-0.4,2.1-0.6,3.5-0.6
		c1,0,1.9,0.1,2.8,0.4s1.7,0.6,2.4,1.1l-0.6,1.4c-0.7-0.5-1.5-0.8-2.3-1c-0.8-0.2-1.6-0.3-2.4-0.3c-1.5,0-2.6,0.3-3.3,0.9
		c-0.7,0.6-1.1,1.3-1.1,2.2c0,0.7,0.2,1.2,0.6,1.6c0.4,0.4,0.9,0.7,1.5,0.9c0.6,0.2,1.4,0.5,2.5,0.7c1.2,0.3,2.2,0.6,3,0.9
		c0.8,0.3,1.4,0.7,1.9,1.3s0.8,1.4,0.8,2.4c0,0.8-0.2,1.6-0.7,2.3s-1.2,1.2-2.1,1.7s-2.1,0.6-3.5,0.6C232.3,24.2,231.1,24,230,23.6z
		"/>
	<path d="M124.2,39.3h6.8c1.8,0,3.3,0.4,4.7,1.1c1.4,0.7,2.4,1.7,3.2,3c0.8,1.3,1.1,2.7,1.1,4.4c0,1.6-0.4,3.1-1.1,4.4
		c-0.8,1.3-1.8,2.3-3.2,3c-1.4,0.7-2.9,1.1-4.7,1.1h-6.8V39.3z M130.9,54.5c1.5,0,2.8-0.3,3.9-0.9s2-1.4,2.6-2.4
		c0.6-1,0.9-2.2,0.9-3.6c0-1.3-0.3-2.5-0.9-3.6c-0.6-1-1.5-1.8-2.6-2.4s-2.4-0.9-3.9-0.9h-5v13.7H130.9z"/>
	<path d="M143.6,39.3h1.8v16.8h-1.8V39.3z"/>
	<path d="M161.8,56.1l-3.8-5.4c-0.4,0-0.9,0.1-1.3,0.1h-4.5v5.3h-1.8V39.3h6.3c2.1,0,3.8,0.5,5,1.5c1.2,1,1.8,2.4,1.8,4.2
		c0,1.3-0.3,2.4-1,3.3c-0.7,0.9-1.6,1.6-2.8,2l4.1,5.8H161.8z M160.4,48.1c0.9-0.7,1.3-1.8,1.3-3.1c0-1.4-0.4-2.4-1.3-3.1
		c-0.9-0.7-2.2-1.1-3.8-1.1h-4.5v8.4h4.5C158.2,49.2,159.5,48.9,160.4,48.1z"/>
	<path d="M180.4,48.8c0.6,0.7,0.9,1.6,0.9,2.7c0,1.4-0.5,2.5-1.6,3.3c-1.1,0.8-2.6,1.2-4.7,1.2h-7.7V39.3h7.2c1.9,0,3.3,0.4,4.4,1.1
		s1.5,1.8,1.5,3.2c0,0.9-0.2,1.7-0.7,2.4c-0.5,0.6-1.1,1.1-1.9,1.5C178.9,47.6,179.8,48.1,180.4,48.8z M169,40.7v6.1h5.4
		c1.4,0,2.4-0.3,3.1-0.8c0.7-0.5,1.1-1.3,1.1-2.3s-0.4-1.7-1.1-2.3c-0.7-0.5-1.8-0.8-3.1-0.8H169z M178.4,53.8
		c0.8-0.5,1.2-1.3,1.2-2.4c0-2.1-1.5-3.1-4.6-3.1H169v6.3h5.9C176.5,54.6,177.6,54.3,178.4,53.8z"/>
	<path d="M188.2,40.8h-5.9v-1.5h13.6v1.5H190v15.3h-1.8V40.8z"/>
	<path d="M198.5,39.3h1.8v16.8h-1.8V39.3z"/>
	<path d="M219.2,39.3v16.8h-1.5l-10.8-13.6v13.6h-1.8V39.3h1.5l10.8,13.6V39.3H219.2z"/>
	<path d="M224,39.3h1.8v16.8H224V39.3z"/>
	<path d="M233.8,55.1c-1.4-0.7-2.4-1.8-3.2-3.1s-1.1-2.8-1.1-4.4c0-1.6,0.4-3.1,1.1-4.4c0.8-1.3,1.8-2.3,3.2-3.1
		c1.4-0.7,2.9-1.1,4.5-1.1s3.2,0.4,4.5,1.1s2.4,1.8,3.2,3.1c0.8,1.3,1.2,2.8,1.2,4.4c0,1.6-0.4,3.1-1.2,4.4
		c-0.8,1.3-1.8,2.3-3.2,3.1c-1.3,0.7-2.8,1.1-4.5,1.1S235.1,55.8,233.8,55.1z M241.9,53.7c1.1-0.6,1.9-1.4,2.5-2.5
		c0.6-1.1,0.9-2.3,0.9-3.6c0-1.3-0.3-2.5-0.9-3.6c-0.6-1.1-1.4-1.9-2.5-2.5s-2.3-0.9-3.6-0.9s-2.5,0.3-3.6,0.9s-1.9,1.4-2.5,2.5
		s-0.9,2.3-0.9,3.6c0,1.3,0.3,2.5,0.9,3.6c0.6,1.1,1.5,1.9,2.5,2.5c1.1,0.6,2.3,0.9,3.6,0.9S240.8,54.3,241.9,53.7z"/>
	<path d="M257.4,39.3h1.8v16.8h-1.8V39.3z"/>
	<path d="M278.1,39.3v16.8h-1.5l-10.8-13.6v13.6H264V39.3h1.5l10.8,13.6V39.3H278.1z"/>
	<path d="M286.5,40.8h-5.9v-1.5h13.6v1.5h-5.9v15.3h-1.8V40.8z"/>
	<path d="M308.7,54.5v1.5h-11.9V39.3h11.5v1.5h-9.7v6h8.7v1.5h-8.7v6.2H308.7z"/>
	<path d="M311.9,39.3h1.8v15.3h9.4v1.5h-11.2V39.3z"/>
	<path d="M337.5,54.5v1.5h-11.9V39.3h11.5v1.5h-9.7v6h8.7v1.5h-8.7v6.2H337.5z"/>
	<path d="M346,48.2l-3.4,3.5v4.4h-1.8V39.3h1.8v10.2l9.9-10.2h2l-7.3,7.6l7.8,9.2h-2.1L346,48.2z"/>
	<path d="M361.9,40.8H356v-1.5h13.6v1.5h-5.9v15.3h-1.8V40.8z"/>
	<path d="M374.3,55.1c-1.4-0.7-2.4-1.8-3.2-3.1s-1.1-2.8-1.1-4.4c0-1.6,0.4-3.1,1.1-4.4c0.8-1.3,1.8-2.3,3.2-3.1
		c1.4-0.7,2.9-1.1,4.5-1.1s3.2,0.4,4.5,1.1s2.4,1.8,3.2,3.1c0.8,1.3,1.2,2.8,1.2,4.4c0,1.6-0.4,3.1-1.2,4.4
		c-0.8,1.3-1.8,2.3-3.2,3.1c-1.3,0.7-2.8,1.1-4.5,1.1S375.6,55.8,374.3,55.1z M382.4,53.7c1.1-0.6,1.9-1.4,2.5-2.5
		c0.6-1.1,0.9-2.3,0.9-3.6c0-1.3-0.3-2.5-0.9-3.6c-0.6-1.1-1.4-1.9-2.5-2.5s-2.3-0.9-3.6-0.9s-2.5,0.3-3.6,0.9s-1.9,1.4-2.5,2.5
		s-0.9,2.3-0.9,3.6c0,1.3,0.3,2.5,0.9,3.6c0.6,1.1,1.5,1.9,2.5,2.5c1.1,0.6,2.3,0.9,3.6,0.9S381.3,54.3,382.4,53.7z"/>
	<path d="M134.7,83.6h-9.4l-2,4.5h-1.8l7.7-16.8h1.8l7.7,16.8h-1.9L134.7,83.6z M134,82.1l-4-9l-4,9H134z"/>
	<path d="M142.6,87.6c-1.1-0.4-2-0.9-2.7-1.6l0.7-1.4c0.6,0.6,1.4,1.1,2.4,1.5s2,0.6,3.1,0.6c1.5,0,2.6-0.3,3.4-0.8
		c0.8-0.6,1.1-1.3,1.1-2.1c0-0.7-0.2-1.2-0.6-1.6c-0.4-0.4-0.9-0.7-1.5-0.9s-1.4-0.5-2.5-0.7c-1.3-0.3-2.3-0.6-3-0.9
		s-1.4-0.7-1.9-1.4c-0.5-0.6-0.8-1.4-0.8-2.5c0-0.8,0.2-1.6,0.7-2.3c0.4-0.7,1.1-1.3,2.1-1.7c0.9-0.4,2.1-0.6,3.5-0.6
		c1,0,1.9,0.1,2.8,0.4s1.7,0.6,2.4,1.1l-0.6,1.4c-0.7-0.5-1.5-0.8-2.3-1c-0.8-0.2-1.6-0.3-2.4-0.3c-1.5,0-2.6,0.3-3.3,0.9
		c-0.7,0.6-1.1,1.3-1.1,2.2c0,0.7,0.2,1.2,0.6,1.6c0.4,0.4,0.9,0.7,1.5,0.9c0.6,0.2,1.4,0.5,2.5,0.7c1.2,0.3,2.2,0.6,3,0.9
		c0.8,0.3,1.4,0.7,1.9,1.3s0.8,1.4,0.8,2.4c0,0.8-0.2,1.6-0.7,2.3s-1.2,1.2-2.1,1.7s-2.1,0.6-3.5,0.6
		C144.9,88.2,143.7,88,142.6,87.6z"/>
	<path d="M158.9,87.1c-1.4-0.7-2.4-1.8-3.2-3.1s-1.1-2.8-1.1-4.4c0-1.6,0.4-3.1,1.1-4.4c0.8-1.3,1.8-2.3,3.2-3.1
		c1.4-0.7,2.9-1.1,4.5-1.1s3.2,0.4,4.5,1.1s2.4,1.8,3.2,3.1c0.8,1.3,1.2,2.8,1.2,4.4c0,1.6-0.4,3.1-1.2,4.4
		c-0.8,1.3-1.8,2.3-3.2,3.1c-1.3,0.7-2.8,1.1-4.5,1.1S160.2,87.8,158.9,87.1z M167,85.7c1.1-0.6,1.9-1.4,2.5-2.5
		c0.6-1.1,0.9-2.3,0.9-3.6c0-1.3-0.3-2.5-0.9-3.6c-0.6-1.1-1.4-1.9-2.5-2.5s-2.3-0.9-3.6-0.9s-2.5,0.3-3.6,0.9s-1.9,1.4-2.5,2.5
		s-0.9,2.3-0.9,3.6c0,1.3,0.3,2.5,0.9,3.6c0.6,1.1,1.5,1.9,2.5,2.5c1.1,0.6,2.3,0.9,3.6,0.9S165.9,86.3,167,85.7z"/>
	<path d="M178.9,87.1c-1.3-0.7-2.4-1.8-3.1-3.1c-0.8-1.3-1.1-2.8-1.1-4.4c0-1.6,0.4-3.1,1.1-4.4c0.8-1.3,1.8-2.3,3.2-3.1
		s2.8-1.1,4.5-1.1c1.2,0,2.4,0.2,3.5,0.6c1.1,0.4,2,1,2.7,1.8l-1.1,1.1c-1.3-1.3-3-2-5-2c-1.3,0-2.5,0.3-3.6,0.9
		c-1.1,0.6-1.9,1.4-2.6,2.5s-0.9,2.2-0.9,3.6c0,1.3,0.3,2.5,0.9,3.6c0.6,1.1,1.5,1.9,2.6,2.5c1.1,0.6,2.3,0.9,3.6,0.9
		c2,0,3.7-0.7,5-2l1.1,1.1c-0.7,0.8-1.6,1.4-2.7,1.8c-1.1,0.4-2.2,0.6-3.5,0.6C181.7,88.2,180.2,87.8,178.9,87.1z"/>
	<path d="M192.7,71.3h1.8v16.8h-1.8V71.3z"/>
	<path d="M210.2,83.6h-9.4l-2,4.5H197l7.7-16.8h1.8l7.7,16.8h-1.9L210.2,83.6z M209.6,82.1l-4-9l-4,9H209.6z"/>
	<path d="M218.8,87.1c-1.3-0.7-2.4-1.8-3.1-3.1c-0.8-1.3-1.1-2.8-1.1-4.4c0-1.6,0.4-3.1,1.1-4.4c0.8-1.3,1.8-2.3,3.2-3.1
		s2.8-1.1,4.5-1.1c1.2,0,2.4,0.2,3.5,0.6c1.1,0.4,2,1,2.7,1.8l-1.1,1.1c-1.3-1.3-3-2-5-2c-1.3,0-2.5,0.3-3.6,0.9
		c-1.1,0.6-1.9,1.4-2.6,2.5s-0.9,2.2-0.9,3.6c0,1.3,0.3,2.5,0.9,3.6c0.6,1.1,1.5,1.9,2.6,2.5c1.1,0.6,2.3,0.9,3.6,0.9
		c2,0,3.7-0.7,5-2l1.1,1.1c-0.7,0.8-1.6,1.4-2.7,1.8c-1.1,0.4-2.2,0.6-3.5,0.6C221.7,88.2,220.2,87.8,218.8,87.1z"/>
	<path d="M232.6,71.3h1.8v16.8h-1.8V71.3z"/>
	<path d="M238.9,87.6c-0.8-0.4-1.5-1-2-1.8l1.1-1.2c0.9,1.4,2.1,2.1,3.6,2.1c2.1,0,3.1-1.2,3.1-3.7V72.8h-6.1v-1.5h7.9v11.6
		c0,1.8-0.4,3.1-1.2,4c-0.8,0.9-2,1.3-3.7,1.3C240.6,88.2,239.7,88,238.9,87.6z"/>
	<path d="M261.4,83.6h-9.4l-2,4.5h-1.8l7.7-16.8h1.8l7.7,16.8h-1.9L261.4,83.6z M260.8,82.1l-4-9l-4,9H260.8z"/>
</g>
<g>
	<linearGradient id="SVGID_1_" gradientUnits="userSpaceOnUse" x1="30.1368" y1="78.2302" x2="74.611" y2="-5.9661">
		<stop  offset="0" style="stop-color:#3943F7"/>
		<stop  offset="0.1195" style="stop-color:#3E41F7"/>
		<stop  offset="0.2531" style="stop-color:#4B3AF8"/>
		<stop  offset="0.3928" style="stop-color:#6130F9"/>
		<stop  offset="0.519" style="stop-color:#7C23FB"/>
		<stop  offset="0.6835" style="stop-color:#A60FFE"/>
		<stop  offset="0.7952" style="stop-color:#BE04FF"/>
	</linearGradient>
	<path class="st0" d="M104.4,39.7c-0.2,2.7-0.7,5.4-1.8,8c-0.1-0.2-0.1-0.5-0.1-0.7c-0.3-1.2-0.6-2.4-1-3.6c0.3-1.3,0.5-2.6,0.6-3.9
		c0.3-5-1-10.1-3.5-14.5c-1.3-2.2-2.9-4.3-4.7-6.1c-1.8-1.8-3.9-3.4-6.1-4.8C78.8,8.7,68,6.6,57.3,5.7C46.6,4.8,35.9,5.8,25.5,8.5
		c-5.2,1.3-10.3,3-14.1,6.3c-3.8,3.2-6,8.2-6.1,13.1c-0.1,5,1.8,10,5.6,13.3c1.5,1.3,3.2,2.4,5.2,3.2c0.4,0.2,2.1,0.8,2.6,0.9
		c0.8,0.3,1.7,0.5,2.5,0.7c0.4,0.1,0.9,0.2,1.3,0.3c0.4,0.1,0.9,0.2,1.3,0.2c0.4,0.1,0.9,0.1,1.3,0.2c5.3,0.8,10.7,0.8,16.2,1.5
		c5.4,0.7,11,2.3,15.7,5.3c2.4,1.4,4.6,3.1,6.6,5c2.1,1.8,3.8,4.1,5.5,5.9c0.7,0.7,1.4,1.4,2.1,2c-0.1,0.3-0.2,0.5-0.3,0.9
		c-0.1,0.4-0.3,1.5-0.4,1.6c-1.2-0.9-2.2-1.9-3.2-2.9c-1.9-2.1-3.4-4.1-5.4-5.8c-1.9-1.7-4-3.3-6.2-4.7c-4.4-2.8-9.5-4.3-14.8-5
		c-5.3-0.7-10.7-0.7-16.2-1.5c-0.1,0-2.6-0.4-2.9-0.5c0,0-0.8-0.2-1.1-0.2L19.1,48c-0.9-0.3-1.9-0.6-2.8-0.9c-2.5-1-5-2.3-7.1-4.1
		c-4.4-3.8-6.5-9.5-6.4-15.1c0-5.5,2.5-11.2,6.9-14.9c4.4-3.7,9.8-5.5,15.1-6.8c10.6-2.7,21.7-3.8,32.7-2.9C63,3.8,68.4,4.6,73.8,6
		c5.3,1.4,10.6,3.3,15.3,6.3c2.4,1.4,4.6,3.2,6.5,5.1c2,1.9,3.7,4.2,5.1,6.5C103.4,28.7,104.8,34.2,104.4,39.7z"/>
	<linearGradient id="SVGID_2_" gradientUnits="userSpaceOnUse" x1="96.0162" y1="97.2758" x2="39.8563" y2="14.3124">
		<stop  offset="0.3038" style="stop-color:#3943F7"/>
		<stop  offset="1" style="stop-color:#BE04FF"/>
	</linearGradient>
	<path class="st1" d="M97,65.1c-3.2,4.6-8.6,7.9-14.6,8.1c-1.4,0-2.8-0.1-4.1-0.4c0,0-0.2-0.8-0.3-0.9c-0.1-0.3-0.1-0.6-0.1-1
		c0-0.6,0-0.2,0-0.6c1.4,0.4,2.9,0.7,4.5,0.6c5.1-0.2,9.8-3,12.7-7.1c1.3-1.9,2.2-4.1,2.7-6.3c0.1-0.3,0.3-1.3,0.3-1.4
		c0.1-0.3,0.2-1.8,0.2-2.2c0-0.3,0-0.6,0-1c0-0.8,0-1.6-0.1-2.3c0-0.3-0.1-0.7-0.1-1c-0.1-0.5-0.2-1-0.3-1.5
		c-0.9-4.5-2.9-8.7-5.7-12.5c-1.5-2.1-3.3-4-5.2-5.7c-2-1.6-4.1-3.2-6.4-4.4c-4.6-2.6-9.6-4.5-14.8-5.6c-5.2-1.1-10.5-1.6-15.8-1.1
		c-5.2,0.4-10.6,1.6-15.2,4C30,25.1,25.9,28.6,23.4,33c-0.4,0.6-0.7,1.2-1,1.9c-0.3,0.6-0.5,1.3-0.7,2c-0.2,0.7-0.4,1.4-0.5,2
		c-0.1,0.7-0.2,1.4-0.3,2.1c-0.1,0.7-0.1,1.4-0.1,2.1c0,0.1,0,0.3,0,0.4c-0.4,0-0.3,0-0.8-0.1c-0.2-0.1-0.4-0.1-0.6-0.2
		c-0.2-0.1-0.3-0.1-0.5-0.2c-0.1,0-0.2-0.1-0.3-0.1c0,0-0.2-0.1-0.2-0.1c0-3.8,1-7.6,2.9-10.9c2.8-4.8,7.2-8.6,12.1-11.2
		c5-2.6,10.6-3.7,16.1-4.2c5.5-0.5,11.1,0,16.5,1.2c5.4,1.2,10.7,3.1,15.5,5.8c8,4.3,14.4,11.6,17.4,20.1l0.2,0.7
		c0.2,0.5,0.3,1,0.5,1.5c0,0,0.5,2,0.5,2c0.1,0.5,0.2,1,0.3,1.4c0.1,0.7,0.2,1.4,0.2,2C101,56,99.8,61,97,65.1z"/>
	<linearGradient id="SVGID_3_" gradientUnits="userSpaceOnUse" x1="33.2325" y1="84.0908" x2="106.903" y2="24.3124">
		<stop  offset="0" style="stop-color:#BE04FF"/>
		<stop  offset="4.289582e-02" style="stop-color:#B309FE"/>
		<stop  offset="0.1193" style="stop-color:#9418FC"/>
		<stop  offset="0.2195" style="stop-color:#632FFA"/>
		<stop  offset="0.2963" style="stop-color:#3943F7"/>
		<stop  offset="0.3201" style="stop-color:#453DF8"/>
		<stop  offset="0.4133" style="stop-color:#7029FA"/>
		<stop  offset="0.5036" style="stop-color:#9219FC"/>
		<stop  offset="0.5892" style="stop-color:#AA0EFE"/>
		<stop  offset="0.668" style="stop-color:#B907FF"/>
		<stop  offset="0.7337" style="stop-color:#BE05FF"/>
		<stop  offset="1" style="stop-color:#3943F7"/>
	</linearGradient>
	<path class="st2" d="M95.8,52.9c0,0.3,0,0.5,0,0.8c0,0.8-0.1,1.6-0.3,2.3c-3.9,2.8-8.3,4.6-12.6,6.2c-2.4,1-4.7,2.2-6.1,4.1
		c-0.2,0.2-0.4,0.5-0.5,0.8c-0.1,0.1-0.4,0.8-0.5,1.1c-0.2,0.4-0.2,0.8-0.3,1.2c-0.1,0.6-0.1,1.2-0.1,1.9c0,0,0.2,1.3,0.3,1.5
		c0.1,0.2,0.1,0.4,0.2,0.6c0.2,0.5,0.4,1,0.6,1.5c0.7,1.6,1.7,3.1,2.6,4.8c1.3,2.4,2.5,5.2,1.7,8.4c-0.4,1.5-1.5,3.1-3.3,3.7
		c-1.8,0.6-3.7-0.1-4.9-1c-2.4-1.8-4-4.2-5.2-6.6c-2.5-4.9-4-9.9-7.8-13.4c-1.8-1.8-3.9-3.3-6.2-4.3c-2.3-1.1-4.9-1.7-7.5-2.1
		c-5.2-0.9-10.9-1.3-16.1-3.8c-2.5-1.2-4.9-2.9-6.8-5.1c-1.2-1.4-2.2-3-2.9-4.7c0.4,0.1,0.8,0.2,1.3,0.3c0.6,0.1,1.1,0.2,1.7,0.3
		c1.7,3.1,4.5,5.6,7.8,7.1c4.6,2.3,10,2.7,15.4,3.6c2.7,0.5,5.5,1.1,8.1,2.3c2.6,1.2,4.9,2.8,7,4.8c2,2,3.6,4.4,4.8,6.8
		c1.2,2.5,2.2,4.9,3.4,7.2c1.2,2.3,2.6,4.4,4.6,5.8c0.9,0.7,1.9,0.9,2.7,0.7c0.8-0.2,1.4-1.1,1.7-2.1c0.5-2.1-0.3-4.5-1.5-6.7
		C76,79,74.8,77.2,74,75.2c-0.2-0.4-0.4-0.9-0.5-1.4c-0.1-0.1-0.1-0.3-0.1-0.4c-0.1-0.3-0.1-0.5-0.2-0.8C73.1,72,73,71.3,73,70.7
		c0-0.6,0-1.1,0.1-1.7c0-0.3,0.1-0.6,0.2-0.9c0.1-0.4,0.2-0.8,0.4-1.2c0.1-0.3,0.5-1,0.6-1.1c0.2-0.3,0.4-0.6,0.6-0.9
		c1.9-2.4,4.6-3.7,7.1-4.8C87,58.2,91.9,56.2,95.8,52.9z"/>
</g>
</svg>
