<?xml version="1.0" encoding="UTF-8" standalone="no"?>
<svg
   xmlns:dc="http://purl.org/dc/elements/1.1/"
   xmlns:cc="http://creativecommons.org/ns#"
   xmlns:rdf="http://www.w3.org/1999/02/22-rdf-syntax-ns#"
   xmlns:svg="http://www.w3.org/2000/svg"
   xmlns="http://www.w3.org/2000/svg"
   xmlns:sodipodi="http://sodipodi.sourceforge.net/DTD/sodipodi-0.dtd"
   xmlns:inkscape="http://www.inkscape.org/namespaces/inkscape"
   id="Layer_1"
   data-name="Layer 1"
   viewBox="0 0 47.167767 43.06496"
   version="1.1"
   sodipodi:docname="LDIA_50x50.svg"
   width="47.167767"
   height="43.06496"
   inkscape:version="0.92.2 5c3e80d, 2017-08-06">
  <metadata
     id="metadata150">
    <rdf:RDF>
      <cc:Work
         rdf:about="">
        <dc:format>image/svg+xml</dc:format>
        <dc:type
           rdf:resource="http://purl.org/dc/dcmitype/StillImage" />
        <dc:title>Artboard 1</dc:title>
      </cc:Work>
    </rdf:RDF>
  </metadata>
  <sodipodi:namedview
     pagecolor="#ffffff"
     bordercolor="#666666"
     borderopacity="1"
     objecttolerance="10"
     gridtolerance="10"
     guidetolerance="10"
     inkscape:pageopacity="0"
     inkscape:pageshadow="2"
     inkscape:window-width="1265"
     inkscape:window-height="886"
     id="namedview148"
     showgrid="false"
     inkscape:zoom="6.48"
     inkscape:cx="35.461649"
     inkscape:cy="17.452016"
     inkscape:window-x="0"
     inkscape:window-y="0"
     inkscape:window-maximized="0"
     inkscape:current-layer="Layer_1" />
  <defs
     id="defs49">
    <style
       id="style2">.cls-1{fill:url(#linear-gradient);}.cls-2{fill:url(#linear-gradient-2);}.cls-3{fill:url(#linear-gradient-3);}</style>
    <linearGradient
       id="linear-gradient"
       x1="13.21"
       y1="11.63"
       x2="34.259998"
       y2="51.48"
       gradientTransform="matrix(1,0,0,-1,-0.7298337,47.414377)"
       gradientUnits="userSpaceOnUse">
      <stop
         offset="0"
         stop-color="#3943f7"
         id="stop4" />
      <stop
         offset="0.12"
         stop-color="#3e41f7"
         id="stop6" />
      <stop
         offset="0.25"
         stop-color="#4b3af8"
         id="stop8" />
      <stop
         offset="0.39"
         stop-color="#6130f9"
         id="stop10" />
      <stop
         offset="0.52"
         stop-color="#7c23fb"
         id="stop12" />
      <stop
         offset="0.68"
         stop-color="#a60ffe"
         id="stop14" />
      <stop
         offset="0.8"
         stop-color="#be04ff"
         id="stop16" />
    </linearGradient>
    <linearGradient
       id="linear-gradient-2"
       x1="44.389999"
       y1="2.4100001"
       x2="17.74"
       y2="41.77"
       gradientTransform="matrix(1,0,0,-1,-0.7298337,47.414377)"
       gradientUnits="userSpaceOnUse">
      <stop
         offset="0.3"
         stop-color="#3943f7"
         id="stop19" />
      <stop
         offset="1"
         stop-color="#be04ff"
         id="stop21" />
    </linearGradient>
    <linearGradient
       id="linear-gradient-3"
       x1="14.99"
       y1="8.6499996"
       x2="49.220001"
       y2="36.419998"
       gradientTransform="matrix(1,0,0,-1,-0.7298337,47.414377)"
       gradientUnits="userSpaceOnUse">
      <stop
         offset="0"
         stop-color="#be04ff"
         id="stop24" />
      <stop
         offset="0.04"
         stop-color="#b309fe"
         id="stop26" />
      <stop
         offset="0.12"
         stop-color="#9418fc"
         id="stop28" />
      <stop
         offset="0.22"
         stop-color="#632ffa"
         id="stop30" />
      <stop
         offset="0.3"
         stop-color="#3943f7"
         id="stop32" />
      <stop
         offset="0.32"
         stop-color="#453df8"
         id="stop34" />
      <stop
         offset="0.41"
         stop-color="#7029fa"
         id="stop36" />
      <stop
         offset="0.5"
         stop-color="#9219fc"
         id="stop38" />
      <stop
         offset="0.59"
         stop-color="#aa0efe"
         id="stop40" />
      <stop
         offset="0.67"
         stop-color="#b907ff"
         id="stop42" />
      <stop
         offset="0.73"
         stop-color="#be05ff"
         id="stop44" />
      <stop
         offset="1"
         stop-color="#3943f7"
         id="stop46" />
    </linearGradient>
  </defs>
  <title
     id="title51">Artboard 1</title>
  <path
     class="cls-1"
     d="m 47.150166,17.674377 a 12.83,12.83 0 0 1 -0.88,3.87 v -0.33 a 14.85,14.85 0 0 0 -0.46,-1.74 11.75,11.75 0 0 0 0.27,-1.86 13,13 0 0 0 -1.7,-7 14.26,14.26 0 0 0 -2.11,-2.9599997 14.53,14.53 0 0 0 -2.82,-2.31 c -4.18,-2.7 -9.18,-3.66 -14.18,-4.14 a 43.34,43.34 0 0 0 -14.85,1.35 15.81,15.81 0 0 0 -6.4999997,3.08 8.64,8.64 0 0 0 -2.81,6.2999997 8.38,8.38 0 0 0 5,8 c 0.19,0.08 1,0.39 1.19,0.44 a 8.25,8.25 0 0 0 1.17,0.35 l 0.61,0.14 0.61,0.12 0.6099997,0.1 c 2.46,0.36 5,0.39 7.52,0.74 a 17,17 0 0 1 7.32,2.59 20.59,20.59 0 0 1 3.05,2.37 34.87,34.87 0 0 1 2.57,2.87 c 0.31,0.33 0.63,0.65 1,1 a 2.8,2.8 0 0 0 -0.13,0.41 4.81,4.81 0 0 1 -0.17,0.79 13.65,13.65 0 0 1 -1.5,-1.35 c -0.89,-1 -1.59,-2 -2.49,-2.81 a 20.43,20.43 0 0 0 -2.94,-2.28 15.69,15.69 0 0 0 -6.85,-2.41 c -2.45,-0.35 -5,-0.35 -7.53,-0.74 0,0 -1.1999997,-0.2 -1.3499997,-0.24 l -0.53,-0.14 -0.78,-0.22 c -0.43,-0.12 -0.86,-0.27 -1.35,-0.43 a 10.8,10.8 0 0 1 -3.28,-2 9.65,9.65 0 0 1 -2.85,-7.3 9.68,9.68 0 0 1 3.2,-7.1499997 16.82,16.82 0 0 1 6.9999997,-3.28 44.29,44.29 0 0 1 15.14,-1.35000003 43.65,43.65 0 0 1 7.54,1.26000003 24.26,24.26 0 0 1 7.08,3 16.47,16.47 0 0 1 5.36,5.6099997 14.05,14.05 0 0 1 1.82,7.65 z"
     id="path141"
     inkscape:connector-curvature="0"
     style="fill:url(#linear-gradient)" />
  <path
     class="cls-2"
     d="m 43.680166,29.964377 a 8.76,8.76 0 0 1 -6.76,3.92 8.87,8.87 0 0 1 -1.92,-0.19 3.9,3.9 0 0 1 -0.12,-0.46 3.84,3.84 0 0 1 0,-0.48 v -0.27 a 5.82,5.82 0 0 0 2.07,0.27 7.6,7.6 0 0 0 5.89,-3.43 9,9 0 0 0 1.27,-3 c 0,-0.23 0.09,-0.45 0.12,-0.68 0.03,-0.23 0.11,-0.88 0.11,-1.08 v -0.49 a 6.73,6.73 0 0 0 0,-1.1 4.17,4.17 0 0 0 0,-0.5 5.88,5.88 0 0 0 -0.14,-0.73 16.5,16.5 0 0 0 -5.08,-8.76 19.67,19.67 0 0 0 -3,-2.13 23,23 0 0 0 -6.85,-2.7599997 24.49,24.49 0 0 0 -7.34,-0.55 18.61,18.61 0 0 0 -7,1.92 12.58,12.58 0 0 0 -5.1999997,4.9499997 c -0.17,0.3 -0.32,0.61 -0.46,0.92 -0.14,0.31 -0.24,0.64 -0.33,1 a 6.52,6.52 0 0 0 -0.25,1 6.82,6.82 0 0 0 -0.14,1 5.79,5.79 0 0 0 0,1 v 0.17 a 1.09,1.09 0 0 1 -0.36,0 l -0.28,-0.09 -0.42,-0.16 h -0.22 a 10.87,10.87 0 0 1 1.35,-5.26 13.85,13.85 0 0 1 5.6499997,-5.4199997 19.66,19.66 0 0 1 7.41,-2.16 25.35,25.35 0 0 1 7.67,0.57 24.71,24.71 0 0 1 7.18,2.82 17.8,17.8 0 0 1 8.11,9.7199997 l 0.1,0.31 c 0.09,0.23 0.15,0.47 0.22,0.72 0,0 0.23,1 0.23,1 0,0 0.09,0.46 0.14,0.69 a 8.42,8.42 0 0 1 0.09,1 10.83,10.83 0 0 1 -1.74,6.72 z"
     id="path143"
     inkscape:connector-curvature="0"
     style="fill:url(#linear-gradient-2)" />
  <path
     class="cls-3"
     d="m 43.140166,24.094377 v 0.42 a 10.52,10.52 0 0 1 -0.14,1.11 24.79,24.79 0 0 1 -5.73,2.94 7.05,7.05 0 0 0 -2.85,2 2.06,2.06 0 0 0 -0.23,0.37 3.36,3.36 0 0 0 -0.26,0.54 2.32,2.32 0 0 0 -0.13,0.58 2.78,2.78 0 0 0 0,0.91 c 0,0 0.08,0.62 0.12,0.74 l 0.08,0.31 c 0.08,0.24 0.17,0.47 0.28,0.72 0.34,0.75 0.79,1.51 1.2,2.31 a 5.88,5.88 0 0 1 0.81,4 2.28,2.28 0 0 1 -3.86,1.37 9.42,9.42 0 0 1 -2.43,-3.2 c -1.15,-2.35 -1.88,-4.77 -3.61,-6.46 a 10.17,10.17 0 0 0 -2.9,-2.09 13.23,13.23 0 0 0 -3.49,-1 25.73,25.73 0 0 1 -7.52,-1.84 9.44,9.44 0 0 1 -3.1399997,-2.47 8.63,8.63 0 0 1 -1.35,-2.34 l 0.58,0.14 a 5.88,5.88 0 0 1 0.77,0.13 8.08,8.08 0 0 0 3.6399997,3.51 24.2,24.2 0 0 0 7.16,1.73 14.82,14.82 0 0 1 3.74,1.13 11.71,11.71 0 0 1 3.23,2.31 12.08,12.08 0 0 1 2.24,3.28 c 0.56,1.18 1,2.35 1.57,3.46 a 8,8 0 0 0 2.11,2.82 1.19,1.19 0 0 0 1.68,0.09 1.27,1.27 0 0 0 0.39,-0.79 4.92,4.92 0 0 0 -0.72,-3.26 26.14,26.14 0 0 1 -1.35,-2.7 4.67,4.67 0 0 1 -0.23,-0.66 1.59,1.59 0 0 1 -0.07,-0.2 3,3 0 0 0 -0.09,-0.41 5.63,5.63 0 0 1 -0.1,-0.92 5.21,5.21 0 0 1 0,-0.79 3.15,3.15 0 0 1 0.11,-0.44 3.32,3.32 0 0 1 0.24,-0.59 5.28,5.28 0 0 1 0.27,-0.53 2.49,2.49 0 0 1 0.29,-0.43 7.8,7.8 0 0 1 3.31,-2.32 21.31,21.31 0 0 0 6.38,-3.48 z"
     id="path145"
     inkscape:connector-curvature="0"
     style="fill:url(#linear-gradient-3)" />
</svg>
