<svg id="Layer_1" data-name="Layer 1" xmlns="http://www.w3.org/2000/svg" xmlns:xlink="http://www.w3.org/1999/xlink" viewBox="0 0 148 36"><defs><style>.cls-1{fill:url(#linear-gradient);}.cls-2{fill:url(#linear-gradient-2);}.cls-3{fill:url(#linear-gradient-3);}</style><linearGradient id="linear-gradient" x1="9.81" y1="9.35" x2="25.39" y2="38.84" gradientTransform="matrix(1, 0, 0, -1, 0, 38)" gradientUnits="userSpaceOnUse"><stop offset="0" stop-color="#3943f7"/><stop offset="0.12" stop-color="#3e41f7"/><stop offset="0.25" stop-color="#4b3af8"/><stop offset="0.39" stop-color="#6130f9"/><stop offset="0.52" stop-color="#7c23fb"/><stop offset="0.68" stop-color="#a60ffe"/><stop offset="0.8" stop-color="#be04ff"/></linearGradient><linearGradient id="linear-gradient-2" x1="32.89" y1="2.53" x2="13.17" y2="31.66" gradientTransform="matrix(1, 0, 0, -1, 0, 38)" gradientUnits="userSpaceOnUse"><stop offset="0.3" stop-color="#3943f7"/><stop offset="1" stop-color="#be04ff"/></linearGradient><linearGradient id="linear-gradient-3" x1="11.13" y1="7.15" x2="36.46" y2="27.7" gradientTransform="matrix(1, 0, 0, -1, 0, 38)" gradientUnits="userSpaceOnUse"><stop offset="0" stop-color="#be04ff"/><stop offset="0.04" stop-color="#b309fe"/><stop offset="0.12" stop-color="#9418fc"/><stop offset="0.22" stop-color="#632ffa"/><stop offset="0.3" stop-color="#3943f7"/><stop offset="0.32" stop-color="#453df8"/><stop offset="0.41" stop-color="#7029fa"/><stop offset="0.5" stop-color="#9219fc"/><stop offset="0.59" stop-color="#aa0efe"/><stop offset="0.67" stop-color="#b907ff"/><stop offset="0.73" stop-color="#be05ff"/><stop offset="1" stop-color="#3943f7"/></linearGradient></defs><title>Artboard 1</title><path d="M46.19,8H43l-.69,1.61h-.64l2.64-6h.6l2.64,6h-.64ZM46,7.49,44.58,4.26,43.19,7.49Z"/><path d="M52.33,9.61,51,7.67H49V9.61h-.61v-6h2.16a2.51,2.51,0,0,1,1.73.55,1.89,1.89,0,0,1,.63,1.51,2,2,0,0,1-.34,1.19,2,2,0,0,1-1,.7L53,9.62Zm-.48-2.85a1.38,1.38,0,0,0,.45-1.1,1.4,1.4,0,0,0-.45-1.12,2,2,0,0,0-1.31-.39H49v3h1.54A1.87,1.87,0,0,0,51.85,6.76Z"/><path d="M55.35,4.15h-2V3.6H58v.55H56V9.61H55.4Z"/><path d="M58.87,3.6h.61v6h-.61Z"/><path d="M61.77,4.15V6.51h3v.55h-3V9.61h-.65v-6h4v.55Z"/><path d="M66.12,3.6h.61v6h-.61Z"/><path d="M69.47,9.26a2.83,2.83,0,0,1-1.08-1.09A3.18,3.18,0,0,1,68,6.6,3.19,3.19,0,0,1,68.39,5a2.83,2.83,0,0,1,1.08-1.09A3.11,3.11,0,0,1,71,3.52a3,3,0,0,1,1.19.22,2.49,2.49,0,0,1,.92.65l-.38.4A2.24,2.24,0,0,0,71,4.08a2.35,2.35,0,0,0-1.24.33,2.28,2.28,0,0,0-.88.89,2.66,2.66,0,0,0,0,2.54,2.24,2.24,0,0,0,.88.9A2.57,2.57,0,0,0,71,9.06a2.22,2.22,0,0,0,1.71-.72l.38.4a2.41,2.41,0,0,1-.92.66A3.23,3.23,0,0,1,71,9.63,3,3,0,0,1,69.47,9.26Z"/><path d="M74.21,3.6h.61v6h-.61Z"/><path d="M80.24,8H77l-.69,1.61h-.64l2.64-6h.6l2.64,6h-.64ZM80,7.49,78.63,4.26,77.24,7.49Z"/><path d="M82.44,3.6h.61V9.06h3.23v.55H82.44Z"/><path d="M89.46,3.6h.66v6h-.61Z"/><path d="M96.56,3.6v6h-.5L92.35,4.73V9.61h-.61v-6h.51L96,8.48V3.6Z"/><path d="M99.47,4.15h-2V3.6h4.65v.55h-2V9.61h-.61Z"/><path d="M107.12,9.06v.55H103v-6h4v.55h-3.35V6.28h3v.54h-3V9.06Z"/><path d="M108.17,3.6h.61V9.06H112v.55h-3.84Z"/><path d="M112.91,3.6h.61V9.06h3.23v.55h-3.84Z"/><path d="M117.65,3.6h.61v6h-.61Z"/><path d="M124.12,6.6h.58V8.89a2.63,2.63,0,0,1-1,.57,3.49,3.49,0,0,1-1.16.2,3,3,0,0,1-1.56-.4,2.85,2.85,0,0,1-1.09-1.09,3.3,3.3,0,0,1,0-3.14A2.85,2.85,0,0,1,121,3.94a3.14,3.14,0,0,1,1.56-.39,3.6,3.6,0,0,1,1.22.21,2.74,2.74,0,0,1,.93.65l-.38.41a2.34,2.34,0,0,0-1.74-.71,2.69,2.69,0,0,0-1.27.32,2.39,2.39,0,0,0-1.18,2.17,2.47,2.47,0,0,0,.32,1.27,2.45,2.45,0,0,0,.88.9,2.41,2.41,0,0,0,1.26.32,2.5,2.5,0,0,0,1.54-.46Z"/><path d="M130.28,9.06v.55H126.2v-6h4v.55h-3.34V6.28h3v.54h-3V9.06Z"/><path d="M136.2,3.6v6h-.5L132,4.72V9.61h-.61v-6h.5l3.72,4.87V3.6Z"/><path d="M138.93,9.26a2.83,2.83,0,0,1-1.08-1.09,3.18,3.18,0,0,1-.39-1.57,3.19,3.19,0,0,1,.39-1.6,2.72,2.72,0,0,1,1.09-1.09,3.3,3.3,0,0,1,2.73-.17,2.49,2.49,0,0,1,.92.65l-.38.4a2.26,2.26,0,0,0-1.71-.71,2.35,2.35,0,0,0-1.24.33,2.28,2.28,0,0,0-.88.89,2.66,2.66,0,0,0,0,2.54,2.24,2.24,0,0,0,.88.9,2.57,2.57,0,0,0,1.24.32,2.22,2.22,0,0,0,1.71-.72l.38.4a2.41,2.41,0,0,1-.92.66,3.23,3.23,0,0,1-1.19.23A3,3,0,0,1,138.93,9.26Z"/><path d="M147.76,9.06v.55h-4.08v-6h4v.55h-3.35V6.28h3v.54h-3V9.06Z"/><path d="M46.19,19.45H43l-.69,1.6h-.64l2.64-6h.6l2.64,6h-.64ZM46,18.93,44.58,15.7l-1.39,3.23Z"/><path d="M48.9,20.89a2.17,2.17,0,0,1-.91-.57l.24-.49a2.15,2.15,0,0,0,.83.53,2.79,2.79,0,0,0,1.07.2,1.9,1.9,0,0,0,1.16-.29.93.93,0,0,0,.39-.77.83.83,0,0,0-.21-.58,1.54,1.54,0,0,0-.51-.33c-.21-.07-.49-.16-.85-.25a6.88,6.88,0,0,1-1-.33,1.82,1.82,0,0,1-.67-.49,1.32,1.32,0,0,1-.27-.88,1.45,1.45,0,0,1,.23-.83,1.54,1.54,0,0,1,.71-.6A2.78,2.78,0,0,1,50.25,15a3.72,3.72,0,0,1,1,.14,3.09,3.09,0,0,1,.82.39l-.2.51a3,3,0,0,0-1.59-.5,1.78,1.78,0,0,0-1.14.31,1,1,0,0,0-.38.78.79.79,0,0,0,.21.58,1.42,1.42,0,0,0,.53.34c.21.07.49.16.85.25s.67.2,1,.32a1.84,1.84,0,0,1,.66.48,1.31,1.31,0,0,1,.27.87,1.46,1.46,0,0,1-1,1.42,2.91,2.91,0,0,1-1.2.22A3.66,3.66,0,0,1,48.9,20.89Z"/><path d="M53.9,20.89a2.2,2.2,0,0,1-.92-.57l.24-.49a2.18,2.18,0,0,0,.84.53,2.79,2.79,0,0,0,1.07.2,2,2,0,0,0,1.16-.29.93.93,0,0,0,.39-.77.83.83,0,0,0-.21-.58,1.44,1.44,0,0,0-.52-.33c-.2-.07-.48-.16-.85-.25a6.49,6.49,0,0,1-1-.33,1.87,1.87,0,0,1-.66-.49,1.32,1.32,0,0,1-.27-.88,1.45,1.45,0,0,1,.23-.83,1.64,1.64,0,0,1,.7-.6A3,3,0,0,1,55.25,15a3.72,3.72,0,0,1,1,.14,3.09,3.09,0,0,1,.82.39l-.21.51a2.9,2.9,0,0,0-1.58-.5,1.78,1.78,0,0,0-1.14.31.92.92,0,0,0-.38.78.79.79,0,0,0,.21.58,1.31,1.31,0,0,0,.52.34c.22.07.5.16.86.25s.67.2,1,.32a1.79,1.79,0,0,1,.67.48,1.31,1.31,0,0,1,.27.87,1.51,1.51,0,0,1-1,1.42,2.92,2.92,0,0,1-1.17.21A3.6,3.6,0,0,1,53.9,20.89Z"/><path d="M59.49,20.7a2.85,2.85,0,0,1-1.09-1.09,3.32,3.32,0,0,1,0-3.12,2.88,2.88,0,0,1,1.09-1.1,3.22,3.22,0,0,1,3.1,0,2.7,2.7,0,0,1,1.08,1.09,3.09,3.09,0,0,1,.4,1.57,3,3,0,0,1-.4,1.56,2.79,2.79,0,0,1-1.08,1.1A3.11,3.11,0,0,1,61,21.1,3,3,0,0,1,59.49,20.7Zm2.79-.48a2.35,2.35,0,0,0,.87-.9,2.68,2.68,0,0,0,.31-1.27,2.72,2.72,0,0,0-.34-1.28,2.26,2.26,0,0,0-.87-.89,2.56,2.56,0,0,0-2.48,0,2.26,2.26,0,0,0-.87.89,2.7,2.7,0,0,0,0,2.55,2.35,2.35,0,0,0,.87.9,2.57,2.57,0,0,0,1.24.32A2.47,2.47,0,0,0,62.28,20.22Z"/><path d="M66.36,20.71a2.79,2.79,0,0,1-1.08-1.1,3.14,3.14,0,0,1-.39-1.56,3.18,3.18,0,0,1,.39-1.57,2.72,2.72,0,0,1,1.09-1.09A3,3,0,0,1,67.92,15a3.21,3.21,0,0,1,1.18.22,2.37,2.37,0,0,1,.93.66l-.39.4a2.24,2.24,0,0,0-1.71-.71,2.57,2.57,0,0,0-1.24.32,2.24,2.24,0,0,0-.88.9,2.47,2.47,0,0,0-.32,1.27,2.69,2.69,0,0,0,.32,1.27,2.28,2.28,0,0,0,.88.89,2.45,2.45,0,0,0,1.24.33,2.22,2.22,0,0,0,1.71-.72l.39.4a2.55,2.55,0,0,1-.93.66,3.32,3.32,0,0,1-2.74-.17Z"/><path d="M71.12,15h.61v6h-.61Z"/><path d="M77.12,19.45H73.91l-.69,1.6h-.63l2.64-6h.6l2.63,6h-.64Zm-.22-.52L75.52,15.7l-1.4,3.23Z"/><path d="M79.89,15.59h-2V15h4.63v.55h-2V21h-.61Z"/><path d="M83.4,15H84v6H83.4Z"/><path d="M86.75,20.7a2.72,2.72,0,0,1-1.09-1.09,3.32,3.32,0,0,1,0-3.12,2.81,2.81,0,0,1,1.09-1.1,3.22,3.22,0,0,1,3.1,0,2.83,2.83,0,0,1,1.08,1.09,3.19,3.19,0,0,1,.4,1.57,3,3,0,0,1-.4,1.56,2.85,2.85,0,0,1-1.08,1.1,3.11,3.11,0,0,1-1.55.39A3,3,0,0,1,86.75,20.7Zm2.79-.48a2.4,2.4,0,0,0,.86-.9,2.7,2.7,0,0,0,0-2.55,2.3,2.3,0,0,0-.86-.89,2.55,2.55,0,0,0-2.48,0,2.26,2.26,0,0,0-.87.89,2.7,2.7,0,0,0,0,2.55,2.35,2.35,0,0,0,.87.9A2.55,2.55,0,0,0,89.54,20.22Z"/><path d="M97.39,15v6h-.5l-3.71-4.87V21h-.61V15h.55l3.72,4.88V15Z"/><path d="M102.4,20.7a2.72,2.72,0,0,1-1.09-1.09,3.32,3.32,0,0,1,0-3.12,2.81,2.81,0,0,1,1.09-1.1,3.22,3.22,0,0,1,3.1,0,2.83,2.83,0,0,1,1.08,1.09,3.19,3.19,0,0,1,.4,1.57,3,3,0,0,1-.4,1.56,2.85,2.85,0,0,1-1.08,1.1,3.11,3.11,0,0,1-1.55.39A3,3,0,0,1,102.4,20.7Zm2.79-.48a2.4,2.4,0,0,0,.86-.9,2.7,2.7,0,0,0,0-2.55,2.3,2.3,0,0,0-.86-.89,2.55,2.55,0,0,0-2.48,0,2.26,2.26,0,0,0-.87.89,2.7,2.7,0,0,0,0,2.55,2.35,2.35,0,0,0,.87.9A2.55,2.55,0,0,0,105.19,20.22Z"/><path d="M108.83,15.59V18h3v.55h-3V21.1h-.61V15h4v.55Z"/><path d="M42.57,26.49h.61V32h3.23v.55H42.57Z"/><path d="M47.31,26.49h.61v6h-.61Z"/><path d="M50.83,27h-2v-.55h4.66V27h-2v5.5h-.61Z"/><path d="M59.12,26.49v6h-.6V29.73H55V32.5h-.61v-6H55v2.68h3.61V26.49Z"/><path d="M61.42,31.88a2.77,2.77,0,0,1-.62-1.95V26.49h.61v3.42a2.35,2.35,0,0,0,.45,1.56,2,2,0,0,0,2.63,0,2.35,2.35,0,0,0,.45-1.56V26.49h.6v3.44a2.76,2.76,0,0,1-.63,1.95,2.22,2.22,0,0,1-1.74.67A2.29,2.29,0,0,1,61.42,31.88Z"/><path d="M70.61,30.89H67.39L66.7,32.5h-.64l2.64-6h.6l2.64,6H71.3Zm-.23-.51L69,27.15l-1.39,3.23Z"/><path d="M77.64,26.49v6h-.52l-3.7-4.87V32.5h-.61v-6h.51L77,31.37V26.49Z"/><path d="M79.31,26.49h.61v6h-.61Z"/><path d="M85.33,30.89H82.12l-.69,1.61h-.64l2.64-6H84l2.64,6H86Zm-.21-.51-1.38-3.23-1.39,3.23Z"/><path class="cls-1" d="M35.47,15.25a9.7,9.7,0,0,1-.62,2.86v-.24a11.11,11.11,0,0,0-.34-1.29,9.18,9.18,0,0,0,.2-1.38A9.56,9.56,0,0,0,33.45,10a11.12,11.12,0,0,0-3.71-3.88c-3.07-2-6.8-2.71-10.45-3.06a31.87,31.87,0,0,0-11,1A11.69,11.69,0,0,0,3.48,6.34,6.36,6.36,0,0,0,1.4,11a6.27,6.27,0,0,0,1.93,4.76,6.47,6.47,0,0,0,1.79,1.18c.14.06.73.29.88.33a8,8,0,0,0,.87.26l.45.1.45.09.45.07c1.82.27,3.68.29,5.57.55a12.55,12.55,0,0,1,5.39,1.9A14.74,14.74,0,0,1,21.44,22a25.43,25.43,0,0,1,1.9,2.12,9.49,9.49,0,0,0,.72.7,2.81,2.81,0,0,0-.1.31,4.13,4.13,0,0,1-.12.58,8.8,8.8,0,0,1-1.11-1c-.66-.74-1.18-1.45-1.85-2.08A15.68,15.68,0,0,0,18.73,21a11.64,11.64,0,0,0-5.07-1.78c-1.81-.26-3.68-.26-5.57-.55,0,0-.89-.15-1-.18l-.39-.09-.58-.16c-.32-.09-.64-.2-1-.32a8.06,8.06,0,0,1-2.43-1.47A7.2,7.2,0,0,1,.58,11,7.16,7.16,0,0,1,3,5.71,12.45,12.45,0,0,1,8.12,3.28a32.64,32.64,0,0,1,11.22-1,33,33,0,0,1,5.58.93,18.27,18.27,0,0,1,5.24,2.24,11.94,11.94,0,0,1,2.23,1.84A11.81,11.81,0,0,1,34.12,9.6,10.35,10.35,0,0,1,35.47,15.25Z"/><path class="cls-2" d="M32.9,24.34a6.48,6.48,0,0,1-5,2.9,6.17,6.17,0,0,1-1.42-.14,2.14,2.14,0,0,1-.09-.34,2,2,0,0,1,0-.35v-.2a4.39,4.39,0,0,0,1.53.2,5.62,5.62,0,0,0,4.36-2.54,6.7,6.7,0,0,0,.94-2.26,4.37,4.37,0,0,0,.09-.5c0-.11.08-.65.08-.8V20a5.61,5.61,0,0,0,0-.82,2.29,2.29,0,0,0,0-.37,5.12,5.12,0,0,0-.1-.54,12.25,12.25,0,0,0-3.76-6.48,15.59,15.59,0,0,0-2.21-1.58,16.83,16.83,0,0,0-5.07-2,18,18,0,0,0-5.43-.41,13.77,13.77,0,0,0-5.21,1.42,9.37,9.37,0,0,0-3.83,3.66,6.16,6.16,0,0,0-.34.68c-.09.23-.18.47-.25.71A4.58,4.58,0,0,0,7,15a6.46,6.46,0,0,0-.11.75q0,.38,0,.75v.13a1.13,1.13,0,0,1-.26,0l-.21-.06-.31-.12H6a8,8,0,0,1,1-3.89,10.14,10.14,0,0,1,4.16-4,14.38,14.38,0,0,1,5.51-1.58,18.71,18.71,0,0,1,5.68.42,18.15,18.15,0,0,1,5.31,2.09,13.14,13.14,0,0,1,6,7.19l.08.23c.06.17.11.35.16.53,0,0,.17.71.17.73s.07.34.1.51a6.71,6.71,0,0,1,.07.73A8,8,0,0,1,32.9,24.34Z"/><path class="cls-3" d="M32.5,20v.31a7.64,7.64,0,0,1-.1.82,18.77,18.77,0,0,1-4.28,2.18A5.23,5.23,0,0,0,26,24.76c-.06.09-.12.18-.17.27a2.93,2.93,0,0,0-.19.4,2.07,2.07,0,0,0-.1.43,2.51,2.51,0,0,0,0,.67s.06.46.09.55l.06.23c.06.18.13.35.21.53.25.56.58,1.12.89,1.71a4.39,4.39,0,0,1,.6,3,1.9,1.9,0,0,1-1.13,1.33,1.85,1.85,0,0,1-1.69-.36,7,7,0,0,1-1.8-2.37c-.85-1.74-1.39-3.53-2.67-4.78A7.66,7.66,0,0,0,18,24.82a10.08,10.08,0,0,0-2.58-.76A18.78,18.78,0,0,1,9.81,22.7a7,7,0,0,1-2.32-1.83,6,6,0,0,1-1-1.67l.43.1a4.82,4.82,0,0,1,.57.1A6,6,0,0,0,10.18,22a18.26,18.26,0,0,0,5.3,1.28,10.67,10.67,0,0,1,2.77.83,8.63,8.63,0,0,1,2.39,1.71,9.19,9.19,0,0,1,1.66,2.43c.41.87.75,1.74,1.16,2.56A6,6,0,0,0,25,32.9a.88.88,0,0,0,1.53-.52A3.65,3.65,0,0,0,26,30a21.94,21.94,0,0,1-1-2,2.84,2.84,0,0,1-.17-.49.88.88,0,0,1-.05-.15,1.63,1.63,0,0,0-.07-.3,5.05,5.05,0,0,1-.07-.68,2.91,2.91,0,0,1,0-.59,3,3,0,0,1,.08-.32,3.38,3.38,0,0,1,.18-.44,3.6,3.6,0,0,1,.2-.39,2.2,2.2,0,0,1,.21-.32,6,6,0,0,1,2.45-1.72A15.7,15.7,0,0,0,32.5,20Z"/></svg>