<svg id="Layer_1" data-name="Layer 1" xmlns="http://www.w3.org/2000/svg" xmlns:xlink="http://www.w3.org/1999/xlink" viewBox="0 0 364.34 125.49"><defs><style>.cls-1{fill:none;}.cls-2{fill:#fff;}.cls-3{clip-path:url(#clip-path);}.cls-4{fill:#3e8273;}.cls-5,.cls-6{fill:#231f20;}.cls-5{fill-rule:evenodd;}.cls-7{fill:#d3d3d3;}</style><clipPath id="clip-path" transform="translate(-64.92 -50.01)"><path class="cls-1" d="M183.46,65.85C168,48.14,131.64,54.55,102.38,80.2S61.94,141,77.45,158.68c13,14.87,40.7,12.73,66.55-3.5.06-.56.15-1.26.15-1.37a14.06,14.06,0,1,0-28.11,0c0,.18,0,.36,0,.55H104.79c0-.19,0-.37,0-.55A25.33,25.33,0,0,1,125.18,129V115a25.31,25.31,0,0,1-20.81-24.9c0-.18,0-.36,0-.55h11.29c0,.19,0,.37,0,.55a14.06,14.06,0,0,0,28.11,0c0-.18,0-.36,0-.55H155c0,.19,0,.37,0,.55a25.27,25.27,0,0,1-19.1,24.51V129c10.09,1.95,15.76,9.08,18.59,18.68,1.37-1.1,2.72-2.21,4-3.37C187.82,118.71,199,83.56,183.46,65.85Zm-53.23,35.34a10.08,10.08,0,1,1,10.08-10.08A10.07,10.07,0,0,1,130.23,101.19Z"/></clipPath></defs><title>NT-logo</title><path class="cls-2" d="M98.65,75.22c31.91-27.77,72.41-33.48,90.44-12.74s6.79,60-25.12,87.81S91.56,183.76,73.52,163,66.74,103,98.65,75.22Z" transform="translate(-64.92 -50.01)"/><g class="cls-3"><rect class="cls-4" x="68.89" y="4.43" width="45.35" height="5"/><rect class="cls-4" x="53.95" y="11.43" width="68.03" height="5"/><rect class="cls-4" x="42.86" y="18.43" width="82.2" height="5"/><rect class="cls-4" x="36.61" y="25.43" width="90.71" height="5"/><rect class="cls-4" x="28.36" y="32.43" width="99.21" height="5"/><rect class="cls-4" x="21.53" y="39.43" width="104.88" height="5"/><rect class="cls-4" x="15.69" y="46.43" width="110.55" height="5"/><rect class="cls-4" x="13.69" y="53.43" width="110.55" height="5"/><rect class="cls-4" x="8.27" y="60.43" width="113.39" height="5"/><rect class="cls-4" x="6.27" y="67.43" width="113.39" height="5"/><rect class="cls-4" x="5.1" y="74.43" width="107.72" height="5"/><rect class="cls-4" x="3.52" y="81.43" width="104.88" height="5"/><rect class="cls-4" x="4.77" y="88.43" width="96.38" height="5"/><rect class="cls-4" x="6.03" y="95.43" width="87.87" height="5"/><rect class="cls-4" x="5.28" y="102.43" width="79.37" height="5"/><rect class="cls-4" x="10.78" y="109.43" width="62.36" height="5"/><rect class="cls-4" x="20.95" y="116.43" width="34.02" height="5"/></g><path class="cls-5" d="M109.9,96.12a2.87,2.87,0,0,0-.78,3.75c2.34,3.22,5.58,5.94,8.55,8.76,1.89,1.79,4.28,2.36,7.19,2.62a18.16,18.16,0,0,1,2.28.33,46.55,46.55,0,0,0,.63,8,46.29,46.29,0,0,1,.71,9.68,28.75,28.75,0,0,0-9.25,4.4c-1.81,1.36-6.28,5.68-7.1,7.12-1.84,3.21-5.41,6.72-2,9.26,2.38,1.77,2.66-.15,3.08-2.39a16.36,16.36,0,0,1,1.19-3.71,20.78,20.78,0,0,1,9.56-9.56,18.27,18.27,0,0,1,7.36-1.7,11.46,11.46,0,0,1,5.29,1.19c3.36,1.7,7.29,8.83,8.34,12.25a40.57,40.57,0,0,1,.82,6.18c2.63.4,4.24,1.69,6.14,2.16,3.24.82,2-4,1.65-5.4-1.39-5.33-3.44-8.05-6.67-11.61a25.81,25.81,0,0,0-7.47-5.74c-1.19-.65-4.86-2.34-6.32-2.34-.26-2.17-.35-5.6-.42-5.88-.79-3.21-1.59-7.84-.71-10.67.12-.37,1-.74,1.42-.87,2.68-1,7.57-2.75,10.29-5.47a47.19,47.19,0,0,0,4.21-4.14c.48-.59,1.12-2.13,1.52-2.79.3-.5,1.36-1.07,1.61-1.63.9-2.07,1.33-4.69-1.06-4.79-3-.11-3,1.32-3.16,4-.33,4.77-2.95,6.37-7.28,9-1.59.94-5.62,4-7.36,3.9-.4,0-.32-.48-.46-.87s-1.5-.36-2.92-.14c-.57.09-.68.54-1,.59a8.6,8.6,0,0,1-2.44-.27c-1.84-.12-4.85-.66-6.55-2.28-1.93-1.85-3.06-3.75-4.58-5.33s-.77-2.64-1.63-4c-1-1.65-1.61-2.46-2.63-1.66m20.58-2.34a8.42,8.42,0,0,0-3.85,2.13,6.25,6.25,0,0,0-1.44,6.78c1,2.74,6.95,3.33,9.6,3.17,5.13-.28,4.51-4.72,3.16-7.78-1.77-4-3.23-5.12-7.47-4.3" transform="translate(-64.92 -50.01)"/><path class="cls-6" d="M253.9,109.74c.36-4,1.36-6.9,2.94-8.72s4.23-2.68,7.82-2.68,6.13.93,7.48,2.83c1.22,1.73,1.69,4.59,1.33,8.57l-2,23.32c-.36,4-1.31,6.89-2.86,8.68s-4.33,2.76-8,2.76-6.06-.9-7.36-2.72-1.75-4.7-1.39-8.72Zm8.64-2.94L260,135.63c-.15,1.45.28,2.18,1.19,2.18s1.52-.73,1.66-2.18l2.51-28.83c.15-1.41-.3-2.12-1.29-2.12s-1.45.71-1.56,2.12m-19.39,7.68.59-7a2.62,2.62,0,0,0-.37-2c-.26-.37-1-.51-2.21-.51l-1,12.07h.47c1.53,0,2.4-.85,2.56-2.52m-13.76,29,3.86-44.16h9.8c3.43,0,5.88.63,7.28,1.87s2,3.3,1.81,6.11l-.43,4.64c-.39,4.67-2.83,7.12-7.1,7.38l0,.23c2.37.17,4,.8,4.84,1.91s1.2,2.94,1,5.51l-1,11.22a18.42,18.42,0,0,0,.3,5.29h-8.3a15.72,15.72,0,0,1-.32-5.51l1-11.26c.21-2.49-.6-3.71-2.48-3.71l-1.79,20.48Zm1.28-44.16-3,33.8c-.35,4-1.34,6.87-2.87,8.6-1.68,1.83-4.34,2.76-7.94,2.76s-6.12-.93-7.47-2.76-1.7-4.59-1.35-8.6L211,99.34h8.35l-3.19,36.29c-.11,1.45.31,2.18,1.29,2.18s1.45-.73,1.58-2.18l3.17-36.29ZM189.34,143.5l3.87-44.16h15.62l-.53,6.1h-7.23l-.89,10.23h7l-.56,6.35h-7l-1.29,14.8h7.22L205,143.5Zm-24.77,0,3.86-44.16h11.5L181.26,118a113.08,113.08,0,0,1,.06,12.8h.34c.28-6.5.54-10.91.74-13.2L184,99.34h6.54l-3.86,44.16h-9.86l-2.21-24c-.17-1.75-.32-5.25-.48-10.53h-.23c-.1,3.73-.22,6.44-.38,8.25l-2.3,26.25Z" transform="translate(-64.92 -50.01)"/><path class="cls-7" d="M252.08,108.33c.36-4,1.36-6.93,3-8.7s4.23-2.72,7.81-2.72,6.06,1,7.45,2.83q1.89,2.58,1.37,8.59l-2,23.33c-.35,4-1.34,6.89-2.86,8.64-1.73,1.84-4.35,2.75-8,2.75s-6.05-.86-7.35-2.68-1.81-4.73-1.46-8.71Zm8.7-2.94-2.54,28.84c-.11,1.41.25,2.14,1.22,2.14s1.52-.73,1.67-2.14l2.51-28.84c.11-1.44-.3-2.15-1.29-2.15s-1.46.71-1.57,2.15M241.34,113l.62-7a2.52,2.52,0,0,0-.35-2,3.07,3.07,0,0,0-2.21-.54l-1,12.1h.44c1.56,0,2.39-.85,2.54-2.55m-13.69,29,3.86-44.16h9.79c3.43,0,5.88.63,7.27,1.9s2,3.3,1.75,6.07l-.4,4.68c-.42,4.67-2.78,7.09-7.13,7.35v.26c2.41.17,4,.81,4.89,1.92s1.16,2.93.92,5.5l-1,11.23a17.84,17.84,0,0,0,.32,5.25h-8.26a15.77,15.77,0,0,1-.36-5.51l1-11.23c.23-2.48-.57-3.75-2.43-3.75L236,142.06Zm1.2-44.16-2.95,33.83c-.36,4-1.28,6.84-2.82,8.57-1.72,1.84-4.33,2.75-7.94,2.75s-6.12-.91-7.47-2.75-1.7-4.59-1.35-8.57l3-33.83h8.34l-3.19,36.33c-.11,1.41.31,2.14,1.29,2.14s1.46-.73,1.58-2.14l3.18-36.33Zm-41.27,44.16,3.87-44.16h15.62l-.54,6.13h-7.24l-.89,10.19h7.06l-.56,6.41h-7.06l-1.3,14.78h7.24l-.58,6.65Zm-24.77,0,3.86-44.16h11.48l1.34,18.72a112.61,112.61,0,0,1,0,12.76h.34c.31-6.51.56-10.92.76-13.17l1.6-18.31h6.53l-3.87,44.16H175l-2.2-24q-.26-2.62-.49-10.47h-.24c-.08,3.68-.21,6.42-.36,8.24l-2.3,26.21Z" transform="translate(-64.92 -50.01)"/><path class="cls-6" d="M283.26,143.39H280c-1.84,0-3-.24-3.58-.69s-.83-1.48-.7-3.14l2-23.3h-1.61l.37-4.23h1.61l.53-6h5.89l-.5,6H286l-.39,4.23h-1.89l-1.9,21.49a1.85,1.85,0,0,0,.12,1.07,1.1,1.1,0,0,0,.86.3h.84Z" transform="translate(-64.92 -50.01)"/><path class="cls-6" d="M294.11,124.75l.66-7.7a2.15,2.15,0,0,0-.18-1.35,1.11,1.11,0,0,0-1-.4,1.22,1.22,0,0,0-1,.4,2,2,0,0,0-.39,1.35l-.7,7.7Zm-3.85,13.59a2,2,0,0,0,.18,1.33,1.09,1.09,0,0,0,1,.44,1.25,1.25,0,0,0,1-.43,1.94,1.94,0,0,0,.47-1.34l.64-7.39h5.88l-.6,6.87a6.07,6.07,0,0,1-2.17,4.55,9.25,9.25,0,0,1-5.59,1.49,8.13,8.13,0,0,1-5.33-1.49,5.24,5.24,0,0,1-1.38-4.55l1.76-20.23a6.18,6.18,0,0,1,2.19-4.56,8.93,8.93,0,0,1,5.6-1.55c2.45,0,4.16.52,5.32,1.55s1.56,2.5,1.38,4.56l-.94,10.87h-8.57Z" transform="translate(-64.92 -50.01)"/><path class="cls-6" d="M315.8,137.82a6,6,0,0,1-2.2,4.55,9.15,9.15,0,0,1-5.56,1.49c-2.43,0-4.2-.52-5.3-1.49a5.22,5.22,0,0,1-1.43-4.55l1.78-20.22a6.07,6.07,0,0,1,2.22-4.57,8.72,8.72,0,0,1,5.57-1.55c2.42,0,4.16.52,5.29,1.55s1.59,2.5,1.41,4.57l-.51,5.79h-5.89l.55-6.34a2.24,2.24,0,0,0-.17-1.35,1.15,1.15,0,0,0-1-.4,1.36,1.36,0,0,0-1.07.4,2.53,2.53,0,0,0-.38,1.35l-1.86,21.29a1.92,1.92,0,0,0,.17,1.33,1.18,1.18,0,0,0,1,.44,1.35,1.35,0,0,0,1.07-.43,2.49,2.49,0,0,0,.45-1.34l.65-7.39h5.89Z" transform="translate(-64.92 -50.01)"/><path class="cls-6" d="M317.89,143.39l3.42-39.19h5.87l-.88,10.21h.12a5.14,5.14,0,0,1,1.81-2.09,4.9,4.9,0,0,1,2.63-.66c1.52,0,2.56.37,3.09,1.18s.74,2.23.56,4.31l-2.3,26.24h-5.76l2.26-25.6a2.09,2.09,0,0,0-.24-1.37,1,1,0,0,0-1-.39,1.27,1.27,0,0,0-1.06.39,2.58,2.58,0,0,0-.47,1.37l-2.22,25.6Z" transform="translate(-64.92 -50.01)"/><path class="cls-6" d="M334.85,143.39,337.59,112h5.75l-.2,2.38h.09a6.18,6.18,0,0,1,2-2.11,4.76,4.76,0,0,1,2.58-.64c1.5,0,2.56.37,3.12,1.18s.72,2.23.54,4.31l-2.3,26.24h-5.76l2.22-25.6a2.07,2.07,0,0,0-.2-1.37,1.12,1.12,0,0,0-1-.39,1.25,1.25,0,0,0-1,.39,2.43,2.43,0,0,0-.46,1.37l-2.23,25.6Z" transform="translate(-64.92 -50.01)"/><path class="cls-6" d="M359.92,117.05l-1.86,21.29a2.23,2.23,0,0,0,.19,1.33,1.15,1.15,0,0,0,1,.44,1.39,1.39,0,0,0,1-.43,2.33,2.33,0,0,0,.46-1.34l1.86-21.29a2,2,0,0,0-.21-1.35,1,1,0,0,0-1-.4,1.28,1.28,0,0,0-1.07.4,2.33,2.33,0,0,0-.42,1.35m-6,.54a6,6,0,0,1,2.23-4.56,8.83,8.83,0,0,1,5.6-1.55c2.38,0,4.16.52,5.24,1.55s1.64,2.5,1.46,4.56l-1.77,20.23a6,6,0,0,1-2.25,4.55,9,9,0,0,1-5.52,1.49c-2.46,0-4.2-.52-5.33-1.49a5.17,5.17,0,0,1-1.44-4.55Z" transform="translate(-64.92 -50.01)"/><polygon class="cls-6" points="307.28 54.2 313.15 54.2 309.7 93.38 303.83 93.38 307.28 54.2"/><path class="cls-6" d="M385.43,117.05l-1.86,21.29a2.31,2.31,0,0,0,.19,1.33,1.14,1.14,0,0,0,1,.44,1.42,1.42,0,0,0,1.05-.43,2.44,2.44,0,0,0,.4-1.34l1.88-21.29a2.23,2.23,0,0,0-.18-1.35,1.08,1.08,0,0,0-1-.4,1.36,1.36,0,0,0-1.09.4,2.51,2.51,0,0,0-.4,1.35m-6,.54a6,6,0,0,1,2.22-4.56,8.76,8.76,0,0,1,5.59-1.55q3.59,0,5.26,1.55a5.1,5.1,0,0,1,1.44,4.56l-1.77,20.23a6.09,6.09,0,0,1-2.23,4.55,9.13,9.13,0,0,1-5.54,1.49c-2.45,0-4.21-.52-5.32-1.49s-1.6-2.54-1.44-4.55Z" transform="translate(-64.92 -50.01)"/><path class="cls-6" d="M403.7,133.34l1.36-15.55a2.2,2.2,0,0,0-.23-1.37,1,1,0,0,0-1-.39,1.27,1.27,0,0,0-1.05.39,2.3,2.3,0,0,0-.45,1.37L401,133.34a2,2,0,0,0,.2,1.37,1.09,1.09,0,0,0,1,.38,1.28,1.28,0,0,0,1.06-.39,2.68,2.68,0,0,0,.45-1.36m4.8,11a6.17,6.17,0,0,1-2.2,4.56,8.82,8.82,0,0,1-5.5,1.54c-2.37,0-4.14-.53-5.23-1.54a5.24,5.24,0,0,1-1.41-4.56l.28-3.25h5.89l-.3,3.48a1.83,1.83,0,0,0,.2,1.33,1.09,1.09,0,0,0,1,.42,1.31,1.31,0,0,0,1-.42,2.4,2.4,0,0,0,.44-1.33l.64-7.31h-.18a5.46,5.46,0,0,1-1.86,2,5,5,0,0,1-2.55.67,3.53,3.53,0,0,1-3.12-1.24c-.56-.87-.78-2.36-.58-4.53l1.48-17c.19-2.08.65-3.55,1.36-4.31a4.09,4.09,0,0,1,3.29-1.18,4.59,4.59,0,0,1,2.59.71,4,4,0,0,1,1.51,2h.12l.21-2.38h5.71Z" transform="translate(-64.92 -50.01)"/><path class="cls-6" d="M410.79,146.09h1.95a2.72,2.72,0,0,0,1.47-.31,1.47,1.47,0,0,0,.57-1.1,2.31,2.31,0,0,0,0-.43,1.26,1.26,0,0,0,0-.27L412.55,112h6.06l.31,9.64c.11,3.91.12,6.94.07,9.09s-.14,4.2-.31,6.06l-.07.89h.61c.37-3.39.76-6.53,1.23-9.43s.89-5.41,1.35-7.53l1.85-8.72h5.61l-7.69,32.11c-.68,2.85-1.52,4.61-2.51,5.31s-3.13,1-6.44,1h-2.2Z" transform="translate(-64.92 -50.01)"/></svg>